<?xml version="1.0" encoding="UTF-8" standalone="no"?><svg xmlns="http://www.w3.org/2000/svg" xmlns:xlink="http://www.w3.org/1999/xlink" clip-rule="evenodd" stroke-miterlimit="4.00" viewBox="0 0 679 28"><desc>SVG generated by Keynote</desc><defs></defs><g transform="matrix(1.00, 0.00, -0.00, -1.00, 0.0, 28.0)"><text xml:space="preserve" font-family="IowanOldStyle-Roman" font-size="32.3" fill="#000000" transform="matrix(1.00, 0.00, -0.00, -1.00, 0.0, 2.0)">t</text><text xml:space="preserve" font-family="IowanOldStyle-Roman" font-size="32.3" fill="#000000" transform="matrix(1.00, 0.00, -0.00, -1.00, 11.6, 2.0)">h</text><text xml:space="preserve" font-family="IowanOldStyle-Roman" font-size="32.3" fill="#000000" transform="matrix(1.00, 0.00, -0.00, -1.00, 30.5, 2.0)">a</text><text xml:space="preserve" font-family="IowanOldStyle-Roman" font-size="32.3" fill="#000000" transform="matrix(1.00, 0.00, -0.00, -1.00, 46.1, 2.0)">t</text><text xml:space="preserve" font-family="IowanOldStyle-Roman" font-size="32.3" fill="#000000" transform="matrix(1.00, 0.00, -0.00, -1.00, 57.7, 2.0)"> </text><text xml:space="preserve" font-family="IowanOldStyle-Roman" font-size="32.3" fill="#000000" transform="matrix(1.00, 0.00, -0.00, -1.00, 66.7, 2.0)">u</text><text xml:space="preserve" font-family="IowanOldStyle-Roman" font-size="32.3" fill="#000000" transform="matrix(1.00, 0.00, -0.00, -1.00, 85.7, 2.0)">s</text><text xml:space="preserve" font-family="IowanOldStyle-Roman" font-size="32.3" fill="#000000" transform="matrix(1.00, 0.00, -0.00, -1.00, 100.0, 2.0)">e</text><text xml:space="preserve" font-family="IowanOldStyle-Roman" font-size="32.3" fill="#000000" transform="matrix(1.00, 0.00, -0.00, -1.00, 115.7, 2.0)">r</text><text xml:space="preserve" font-family="IowanOldStyle-Roman" font-size="32.3" fill="#000000" transform="matrix(1.00, 0.00, -0.00, -1.00, 128.3, 2.0)">s</text><text xml:space="preserve" font-family="IowanOldStyle-Roman" font-size="32.3" fill="#000000" transform="matrix(1.00, 0.00, -0.00, -1.00, 142.6, 2.0)"> </text><text xml:space="preserve" font-family="IowanOldStyle-Roman" font-size="32.3" fill="#000000" transform="matrix(1.00, 0.00, -0.00, -1.00, 151.6, 2.0)">w</text><text xml:space="preserve" font-family="IowanOldStyle-Roman" font-size="32.3" fill="#000000" transform="matrix(1.00, 0.00, -0.00, -1.00, 176.6, 2.0)">o</text><text xml:space="preserve" font-family="IowanOldStyle-Roman" font-size="32.3" fill="#000000" transform="matrix(1.00, 0.00, -0.00, -1.00, 194.4, 2.0)">u</text><text xml:space="preserve" font-family="IowanOldStyle-Roman" font-size="32.3" fill="#000000" transform="matrix(1.00, 0.00, -0.00, -1.00, 213.4, 2.0)">l</text><text xml:space="preserve" font-family="IowanOldStyle-Roman" font-size="32.3" fill="#000000" transform="matrix(1.00, 0.00, -0.00, -1.00, 222.8, 2.0)">d</text><text xml:space="preserve" font-family="IowanOldStyle-Roman" font-size="32.3" fill="#000000" transform="matrix(1.00, 0.00, -0.00, -1.00, 241.0, 2.0)"> </text><text xml:space="preserve" font-family="IowanOldStyle-Roman" font-size="32.3" fill="#000000" transform="matrix(1.00, 0.00, -0.00, -1.00, 249.9, 2.0)">l</text><text xml:space="preserve" font-family="IowanOldStyle-Roman" font-size="32.3" fill="#000000" transform="matrix(1.00, 0.00, -0.00, -1.00, 259.4, 2.0)">i</text><text xml:space="preserve" font-family="IowanOldStyle-Roman" font-size="32.3" fill="#000000" transform="matrix(1.00, 0.00, -0.00, -1.00, 268.9, 2.0)">k</text><text xml:space="preserve" font-family="IowanOldStyle-Roman" font-size="32.3" fill="#000000" transform="matrix(1.00, 0.00, -0.00, -1.00, 285.6, 2.0)">e</text><text xml:space="preserve" font-family="IowanOldStyle-Roman" font-size="32.3" fill="#000000" transform="matrix(1.00, 0.00, -0.00, -1.00, 301.3, 2.0)"> </text><text xml:space="preserve" font-family="IowanOldStyle-Roman" font-size="32.3" fill="#000000" transform="matrix(1.00, 0.00, -0.00, -1.00, 310.3, 2.0)">t</text><text xml:space="preserve" font-family="IowanOldStyle-Roman" font-size="32.3" fill="#000000" transform="matrix(1.00, 0.00, -0.00, -1.00, 321.9, 2.0)">o</text><text xml:space="preserve" font-family="IowanOldStyle-Roman" font-size="32.3" fill="#000000" transform="matrix(1.00, 0.00, -0.00, -1.00, 339.7, 2.0)"> </text><text xml:space="preserve" font-family="IowanOldStyle-Roman" font-size="32.3" fill="#000000" transform="matrix(1.00, 0.00, -0.00, -1.00, 348.7, 2.0)">h</text><text xml:space="preserve" font-family="IowanOldStyle-Roman" font-size="32.3" fill="#000000" transform="matrix(1.00, 0.00, -0.00, -1.00, 367.6, 2.0)">a</text><text xml:space="preserve" font-family="IowanOldStyle-Roman" font-size="32.3" fill="#000000" transform="matrix(1.00, 0.00, -0.00, -1.00, 383.1, 2.0)">v</text><text xml:space="preserve" font-family="IowanOldStyle-Roman" font-size="32.3" fill="#000000" transform="matrix(1.00, 0.00, -0.00, -1.00, 399.0, 2.0)">e</text><text xml:space="preserve" font-family="IowanOldStyle-Roman" font-size="32.3" fill="#000000" transform="matrix(1.00, 0.00, -0.00, -1.00, 414.7, 2.0)"> </text><text xml:space="preserve" font-family="IowanOldStyle-Roman" font-size="32.3" fill="#000000" transform="matrix(1.00, 0.00, -0.00, -1.00, 423.7, 2.0)">a</text><text xml:space="preserve" font-family="IowanOldStyle-Roman" font-size="32.3" fill="#000000" transform="matrix(1.00, 0.00, -0.00, -1.00, 439.2, 2.0)">v</text><text xml:space="preserve" font-family="IowanOldStyle-Roman" font-size="32.3" fill="#000000" transform="matrix(1.00, 0.00, -0.00, -1.00, 455.1, 2.0)">a</text><text xml:space="preserve" font-family="IowanOldStyle-Roman" font-size="32.3" fill="#000000" transform="matrix(1.00, 0.00, -0.00, -1.00, 470.7, 2.0)">i</text><text xml:space="preserve" font-family="IowanOldStyle-Roman" font-size="32.3" fill="#000000" transform="matrix(1.00, 0.00, -0.00, -1.00, 480.2, 2.0)">l</text><text xml:space="preserve" font-family="IowanOldStyle-Roman" font-size="32.3" fill="#000000" transform="matrix(1.00, 0.00, -0.00, -1.00, 489.7, 2.0)">a</text><text xml:space="preserve" font-family="IowanOldStyle-Roman" font-size="32.3" fill="#000000" transform="matrix(1.00, 0.00, -0.00, -1.00, 505.2, 2.0)">b</text><text xml:space="preserve" font-family="IowanOldStyle-Roman" font-size="32.3" fill="#000000" transform="matrix(1.00, 0.00, -0.00, -1.00, 523.2, 2.0)">l</text><text xml:space="preserve" font-family="IowanOldStyle-Roman" font-size="32.3" fill="#000000" transform="matrix(1.00, 0.00, -0.00, -1.00, 532.6, 2.0)">e</text><text xml:space="preserve" font-family="IowanOldStyle-Roman" font-size="32.3" fill="#000000" transform="matrix(1.00, 0.00, -0.00, -1.00, 548.4, 2.0)"> </text><text xml:space="preserve" font-family="IowanOldStyle-Roman" font-size="32.3" fill="#000000" transform="matrix(1.00, 0.00, -0.00, -1.00, 557.3, 2.0)">t</text><text xml:space="preserve" font-family="IowanOldStyle-Roman" font-size="32.3" fill="#000000" transform="matrix(1.00, 0.00, -0.00, -1.00, 568.9, 2.0)">o</text><text xml:space="preserve" font-family="IowanOldStyle-Roman" font-size="32.3" fill="#000000" transform="matrix(1.00, 0.00, -0.00, -1.00, 586.7, 2.0)"> </text><text xml:space="preserve" font-family="IowanOldStyle-Roman" font-size="32.3" fill="#000000" transform="matrix(1.00, 0.00, -0.00, -1.00, 595.7, 2.0)">t</text><text xml:space="preserve" font-family="IowanOldStyle-Roman" font-size="32.3" fill="#000000" transform="matrix(1.00, 0.00, -0.00, -1.00, 607.3, 2.0)">h</text><text xml:space="preserve" font-family="IowanOldStyle-Roman" font-size="32.3" fill="#000000" transform="matrix(1.00, 0.00, -0.00, -1.00, 626.2, 2.0)">e</text><text xml:space="preserve" font-family="IowanOldStyle-Roman" font-size="32.3" fill="#000000" transform="matrix(1.00, 0.00, -0.00, -1.00, 642.0, 2.0)">m</text><text xml:space="preserve" font-family="IowanOldStyle-Roman" font-size="32.3" fill="#000000" transform="matrix(1.00, 0.00, -0.00, -1.00, 670.4, 2.0)">.</text></g></svg>