<?xml version="1.0" encoding="UTF-8" standalone="no"?><svg xmlns="http://www.w3.org/2000/svg" xmlns:xlink="http://www.w3.org/1999/xlink" clip-rule="evenodd" stroke-miterlimit="4.00" viewBox="0 0 555 56"><desc>SVG generated by Keynote</desc><defs></defs><g transform="matrix(1.00, 0.00, -0.00, -1.00, 0.0, 56.0)"><text xml:space="preserve" font-family="IowanOldStyle-Roman" font-size="72.0" fill="#000000" transform="matrix(1.00, 0.00, -0.00, -1.00, -2.0, 3.0)">U</text><text xml:space="preserve" font-family="IowanOldStyle-Roman" font-size="72.0" fill="#000000" transform="matrix(1.00, 0.00, -0.00, -1.00, 54.7, 3.0)">S</text><text xml:space="preserve" font-family="IowanOldStyle-Roman" font-size="72.0" fill="#000000" transform="matrix(1.00, 0.00, -0.00, -1.00, 93.6, 3.0)">E</text><text xml:space="preserve" font-family="IowanOldStyle-Roman" font-size="72.0" fill="#000000" transform="matrix(1.00, 0.00, -0.00, -1.00, 139.3, 3.0)">R</text><text xml:space="preserve" font-family="IowanOldStyle-Roman" font-size="72.0" fill="#000000" transform="matrix(1.00, 0.00, -0.00, -1.00, 189.9, 3.0)"> </text><text xml:space="preserve" font-family="IowanOldStyle-Roman" font-size="72.0" fill="#000000" transform="matrix(1.00, 0.00, -0.00, -1.00, 209.9, 3.0)">P</text><text xml:space="preserve" font-family="IowanOldStyle-Roman" font-size="72.0" fill="#000000" transform="matrix(1.00, 0.00, -0.00, -1.00, 252.3, 3.0)">E</text><text xml:space="preserve" font-family="IowanOldStyle-Roman" font-size="72.0" fill="#000000" transform="matrix(1.00, 0.00, -0.00, -1.00, 297.9, 3.0)">R</text><text xml:space="preserve" font-family="IowanOldStyle-Roman" font-size="72.0" fill="#000000" transform="matrix(1.00, 0.00, -0.00, -1.00, 348.5, 3.0)">S</text><text xml:space="preserve" font-family="IowanOldStyle-Roman" font-size="72.0" fill="#000000" transform="matrix(1.00, 0.00, -0.00, -1.00, 387.5, 3.0)">O</text><text xml:space="preserve" font-family="IowanOldStyle-Roman" font-size="72.0" fill="#000000" transform="matrix(1.00, 0.00, -0.00, -1.00, 445.2, 3.0)">N</text><text xml:space="preserve" font-family="IowanOldStyle-Roman" font-size="72.0" fill="#000000" transform="matrix(1.00, 0.00, -0.00, -1.00, 503.4, 3.0)">A</text></g></svg>