<?xml version="1.0" encoding="UTF-8" standalone="no"?><svg xmlns="http://www.w3.org/2000/svg" xmlns:xlink="http://www.w3.org/1999/xlink" clip-rule="evenodd" stroke-miterlimit="4.00" viewBox="0 0 195 16"><desc>SVG generated by Keynote</desc><defs></defs><g transform="matrix(1.00, 0.00, -0.00, -1.00, 0.0, 16.0)"><text xml:space="preserve" font-family="IowanOldStyle-Roman" font-size="16.3" fill="#000000" transform="matrix(1.00, 0.00, -0.00, -1.00, 1.0, 2.0)">a</text><text xml:space="preserve" font-family="IowanOldStyle-Roman" font-size="16.3" fill="#000000" transform="matrix(1.00, 0.00, -0.00, -1.00, 8.9, 2.0)">r</text><text xml:space="preserve" font-family="IowanOldStyle-Roman" font-size="16.3" fill="#000000" transform="matrix(1.00, 0.00, -0.00, -1.00, 15.2, 2.0)">e</text><text xml:space="preserve" font-family="IowanOldStyle-Roman" font-size="16.3" fill="#000000" transform="matrix(1.00, 0.00, -0.00, -1.00, 23.2, 2.0)"> </text><text xml:space="preserve" font-family="IowanOldStyle-Roman" font-size="16.3" fill="#000000" transform="matrix(1.00, 0.00, -0.00, -1.00, 27.7, 2.0)">n</text><text xml:space="preserve" font-family="IowanOldStyle-Roman" font-size="16.3" fill="#000000" transform="matrix(1.00, 0.00, -0.00, -1.00, 37.3, 2.0)">o</text><text xml:space="preserve" font-family="IowanOldStyle-Roman" font-size="16.3" fill="#000000" transform="matrix(1.00, 0.00, -0.00, -1.00, 46.3, 2.0)">t</text><text xml:space="preserve" font-family="IowanOldStyle-Roman" font-size="16.3" fill="#000000" transform="matrix(1.00, 0.00, -0.00, -1.00, 52.2, 2.0)"> </text><text xml:space="preserve" font-family="IowanOldStyle-Roman" font-size="16.3" fill="#000000" transform="matrix(1.00, 0.00, -0.00, -1.00, 56.7, 2.0)">o</text><text xml:space="preserve" font-family="IowanOldStyle-Roman" font-size="16.3" fill="#000000" transform="matrix(1.00, 0.00, -0.00, -1.00, 65.7, 2.0)">v</text><text xml:space="preserve" font-family="IowanOldStyle-Roman" font-size="16.3" fill="#000000" transform="matrix(1.00, 0.00, -0.00, -1.00, 73.7, 2.0)">e</text><text xml:space="preserve" font-family="IowanOldStyle-Roman" font-size="16.3" fill="#000000" transform="matrix(1.00, 0.00, -0.00, -1.00, 81.7, 2.0)">r</text><text xml:space="preserve" font-family="IowanOldStyle-Roman" font-size="16.3" fill="#000000" transform="matrix(1.00, 0.00, -0.00, -1.00, 88.4, 2.0)">w</text><text xml:space="preserve" font-family="IowanOldStyle-Roman" font-size="16.3" fill="#000000" transform="matrix(1.00, 0.00, -0.00, -1.00, 101.0, 2.0)">h</text><text xml:space="preserve" font-family="IowanOldStyle-Roman" font-size="16.3" fill="#000000" transform="matrix(1.00, 0.00, -0.00, -1.00, 110.6, 2.0)">e</text><text xml:space="preserve" font-family="IowanOldStyle-Roman" font-size="16.3" fill="#000000" transform="matrix(1.00, 0.00, -0.00, -1.00, 118.6, 2.0)">l</text><text xml:space="preserve" font-family="IowanOldStyle-Roman" font-size="16.3" fill="#000000" transform="matrix(1.00, 0.00, -0.00, -1.00, 123.3, 2.0)">m</text><text xml:space="preserve" font-family="IowanOldStyle-Roman" font-size="16.3" fill="#000000" transform="matrix(1.00, 0.00, -0.00, -1.00, 137.7, 2.0)">e</text><text xml:space="preserve" font-family="IowanOldStyle-Roman" font-size="16.3" fill="#000000" transform="matrix(1.00, 0.00, -0.00, -1.00, 145.7, 2.0)">d</text><text xml:space="preserve" font-family="IowanOldStyle-Roman" font-size="16.3" fill="#000000" transform="matrix(1.00, 0.00, -0.00, -1.00, 154.9, 2.0)">.</text><text xml:space="preserve" font-family="IowanOldStyle-Roman" font-size="16.3" fill="#000000" transform="matrix(1.00, 0.00, -0.00, -1.00, 159.4, 2.0)"> </text><text xml:space="preserve" font-family="IowanOldStyle-Roman" font-size="16.3" fill="#000000" transform="matrix(1.00, 0.00, -0.00, -1.00, 163.9, 2.0)">O</text><text xml:space="preserve" font-family="IowanOldStyle-Roman" font-size="16.3" fill="#000000" transform="matrix(1.00, 0.00, -0.00, -1.00, 177.0, 2.0)">u</text><text xml:space="preserve" font-family="IowanOldStyle-Roman" font-size="16.3" fill="#000000" transform="matrix(1.00, 0.00, -0.00, -1.00, 186.6, 2.0)">r</text></g></svg>