<?xml version="1.0" encoding="UTF-8" standalone="no"?><svg xmlns="http://www.w3.org/2000/svg" xmlns:xlink="http://www.w3.org/1999/xlink" clip-rule="evenodd" stroke-miterlimit="4.00" viewBox="0 0 852 57"><desc>SVG generated by Keynote</desc><defs></defs><g transform="matrix(1.00, 0.00, -0.00, -1.00, 0.0, 57.0)"><text xml:space="preserve" font-family="IowanOldStyle-Roman" font-size="72.0" fill="#000000" transform="matrix(1.00, 0.00, -0.00, -1.00, -1.0, 3.0)">C</text><text xml:space="preserve" font-family="IowanOldStyle-Roman" font-size="72.0" fill="#000000" transform="matrix(1.00, 0.00, -0.00, -1.00, 49.9, 3.0)">L</text><text xml:space="preserve" font-family="IowanOldStyle-Roman" font-size="72.0" fill="#000000" transform="matrix(1.00, 0.00, -0.00, -1.00, 91.1, 3.0)">I</text><text xml:space="preserve" font-family="IowanOldStyle-Roman" font-size="72.0" fill="#000000" transform="matrix(1.00, 0.00, -0.00, -1.00, 115.5, 3.0)">C</text><text xml:space="preserve" font-family="IowanOldStyle-Roman" font-size="72.0" fill="#000000" transform="matrix(1.00, 0.00, -0.00, -1.00, 166.4, 3.0)">K</text><text xml:space="preserve" font-family="IowanOldStyle-Roman" font-size="72.0" fill="#000000" transform="matrix(1.00, 0.00, -0.00, -1.00, 215.0, 3.0)">A</text><text xml:space="preserve" font-family="IowanOldStyle-Roman" font-size="72.0" fill="#000000" transform="matrix(1.00, 0.00, -0.00, -1.00, 267.0, 3.0)">B</text><text xml:space="preserve" font-family="IowanOldStyle-Roman" font-size="72.0" fill="#000000" transform="matrix(1.00, 0.00, -0.00, -1.00, 311.8, 3.0)">L</text><text xml:space="preserve" font-family="IowanOldStyle-Roman" font-size="72.0" fill="#000000" transform="matrix(1.00, 0.00, -0.00, -1.00, 353.0, 3.0)">E</text><text xml:space="preserve" font-family="IowanOldStyle-Roman" font-size="72.0" fill="#000000" transform="matrix(1.00, 0.00, -0.00, -1.00, 398.6, 3.0)"> </text><text xml:space="preserve" font-family="IowanOldStyle-Roman" font-size="72.0" fill="#000000" transform="matrix(1.00, 0.00, -0.00, -1.00, 418.6, 3.0)">P</text><text xml:space="preserve" font-family="IowanOldStyle-Roman" font-size="72.0" fill="#000000" transform="matrix(1.00, 0.00, -0.00, -1.00, 461.0, 3.0)">R</text><text xml:space="preserve" font-family="IowanOldStyle-Roman" font-size="72.0" fill="#000000" transform="matrix(1.00, 0.00, -0.00, -1.00, 511.6, 3.0)">O</text><text xml:space="preserve" font-family="IowanOldStyle-Roman" font-size="72.0" fill="#000000" transform="matrix(1.00, 0.00, -0.00, -1.00, 569.3, 3.0)">T</text><text xml:space="preserve" font-family="IowanOldStyle-Roman" font-size="72.0" fill="#000000" transform="matrix(1.00, 0.00, -0.00, -1.00, 614.8, 3.0)">O</text><text xml:space="preserve" font-family="IowanOldStyle-Roman" font-size="72.0" fill="#000000" transform="matrix(1.00, 0.00, -0.00, -1.00, 672.5, 3.0)">T</text><text xml:space="preserve" font-family="IowanOldStyle-Roman" font-size="72.0" fill="#000000" transform="matrix(1.00, 0.00, -0.00, -1.00, 717.9, 3.0)">Y</text><text xml:space="preserve" font-family="IowanOldStyle-Roman" font-size="72.0" fill="#000000" transform="matrix(1.00, 0.00, -0.00, -1.00, 765.4, 3.0)">P</text><text xml:space="preserve" font-family="IowanOldStyle-Roman" font-size="72.0" fill="#000000" transform="matrix(1.00, 0.00, -0.00, -1.00, 807.7, 3.0)">E</text></g></svg>