<?xml version="1.0" encoding="UTF-8" standalone="no"?><svg xmlns="http://www.w3.org/2000/svg" xmlns:xlink="http://www.w3.org/1999/xlink" clip-rule="evenodd" stroke-miterlimit="4.00" viewBox="0 0 187 16"><desc>SVG generated by Keynote</desc><defs></defs><g transform="matrix(1.00, 0.00, -0.00, -1.00, 0.0, 16.0)"><text xml:space="preserve" font-family="IowanOldStyle-Roman" font-size="16.3" fill="#000000" transform="matrix(1.00, 0.00, -0.00, -1.00, 1.0, 2.0)">w</text><text xml:space="preserve" font-family="IowanOldStyle-Roman" font-size="16.3" fill="#000000" transform="matrix(1.00, 0.00, -0.00, -1.00, 13.7, 2.0)">h</text><text xml:space="preserve" font-family="IowanOldStyle-Roman" font-size="16.3" fill="#000000" transform="matrix(1.00, 0.00, -0.00, -1.00, 23.2, 2.0)">e</text><text xml:space="preserve" font-family="IowanOldStyle-Roman" font-size="16.3" fill="#000000" transform="matrix(1.00, 0.00, -0.00, -1.00, 31.2, 2.0)">r</text><text xml:space="preserve" font-family="IowanOldStyle-Roman" font-size="16.3" fill="#000000" transform="matrix(1.00, 0.00, -0.00, -1.00, 37.6, 2.0)">e</text><text xml:space="preserve" font-family="IowanOldStyle-Roman" font-size="16.3" fill="#000000" transform="matrix(1.00, 0.00, -0.00, -1.00, 45.5, 2.0)"> </text><text xml:space="preserve" font-family="IowanOldStyle-Roman" font-size="16.3" fill="#000000" transform="matrix(1.00, 0.00, -0.00, -1.00, 50.1, 2.0)">t</text><text xml:space="preserve" font-family="IowanOldStyle-Roman" font-size="16.3" fill="#000000" transform="matrix(1.00, 0.00, -0.00, -1.00, 56.0, 2.0)">h</text><text xml:space="preserve" font-family="IowanOldStyle-Roman" font-size="16.3" fill="#000000" transform="matrix(1.00, 0.00, -0.00, -1.00, 65.5, 2.0)">i</text><text xml:space="preserve" font-family="IowanOldStyle-Roman" font-size="16.3" fill="#000000" transform="matrix(1.00, 0.00, -0.00, -1.00, 70.4, 2.0)">s</text><text xml:space="preserve" font-family="IowanOldStyle-Roman" font-size="16.3" fill="#000000" transform="matrix(1.00, 0.00, -0.00, -1.00, 77.6, 2.0)"> </text><text xml:space="preserve" font-family="IowanOldStyle-Roman" font-size="16.3" fill="#000000" transform="matrix(1.00, 0.00, -0.00, -1.00, 82.2, 2.0)">i</text><text xml:space="preserve" font-family="IowanOldStyle-Roman" font-size="16.3" fill="#000000" transform="matrix(1.00, 0.00, -0.00, -1.00, 87.0, 2.0)">n</text><text xml:space="preserve" font-family="IowanOldStyle-Roman" font-size="16.3" fill="#000000" transform="matrix(1.00, 0.00, -0.00, -1.00, 96.5, 2.0)">f</text><text xml:space="preserve" font-family="IowanOldStyle-Roman" font-size="16.3" fill="#000000" transform="matrix(1.00, 0.00, -0.00, -1.00, 101.8, 2.0)">o</text><text xml:space="preserve" font-family="IowanOldStyle-Roman" font-size="16.3" fill="#000000" transform="matrix(1.00, 0.00, -0.00, -1.00, 110.8, 2.0)">r</text><text xml:space="preserve" font-family="IowanOldStyle-Roman" font-size="16.3" fill="#000000" transform="matrix(1.00, 0.00, -0.00, -1.00, 117.1, 2.0)">m</text><text xml:space="preserve" font-family="IowanOldStyle-Roman" font-size="16.3" fill="#000000" transform="matrix(1.00, 0.00, -0.00, -1.00, 131.5, 2.0)">a</text><text xml:space="preserve" font-family="IowanOldStyle-Roman" font-size="16.3" fill="#000000" transform="matrix(1.00, 0.00, -0.00, -1.00, 139.4, 2.0)">t</text><text xml:space="preserve" font-family="IowanOldStyle-Roman" font-size="16.3" fill="#000000" transform="matrix(1.00, 0.00, -0.00, -1.00, 145.3, 2.0)">i</text><text xml:space="preserve" font-family="IowanOldStyle-Roman" font-size="16.3" fill="#000000" transform="matrix(1.00, 0.00, -0.00, -1.00, 150.1, 2.0)">o</text><text xml:space="preserve" font-family="IowanOldStyle-Roman" font-size="16.3" fill="#000000" transform="matrix(1.00, 0.00, -0.00, -1.00, 159.1, 2.0)">n</text><text xml:space="preserve" font-family="IowanOldStyle-Roman" font-size="16.3" fill="#000000" transform="matrix(1.00, 0.00, -0.00, -1.00, 168.6, 2.0)"> </text><text xml:space="preserve" font-family="IowanOldStyle-Roman" font-size="16.3" fill="#000000" transform="matrix(1.00, 0.00, -0.00, -1.00, 173.2, 2.0)">i</text><text xml:space="preserve" font-family="IowanOldStyle-Roman" font-size="16.3" fill="#000000" transform="matrix(1.00, 0.00, -0.00, -1.00, 178.0, 2.0)">s</text></g></svg>