<?xml version="1.0" encoding="UTF-8" standalone="no"?><svg xmlns="http://www.w3.org/2000/svg" xmlns:xlink="http://www.w3.org/1999/xlink" clip-rule="evenodd" stroke-miterlimit="4.00" viewBox="0 0 169 16"><desc>SVG generated by Keynote</desc><defs></defs><g transform="matrix(1.00, 0.00, -0.00, -1.00, 0.0, 16.0)"><text xml:space="preserve" font-family="IowanOldStyle-Roman" font-size="16.3" fill="#000000" transform="matrix(1.00, 0.00, -0.00, -1.00, 1.0, 2.0)">w</text><text xml:space="preserve" font-family="IowanOldStyle-Roman" font-size="16.3" fill="#000000" transform="matrix(1.00, 0.00, -0.00, -1.00, 13.7, 2.0)">o</text><text xml:space="preserve" font-family="IowanOldStyle-Roman" font-size="16.3" fill="#000000" transform="matrix(1.00, 0.00, -0.00, -1.00, 22.7, 2.0)">u</text><text xml:space="preserve" font-family="IowanOldStyle-Roman" font-size="16.3" fill="#000000" transform="matrix(1.00, 0.00, -0.00, -1.00, 32.3, 2.0)">l</text><text xml:space="preserve" font-family="IowanOldStyle-Roman" font-size="16.3" fill="#000000" transform="matrix(1.00, 0.00, -0.00, -1.00, 37.0, 2.0)">d</text><text xml:space="preserve" font-family="IowanOldStyle-Roman" font-size="16.3" fill="#000000" transform="matrix(1.00, 0.00, -0.00, -1.00, 46.2, 2.0)"> </text><text xml:space="preserve" font-family="IowanOldStyle-Roman" font-size="16.3" fill="#000000" transform="matrix(1.00, 0.00, -0.00, -1.00, 50.8, 2.0)">s</text><text xml:space="preserve" font-family="IowanOldStyle-Roman" font-size="16.3" fill="#000000" transform="matrix(1.00, 0.00, -0.00, -1.00, 58.0, 2.0)">t</text><text xml:space="preserve" font-family="IowanOldStyle-Roman" font-size="16.3" fill="#000000" transform="matrix(1.00, 0.00, -0.00, -1.00, 63.9, 2.0)">i</text><text xml:space="preserve" font-family="IowanOldStyle-Roman" font-size="16.3" fill="#000000" transform="matrix(1.00, 0.00, -0.00, -1.00, 68.7, 2.0)">l</text><text xml:space="preserve" font-family="IowanOldStyle-Roman" font-size="16.3" fill="#000000" transform="matrix(1.00, 0.00, -0.00, -1.00, 73.5, 2.0)">l</text><text xml:space="preserve" font-family="IowanOldStyle-Roman" font-size="16.3" fill="#000000" transform="matrix(1.00, 0.00, -0.00, -1.00, 78.3, 2.0)"> </text><text xml:space="preserve" font-family="IowanOldStyle-Roman" font-size="16.3" fill="#000000" transform="matrix(1.00, 0.00, -0.00, -1.00, 82.8, 2.0)">l</text><text xml:space="preserve" font-family="IowanOldStyle-Roman" font-size="16.3" fill="#000000" transform="matrix(1.00, 0.00, -0.00, -1.00, 87.6, 2.0)">i</text><text xml:space="preserve" font-family="IowanOldStyle-Roman" font-size="16.3" fill="#000000" transform="matrix(1.00, 0.00, -0.00, -1.00, 92.4, 2.0)">k</text><text xml:space="preserve" font-family="IowanOldStyle-Roman" font-size="16.3" fill="#000000" transform="matrix(1.00, 0.00, -0.00, -1.00, 100.8, 2.0)">e</text><text xml:space="preserve" font-family="IowanOldStyle-Roman" font-size="16.3" fill="#000000" transform="matrix(1.00, 0.00, -0.00, -1.00, 108.8, 2.0)"> </text><text xml:space="preserve" font-family="IowanOldStyle-Roman" font-size="16.3" fill="#000000" transform="matrix(1.00, 0.00, -0.00, -1.00, 113.3, 2.0)">t</text><text xml:space="preserve" font-family="IowanOldStyle-Roman" font-size="16.3" fill="#000000" transform="matrix(1.00, 0.00, -0.00, -1.00, 119.2, 2.0)">o</text><text xml:space="preserve" font-family="IowanOldStyle-Roman" font-size="16.3" fill="#000000" transform="matrix(1.00, 0.00, -0.00, -1.00, 128.2, 2.0)"> </text><text xml:space="preserve" font-family="IowanOldStyle-Roman" font-size="16.3" fill="#000000" transform="matrix(1.00, 0.00, -0.00, -1.00, 132.7, 2.0)">o</text><text xml:space="preserve" font-family="IowanOldStyle-Roman" font-size="16.3" fill="#000000" transform="matrix(1.00, 0.00, -0.00, -1.00, 141.7, 2.0)">ﬀ</text><text xml:space="preserve" font-family="IowanOldStyle-Roman" font-size="16.3" fill="#000000" transform="matrix(1.00, 0.00, -0.00, -1.00, 151.9, 2.0)">e</text><text xml:space="preserve" font-family="IowanOldStyle-Roman" font-size="16.3" fill="#000000" transform="matrix(1.00, 0.00, -0.00, -1.00, 159.9, 2.0)">r</text></g></svg>