<?xml version="1.0" encoding="UTF-8" standalone="no"?><svg xmlns="http://www.w3.org/2000/svg" xmlns:xlink="http://www.w3.org/1999/xlink" clip-rule="evenodd" stroke-miterlimit="4.00" viewBox="0 0 359 30"><desc>SVG generated by Keynote</desc><defs></defs><g transform="matrix(1.00, 0.00, -0.00, -1.00, 0.0, 30.0)"><text xml:space="preserve" font-family="IowanOldStyle-Roman" font-size="25.0" fill="#000000" transform="matrix(1.00, 0.00, -0.00, -1.00, 1.0, 9.0)">d</text><text xml:space="preserve" font-family="IowanOldStyle-Roman" font-size="25.0" fill="#000000" transform="matrix(1.00, 0.00, -0.00, -1.00, 15.1, 9.0)">e</text><text xml:space="preserve" font-family="IowanOldStyle-Roman" font-size="25.0" fill="#000000" transform="matrix(1.00, 0.00, -0.00, -1.00, 27.2, 9.0)">s</text><text xml:space="preserve" font-family="IowanOldStyle-Roman" font-size="25.0" fill="#000000" transform="matrix(1.00, 0.00, -0.00, -1.00, 38.3, 9.0)">i</text><text xml:space="preserve" font-family="IowanOldStyle-Roman" font-size="25.0" fill="#000000" transform="matrix(1.00, 0.00, -0.00, -1.00, 45.7, 9.0)">g</text><text xml:space="preserve" font-family="IowanOldStyle-Roman" font-size="25.0" fill="#000000" transform="matrix(1.00, 0.00, -0.00, -1.00, 58.6, 9.0)">n</text><text xml:space="preserve" font-family="IowanOldStyle-Roman" font-size="25.0" fill="#000000" transform="matrix(1.00, 0.00, -0.00, -1.00, 73.2, 9.0)">e</text><text xml:space="preserve" font-family="IowanOldStyle-Roman" font-size="25.0" fill="#000000" transform="matrix(1.00, 0.00, -0.00, -1.00, 85.4, 9.0)">d</text><text xml:space="preserve" font-family="IowanOldStyle-Roman" font-size="25.0" fill="#000000" transform="matrix(1.00, 0.00, -0.00, -1.00, 99.5, 9.0)"> </text><text xml:space="preserve" font-family="IowanOldStyle-Roman" font-size="25.0" fill="#000000" transform="matrix(1.00, 0.00, -0.00, -1.00, 106.4, 9.0)">a</text><text xml:space="preserve" font-family="IowanOldStyle-Roman" font-size="25.0" fill="#000000" transform="matrix(1.00, 0.00, -0.00, -1.00, 118.4, 9.0)"> </text><text xml:space="preserve" font-family="IowanOldStyle-Roman" font-size="25.0" fill="#000000" transform="matrix(1.00, 0.00, -0.00, -1.00, 125.4, 9.0)">c</text><text xml:space="preserve" font-family="IowanOldStyle-Roman" font-size="25.0" fill="#000000" transform="matrix(1.00, 0.00, -0.00, -1.00, 136.5, 9.0)">l</text><text xml:space="preserve" font-family="IowanOldStyle-Roman" font-size="25.0" fill="#000000" transform="matrix(1.00, 0.00, -0.00, -1.00, 143.8, 9.0)">e</text><text xml:space="preserve" font-family="IowanOldStyle-Roman" font-size="25.0" fill="#000000" transform="matrix(1.00, 0.00, -0.00, -1.00, 156.0, 9.0)">a</text><text xml:space="preserve" font-family="IowanOldStyle-Roman" font-size="25.0" fill="#000000" transform="matrix(1.00, 0.00, -0.00, -1.00, 168.1, 9.0)">n</text><text xml:space="preserve" font-family="IowanOldStyle-Roman" font-size="25.0" fill="#000000" transform="matrix(1.00, 0.00, -0.00, -1.00, 182.7, 9.0)"> </text><text xml:space="preserve" font-family="IowanOldStyle-Roman" font-size="25.0" fill="#000000" transform="matrix(1.00, 0.00, -0.00, -1.00, 189.6, 9.0)">a</text><text xml:space="preserve" font-family="IowanOldStyle-Roman" font-size="25.0" fill="#000000" transform="matrix(1.00, 0.00, -0.00, -1.00, 201.6, 9.0)">n</text><text xml:space="preserve" font-family="IowanOldStyle-Roman" font-size="25.0" fill="#000000" transform="matrix(1.00, 0.00, -0.00, -1.00, 216.2, 9.0)">d</text><text xml:space="preserve" font-family="IowanOldStyle-Roman" font-size="25.0" fill="#000000" transform="matrix(1.00, 0.00, -0.00, -1.00, 230.3, 9.0)"> </text><text xml:space="preserve" font-family="IowanOldStyle-Roman" font-size="25.0" fill="#000000" transform="matrix(1.00, 0.00, -0.00, -1.00, 237.2, 9.0)">s</text><text xml:space="preserve" font-family="IowanOldStyle-Roman" font-size="25.0" fill="#000000" transform="matrix(1.00, 0.00, -0.00, -1.00, 248.3, 9.0)">i</text><text xml:space="preserve" font-family="IowanOldStyle-Roman" font-size="25.0" fill="#000000" transform="matrix(1.00, 0.00, -0.00, -1.00, 255.7, 9.0)">m</text><text xml:space="preserve" font-family="IowanOldStyle-Roman" font-size="25.0" fill="#000000" transform="matrix(1.00, 0.00, -0.00, -1.00, 277.7, 9.0)">p</text><text xml:space="preserve" font-family="IowanOldStyle-Roman" font-size="25.0" fill="#000000" transform="matrix(1.00, 0.00, -0.00, -1.00, 291.7, 9.0)">l</text><text xml:space="preserve" font-family="IowanOldStyle-Roman" font-size="25.0" fill="#000000" transform="matrix(1.00, 0.00, -0.00, -1.00, 299.0, 9.0)">e</text><text xml:space="preserve" font-family="IowanOldStyle-Roman" font-size="25.0" fill="#000000" transform="matrix(1.00, 0.00, -0.00, -1.00, 311.2, 9.0)"> </text><text xml:space="preserve" font-family="IowanOldStyle-Roman" font-size="25.0" fill="#000000" transform="matrix(1.00, 0.00, -0.00, -1.00, 318.1, 9.0)">s</text><text xml:space="preserve" font-family="IowanOldStyle-Roman" font-size="25.0" fill="#000000" transform="matrix(1.00, 0.00, -0.00, -1.00, 329.2, 9.0)">i</text><text xml:space="preserve" font-family="IowanOldStyle-Roman" font-size="25.0" fill="#000000" transform="matrix(1.00, 0.00, -0.00, -1.00, 336.6, 9.0)">t</text><text xml:space="preserve" font-family="IowanOldStyle-Roman" font-size="25.0" fill="#000000" transform="matrix(1.00, 0.00, -0.00, -1.00, 345.6, 9.0)">e</text></g></svg>