<?xml version="1.0" encoding="UTF-8" standalone="no"?><svg xmlns="http://www.w3.org/2000/svg" xmlns:xlink="http://www.w3.org/1999/xlink" clip-rule="evenodd" stroke-miterlimit="4.00" viewBox="0 0 403 24"><desc>SVG generated by Keynote</desc><defs></defs><g transform="matrix(1.00, 0.00, -0.00, -1.00, 0.0, 24.0)"><text xml:space="preserve" font-family="IowanOldStyle-Roman" font-size="25.0" fill="#000000" transform="matrix(1.00, 0.00, -0.00, -1.00, 1.0, 3.0)">t</text><text xml:space="preserve" font-family="IowanOldStyle-Roman" font-size="25.0" fill="#000000" transform="matrix(1.00, 0.00, -0.00, -1.00, 10.0, 3.0)">h</text><text xml:space="preserve" font-family="IowanOldStyle-Roman" font-size="25.0" fill="#000000" transform="matrix(1.00, 0.00, -0.00, -1.00, 24.6, 3.0)">e</text><text xml:space="preserve" font-family="IowanOldStyle-Roman" font-size="25.0" fill="#000000" transform="matrix(1.00, 0.00, -0.00, -1.00, 36.8, 3.0)"> </text><text xml:space="preserve" font-family="IowanOldStyle-Roman" font-size="25.0" fill="#000000" transform="matrix(1.00, 0.00, -0.00, -1.00, 43.8, 3.0)">m</text><text xml:space="preserve" font-family="IowanOldStyle-Roman" font-size="25.0" fill="#000000" transform="matrix(1.00, 0.00, -0.00, -1.00, 65.8, 3.0)">o</text><text xml:space="preserve" font-family="IowanOldStyle-Roman" font-size="25.0" fill="#000000" transform="matrix(1.00, 0.00, -0.00, -1.00, 79.5, 3.0)">d</text><text xml:space="preserve" font-family="IowanOldStyle-Roman" font-size="25.0" fill="#000000" transform="matrix(1.00, 0.00, -0.00, -1.00, 93.6, 3.0)">e</text><text xml:space="preserve" font-family="IowanOldStyle-Roman" font-size="25.0" fill="#000000" transform="matrix(1.00, 0.00, -0.00, -1.00, 105.8, 3.0)">l</text><text xml:space="preserve" font-family="IowanOldStyle-Roman" font-size="25.0" fill="#000000" transform="matrix(1.00, 0.00, -0.00, -1.00, 113.1, 3.0)">s</text><text xml:space="preserve" font-family="IowanOldStyle-Roman" font-size="25.0" fill="#000000" transform="matrix(1.00, 0.00, -0.00, -1.00, 124.1, 3.0)"> </text><text xml:space="preserve" font-family="IowanOldStyle-Roman" font-size="25.0" fill="#000000" transform="matrix(1.00, 0.00, -0.00, -1.00, 131.1, 3.0)">f</text><text xml:space="preserve" font-family="IowanOldStyle-Roman" font-size="25.0" fill="#000000" transform="matrix(1.00, 0.00, -0.00, -1.00, 139.1, 3.0)">e</text><text xml:space="preserve" font-family="IowanOldStyle-Roman" font-size="25.0" fill="#000000" transform="matrix(1.00, 0.00, -0.00, -1.00, 151.3, 3.0)">a</text><text xml:space="preserve" font-family="IowanOldStyle-Roman" font-size="25.0" fill="#000000" transform="matrix(1.00, 0.00, -0.00, -1.00, 163.3, 3.0)">t</text><text xml:space="preserve" font-family="IowanOldStyle-Roman" font-size="25.0" fill="#000000" transform="matrix(1.00, 0.00, -0.00, -1.00, 172.3, 3.0)">u</text><text xml:space="preserve" font-family="IowanOldStyle-Roman" font-size="25.0" fill="#000000" transform="matrix(1.00, 0.00, -0.00, -1.00, 187.0, 3.0)">r</text><text xml:space="preserve" font-family="IowanOldStyle-Roman" font-size="25.0" fill="#000000" transform="matrix(1.00, 0.00, -0.00, -1.00, 196.7, 3.0)">e</text><text xml:space="preserve" font-family="IowanOldStyle-Roman" font-size="25.0" fill="#000000" transform="matrix(1.00, 0.00, -0.00, -1.00, 208.9, 3.0)">d</text><text xml:space="preserve" font-family="IowanOldStyle-Roman" font-size="25.0" fill="#000000" transform="matrix(1.00, 0.00, -0.00, -1.00, 223.0, 3.0)"> </text><text xml:space="preserve" font-family="IowanOldStyle-Roman" font-size="25.0" fill="#000000" transform="matrix(1.00, 0.00, -0.00, -1.00, 229.9, 3.0)">a</text><text xml:space="preserve" font-family="IowanOldStyle-Roman" font-size="25.0" fill="#000000" transform="matrix(1.00, 0.00, -0.00, -1.00, 241.9, 3.0)">r</text><text xml:space="preserve" font-family="IowanOldStyle-Roman" font-size="25.0" fill="#000000" transform="matrix(1.00, 0.00, -0.00, -1.00, 251.7, 3.0)">e</text><text xml:space="preserve" font-family="IowanOldStyle-Roman" font-size="25.0" fill="#000000" transform="matrix(1.00, 0.00, -0.00, -1.00, 263.9, 3.0)"> </text><text xml:space="preserve" font-family="IowanOldStyle-Roman" font-size="25.0" fill="#000000" transform="matrix(1.00, 0.00, -0.00, -1.00, 270.8, 3.0)">i</text><text xml:space="preserve" font-family="IowanOldStyle-Roman" font-size="25.0" fill="#000000" transform="matrix(1.00, 0.00, -0.00, -1.00, 278.2, 3.0)">n</text><text xml:space="preserve" font-family="IowanOldStyle-Roman" font-size="25.0" fill="#000000" transform="matrix(1.00, 0.00, -0.00, -1.00, 292.8, 3.0)">c</text><text xml:space="preserve" font-family="IowanOldStyle-Roman" font-size="25.0" fill="#000000" transform="matrix(1.00, 0.00, -0.00, -1.00, 304.0, 3.0)">l</text><text xml:space="preserve" font-family="IowanOldStyle-Roman" font-size="25.0" fill="#000000" transform="matrix(1.00, 0.00, -0.00, -1.00, 311.3, 3.0)">u</text><text xml:space="preserve" font-family="IowanOldStyle-Roman" font-size="25.0" fill="#000000" transform="matrix(1.00, 0.00, -0.00, -1.00, 326.0, 3.0)">d</text><text xml:space="preserve" font-family="IowanOldStyle-Roman" font-size="25.0" fill="#000000" transform="matrix(1.00, 0.00, -0.00, -1.00, 340.0, 3.0)">e</text><text xml:space="preserve" font-family="IowanOldStyle-Roman" font-size="25.0" fill="#000000" transform="matrix(1.00, 0.00, -0.00, -1.00, 352.2, 3.0)">d</text><text xml:space="preserve" font-family="IowanOldStyle-Roman" font-size="25.0" fill="#000000" transform="matrix(1.00, 0.00, -0.00, -1.00, 366.3, 3.0)"> </text><text xml:space="preserve" font-family="IowanOldStyle-Roman" font-size="25.0" fill="#000000" transform="matrix(1.00, 0.00, -0.00, -1.00, 373.2, 3.0)">o</text><text xml:space="preserve" font-family="IowanOldStyle-Roman" font-size="25.0" fill="#000000" transform="matrix(1.00, 0.00, -0.00, -1.00, 387.0, 3.0)">n</text></g></svg>