<?xml version="1.0" encoding="UTF-8" standalone="no"?><svg xmlns="http://www.w3.org/2000/svg" xmlns:xlink="http://www.w3.org/1999/xlink" clip-rule="evenodd" stroke-miterlimit="4.00" viewBox="0 0 890 38"><desc>SVG generated by Keynote</desc><defs></defs><g transform="matrix(1.00, 0.00, -0.00, -1.00, 0.0, 38.0)"><text xml:space="preserve" font-family="IowanOldStyle-Roman" font-size="34.6" fill="#000000" transform="matrix(1.00, 0.00, -0.00, -1.00, 1.0, 10.0)">W</text><text xml:space="preserve" font-family="IowanOldStyle-Roman" font-size="34.6" fill="#000000" transform="matrix(1.00, 0.00, -0.00, -1.00, 34.0, 10.0)">e</text><text xml:space="preserve" font-family="IowanOldStyle-Roman" font-size="34.6" fill="#000000" transform="matrix(1.00, 0.00, -0.00, -1.00, 50.9, 10.0)"> </text><text xml:space="preserve" font-family="IowanOldStyle-Roman" font-size="34.6" fill="#000000" transform="matrix(1.00, 0.00, -0.00, -1.00, 60.5, 10.0)">u</text><text xml:space="preserve" font-family="IowanOldStyle-Roman" font-size="34.6" fill="#000000" transform="matrix(1.00, 0.00, -0.00, -1.00, 80.8, 10.0)">s</text><text xml:space="preserve" font-family="IowanOldStyle-Roman" font-size="34.6" fill="#000000" transform="matrix(1.00, 0.00, -0.00, -1.00, 96.1, 10.0)">e</text><text xml:space="preserve" font-family="IowanOldStyle-Roman" font-size="34.6" fill="#000000" transform="matrix(1.00, 0.00, -0.00, -1.00, 113.0, 10.0)">d</text><text xml:space="preserve" font-family="IowanOldStyle-Roman" font-size="34.6" fill="#000000" transform="matrix(1.00, 0.00, -0.00, -1.00, 132.4, 10.0)"> </text><text xml:space="preserve" font-family="IowanOldStyle-Roman" font-size="34.6" fill="#000000" transform="matrix(1.00, 0.00, -0.00, -1.00, 142.0, 10.0)">I</text><text xml:space="preserve" font-family="IowanOldStyle-Roman" font-size="34.6" fill="#000000" transform="matrix(1.00, 0.00, -0.00, -1.00, 153.8, 10.0)">n</text><text xml:space="preserve" font-family="IowanOldStyle-Roman" font-size="34.6" fill="#000000" transform="matrix(1.00, 0.00, -0.00, -1.00, 174.0, 10.0)">V</text><text xml:space="preserve" font-family="IowanOldStyle-Roman" font-size="34.6" fill="#000000" transform="matrix(1.00, 0.00, -0.00, -1.00, 197.4, 10.0)">i</text><text xml:space="preserve" font-family="IowanOldStyle-Roman" font-size="34.6" fill="#000000" transform="matrix(1.00, 0.00, -0.00, -1.00, 207.6, 10.0)">s</text><text xml:space="preserve" font-family="IowanOldStyle-Roman" font-size="34.6" fill="#000000" transform="matrix(1.00, 0.00, -0.00, -1.00, 222.9, 10.0)">i</text><text xml:space="preserve" font-family="IowanOldStyle-Roman" font-size="34.6" fill="#000000" transform="matrix(1.00, 0.00, -0.00, -1.00, 233.2, 10.0)">o</text><text xml:space="preserve" font-family="IowanOldStyle-Roman" font-size="34.6" fill="#000000" transform="matrix(1.00, 0.00, -0.00, -1.00, 252.2, 10.0)">n</text><text xml:space="preserve" font-family="IowanOldStyle-Roman" font-size="34.6" fill="#000000" transform="matrix(1.00, 0.00, -0.00, -1.00, 272.4, 10.0)"> </text><text xml:space="preserve" font-family="IowanOldStyle-Roman" font-size="34.6" fill="#000000" transform="matrix(1.00, 0.00, -0.00, -1.00, 282.0, 10.0)">t</text><text xml:space="preserve" font-family="IowanOldStyle-Roman" font-size="34.6" fill="#000000" transform="matrix(1.00, 0.00, -0.00, -1.00, 294.5, 10.0)">o</text><text xml:space="preserve" font-family="IowanOldStyle-Roman" font-size="34.6" fill="#000000" transform="matrix(1.00, 0.00, -0.00, -1.00, 313.5, 10.0)"> </text><text xml:space="preserve" font-family="IowanOldStyle-Roman" font-size="34.6" fill="#000000" transform="matrix(1.00, 0.00, -0.00, -1.00, 323.1, 10.0)">b</text><text xml:space="preserve" font-family="IowanOldStyle-Roman" font-size="34.6" fill="#000000" transform="matrix(1.00, 0.00, -0.00, -1.00, 342.3, 10.0)">r</text><text xml:space="preserve" font-family="IowanOldStyle-Roman" font-size="34.6" fill="#000000" transform="matrix(1.00, 0.00, -0.00, -1.00, 355.8, 10.0)">i</text><text xml:space="preserve" font-family="IowanOldStyle-Roman" font-size="34.6" fill="#000000" transform="matrix(1.00, 0.00, -0.00, -1.00, 366.1, 10.0)">n</text><text xml:space="preserve" font-family="IowanOldStyle-Roman" font-size="34.6" fill="#000000" transform="matrix(1.00, 0.00, -0.00, -1.00, 386.3, 10.0)">g</text><text xml:space="preserve" font-family="IowanOldStyle-Roman" font-size="34.6" fill="#000000" transform="matrix(1.00, 0.00, -0.00, -1.00, 404.2, 10.0)"> </text><text xml:space="preserve" font-family="IowanOldStyle-Roman" font-size="34.6" fill="#000000" transform="matrix(1.00, 0.00, -0.00, -1.00, 413.8, 10.0)">o</text><text xml:space="preserve" font-family="IowanOldStyle-Roman" font-size="34.6" fill="#000000" transform="matrix(1.00, 0.00, -0.00, -1.00, 432.8, 10.0)">u</text><text xml:space="preserve" font-family="IowanOldStyle-Roman" font-size="34.6" fill="#000000" transform="matrix(1.00, 0.00, -0.00, -1.00, 453.1, 10.0)">r</text><text xml:space="preserve" font-family="IowanOldStyle-Roman" font-size="34.6" fill="#000000" transform="matrix(1.00, 0.00, -0.00, -1.00, 466.6, 10.0)"> </text><text xml:space="preserve" font-family="IowanOldStyle-Roman" font-size="34.6" fill="#000000" transform="matrix(1.00, 0.00, -0.00, -1.00, 476.2, 10.0)">w</text><text xml:space="preserve" font-family="IowanOldStyle-Roman" font-size="34.6" fill="#000000" transform="matrix(1.00, 0.00, -0.00, -1.00, 503.0, 10.0)">i</text><text xml:space="preserve" font-family="IowanOldStyle-Roman" font-size="34.6" fill="#000000" transform="matrix(1.00, 0.00, -0.00, -1.00, 513.3, 10.0)">r</text><text xml:space="preserve" font-family="IowanOldStyle-Roman" font-size="34.6" fill="#000000" transform="matrix(1.00, 0.00, -0.00, -1.00, 526.8, 10.0)">e</text><text xml:space="preserve" font-family="IowanOldStyle-Roman" font-size="34.6" fill="#000000" transform="matrix(1.00, 0.00, -0.00, -1.00, 543.6, 10.0)">f</text><text xml:space="preserve" font-family="IowanOldStyle-Roman" font-size="34.6" fill="#000000" transform="matrix(1.00, 0.00, -0.00, -1.00, 554.7, 10.0)">r</text><text xml:space="preserve" font-family="IowanOldStyle-Roman" font-size="34.6" fill="#000000" transform="matrix(1.00, 0.00, -0.00, -1.00, 568.2, 10.0)">a</text><text xml:space="preserve" font-family="IowanOldStyle-Roman" font-size="34.6" fill="#000000" transform="matrix(1.00, 0.00, -0.00, -1.00, 584.8, 10.0)">m</text><text xml:space="preserve" font-family="IowanOldStyle-Roman" font-size="34.6" fill="#000000" transform="matrix(1.00, 0.00, -0.00, -1.00, 615.2, 10.0)">e</text><text xml:space="preserve" font-family="IowanOldStyle-Roman" font-size="34.6" fill="#000000" transform="matrix(1.00, 0.00, -0.00, -1.00, 632.1, 10.0)">s</text><text xml:space="preserve" font-family="IowanOldStyle-Roman" font-size="34.6" fill="#000000" transform="matrix(1.00, 0.00, -0.00, -1.00, 647.4, 10.0)"> </text><text xml:space="preserve" font-family="IowanOldStyle-Roman" font-size="34.6" fill="#000000" transform="matrix(1.00, 0.00, -0.00, -1.00, 657.0, 10.0)">t</text><text xml:space="preserve" font-family="IowanOldStyle-Roman" font-size="34.6" fill="#000000" transform="matrix(1.00, 0.00, -0.00, -1.00, 669.4, 10.0)">o</text><text xml:space="preserve" font-family="IowanOldStyle-Roman" font-size="34.6" fill="#000000" transform="matrix(1.00, 0.00, -0.00, -1.00, 688.5, 10.0)"> </text><text xml:space="preserve" font-family="IowanOldStyle-Roman" font-size="34.6" fill="#000000" transform="matrix(1.00, 0.00, -0.00, -1.00, 698.1, 10.0)">l</text><text xml:space="preserve" font-family="IowanOldStyle-Roman" font-size="34.6" fill="#000000" transform="matrix(1.00, 0.00, -0.00, -1.00, 708.2, 10.0)">i</text><text xml:space="preserve" font-family="IowanOldStyle-Roman" font-size="34.6" fill="#000000" transform="matrix(1.00, 0.00, -0.00, -1.00, 718.4, 10.0)">f</text><text xml:space="preserve" font-family="IowanOldStyle-Roman" font-size="34.6" fill="#000000" transform="matrix(1.00, 0.00, -0.00, -1.00, 729.5, 10.0)">e</text><text xml:space="preserve" font-family="IowanOldStyle-Roman" font-size="34.6" fill="#000000" transform="matrix(1.00, 0.00, -0.00, -1.00, 746.3, 10.0)">;</text><text xml:space="preserve" font-family="IowanOldStyle-Roman" font-size="34.6" fill="#000000" transform="matrix(1.00, 0.00, -0.00, -1.00, 756.0, 10.0)"> </text><text xml:space="preserve" font-family="IowanOldStyle-Roman" font-size="34.6" fill="#000000" transform="matrix(1.00, 0.00, -0.00, -1.00, 765.6, 10.0)">c</text><text xml:space="preserve" font-family="IowanOldStyle-Roman" font-size="34.6" fill="#000000" transform="matrix(1.00, 0.00, -0.00, -1.00, 781.0, 10.0)">r</text><text xml:space="preserve" font-family="IowanOldStyle-Roman" font-size="34.6" fill="#000000" transform="matrix(1.00, 0.00, -0.00, -1.00, 794.5, 10.0)">e</text><text xml:space="preserve" font-family="IowanOldStyle-Roman" font-size="34.6" fill="#000000" transform="matrix(1.00, 0.00, -0.00, -1.00, 811.3, 10.0)">a</text><text xml:space="preserve" font-family="IowanOldStyle-Roman" font-size="34.6" fill="#000000" transform="matrix(1.00, 0.00, -0.00, -1.00, 828.0, 10.0)">t</text><text xml:space="preserve" font-family="IowanOldStyle-Roman" font-size="34.6" fill="#000000" transform="matrix(1.00, 0.00, -0.00, -1.00, 840.4, 10.0)">i</text><text xml:space="preserve" font-family="IowanOldStyle-Roman" font-size="34.6" fill="#000000" transform="matrix(1.00, 0.00, -0.00, -1.00, 850.7, 10.0)">n</text><text xml:space="preserve" font-family="IowanOldStyle-Roman" font-size="34.6" fill="#000000" transform="matrix(1.00, 0.00, -0.00, -1.00, 870.9, 10.0)">g</text></g></svg>