<?xml version="1.0" encoding="UTF-8" standalone="no"?><svg xmlns="http://www.w3.org/2000/svg" xmlns:xlink="http://www.w3.org/1999/xlink" clip-rule="evenodd" stroke-miterlimit="4.00" viewBox="0 0 605 55"><desc>SVG generated by Keynote</desc><defs></defs><g transform="matrix(1.00, 0.00, -0.00, -1.00, 0.0, 55.0)"><text xml:space="preserve" font-family="IowanOldStyle-Roman" font-size="72.0" fill="#000000" transform="matrix(1.00, 0.00, -0.00, -1.00, -1.0, 3.0)">R</text><text xml:space="preserve" font-family="IowanOldStyle-Roman" font-size="72.0" fill="#000000" transform="matrix(1.00, 0.00, -0.00, -1.00, 49.6, 3.0)">E</text><text xml:space="preserve" font-family="IowanOldStyle-Roman" font-size="72.0" fill="#000000" transform="matrix(1.00, 0.00, -0.00, -1.00, 95.3, 3.0)">S</text><text xml:space="preserve" font-family="IowanOldStyle-Roman" font-size="72.0" fill="#000000" transform="matrix(1.00, 0.00, -0.00, -1.00, 134.2, 3.0)">E</text><text xml:space="preserve" font-family="IowanOldStyle-Roman" font-size="72.0" fill="#000000" transform="matrix(1.00, 0.00, -0.00, -1.00, 179.8, 3.0)">A</text><text xml:space="preserve" font-family="IowanOldStyle-Roman" font-size="72.0" fill="#000000" transform="matrix(1.00, 0.00, -0.00, -1.00, 231.8, 3.0)">R</text><text xml:space="preserve" font-family="IowanOldStyle-Roman" font-size="72.0" fill="#000000" transform="matrix(1.00, 0.00, -0.00, -1.00, 282.5, 3.0)">C</text><text xml:space="preserve" font-family="IowanOldStyle-Roman" font-size="72.0" fill="#000000" transform="matrix(1.00, 0.00, -0.00, -1.00, 333.4, 3.0)">H</text><text xml:space="preserve" font-family="IowanOldStyle-Roman" font-size="72.0" fill="#000000" transform="matrix(1.00, 0.00, -0.00, -1.00, 390.5, 3.0)"> </text><text xml:space="preserve" font-family="IowanOldStyle-Roman" font-size="72.0" fill="#000000" transform="matrix(1.00, 0.00, -0.00, -1.00, 410.5, 3.0)">P</text><text xml:space="preserve" font-family="IowanOldStyle-Roman" font-size="72.0" fill="#000000" transform="matrix(1.00, 0.00, -0.00, -1.00, 452.9, 3.0)">L</text><text xml:space="preserve" font-family="IowanOldStyle-Roman" font-size="72.0" fill="#000000" transform="matrix(1.00, 0.00, -0.00, -1.00, 495.4, 3.0)">A</text><text xml:space="preserve" font-family="IowanOldStyle-Roman" font-size="72.0" fill="#000000" transform="matrix(1.00, 0.00, -0.00, -1.00, 547.4, 3.0)">N</text></g></svg>