<?xml version="1.0" encoding="UTF-8" standalone="no"?><svg xmlns="http://www.w3.org/2000/svg" xmlns:xlink="http://www.w3.org/1999/xlink" clip-rule="evenodd" stroke-miterlimit="4.00" viewBox="0 0 686 45"><desc>SVG generated by Keynote</desc><defs></defs><g transform="matrix(1.00, 0.00, -0.00, -1.00, 0.0, 45.0)"><text xml:space="preserve" font-family="IowanOldStyle-Roman" font-size="41.9" fill="#000000" transform="matrix(1.00, 0.00, -0.00, -1.00, 0.0, 12.0)">a</text><text xml:space="preserve" font-family="IowanOldStyle-Roman" font-size="41.9" fill="#000000" transform="matrix(1.00, 0.00, -0.00, -1.00, 20.1, 12.0)">p</text><text xml:space="preserve" font-family="IowanOldStyle-Roman" font-size="41.9" fill="#000000" transform="matrix(1.00, 0.00, -0.00, -1.00, 43.6, 12.0)">p</text><text xml:space="preserve" font-family="IowanOldStyle-Roman" font-size="41.9" fill="#000000" transform="matrix(1.00, 0.00, -0.00, -1.00, 67.0, 12.0)">r</text><text xml:space="preserve" font-family="IowanOldStyle-Roman" font-size="41.9" fill="#000000" transform="matrix(1.00, 0.00, -0.00, -1.00, 83.4, 12.0)">o</text><text xml:space="preserve" font-family="IowanOldStyle-Roman" font-size="41.9" fill="#000000" transform="matrix(1.00, 0.00, -0.00, -1.00, 106.4, 12.0)">p</text><text xml:space="preserve" font-family="IowanOldStyle-Roman" font-size="41.9" fill="#000000" transform="matrix(1.00, 0.00, -0.00, -1.00, 129.9, 12.0)">r</text><text xml:space="preserve" font-family="IowanOldStyle-Roman" font-size="41.9" fill="#000000" transform="matrix(1.00, 0.00, -0.00, -1.00, 146.2, 12.0)">i</text><text xml:space="preserve" font-family="IowanOldStyle-Roman" font-size="41.9" fill="#000000" transform="matrix(1.00, 0.00, -0.00, -1.00, 158.6, 12.0)">a</text><text xml:space="preserve" font-family="IowanOldStyle-Roman" font-size="41.9" fill="#000000" transform="matrix(1.00, 0.00, -0.00, -1.00, 178.8, 12.0)">t</text><text xml:space="preserve" font-family="IowanOldStyle-Roman" font-size="41.9" fill="#000000" transform="matrix(1.00, 0.00, -0.00, -1.00, 193.8, 12.0)">e</text><text xml:space="preserve" font-family="IowanOldStyle-Roman" font-size="41.9" fill="#000000" transform="matrix(1.00, 0.00, -0.00, -1.00, 214.2, 12.0)">-</text><text xml:space="preserve" font-family="IowanOldStyle-Roman" font-size="41.9" fill="#000000" transform="matrix(1.00, 0.00, -0.00, -1.00, 228.9, 12.0)">ï¬</text><text xml:space="preserve" font-family="IowanOldStyle-Roman" font-size="41.9" fill="#000000" transform="matrix(1.00, 0.00, -0.00, -1.00, 253.6, 12.0)">t</text><text xml:space="preserve" font-family="IowanOldStyle-Roman" font-size="41.9" fill="#000000" transform="matrix(1.00, 0.00, -0.00, -1.00, 268.6, 12.0)">t</text><text xml:space="preserve" font-family="IowanOldStyle-Roman" font-size="41.9" fill="#000000" transform="matrix(1.00, 0.00, -0.00, -1.00, 283.7, 12.0)">i</text><text xml:space="preserve" font-family="IowanOldStyle-Roman" font-size="41.9" fill="#000000" transform="matrix(1.00, 0.00, -0.00, -1.00, 296.1, 12.0)">n</text><text xml:space="preserve" font-family="IowanOldStyle-Roman" font-size="41.9" fill="#000000" transform="matrix(1.00, 0.00, -0.00, -1.00, 320.6, 12.0)">g</text><text xml:space="preserve" font-family="IowanOldStyle-Roman" font-size="41.9" fill="#000000" transform="matrix(1.00, 0.00, -0.00, -1.00, 342.2, 12.0)"> </text><text xml:space="preserve" font-family="IowanOldStyle-Roman" font-size="41.9" fill="#000000" transform="matrix(1.00, 0.00, -0.00, -1.00, 353.8, 12.0)">s</text><text xml:space="preserve" font-family="IowanOldStyle-Roman" font-size="41.9" fill="#000000" transform="matrix(1.00, 0.00, -0.00, -1.00, 372.3, 12.0)">p</text><text xml:space="preserve" font-family="IowanOldStyle-Roman" font-size="41.9" fill="#000000" transform="matrix(1.00, 0.00, -0.00, -1.00, 395.8, 12.0)">o</text><text xml:space="preserve" font-family="IowanOldStyle-Roman" font-size="41.9" fill="#000000" transform="matrix(1.00, 0.00, -0.00, -1.00, 418.8, 12.0)">r</text><text xml:space="preserve" font-family="IowanOldStyle-Roman" font-size="41.9" fill="#000000" transform="matrix(1.00, 0.00, -0.00, -1.00, 435.1, 12.0)">t</text><text xml:space="preserve" font-family="IowanOldStyle-Roman" font-size="41.9" fill="#000000" transform="matrix(1.00, 0.00, -0.00, -1.00, 450.2, 12.0)">s</text><text xml:space="preserve" font-family="IowanOldStyle-Roman" font-size="41.9" fill="#000000" transform="matrix(1.00, 0.00, -0.00, -1.00, 468.7, 12.0)"> </text><text xml:space="preserve" font-family="IowanOldStyle-Roman" font-size="41.9" fill="#000000" transform="matrix(1.00, 0.00, -0.00, -1.00, 480.4, 12.0)">f</text><text xml:space="preserve" font-family="IowanOldStyle-Roman" font-size="41.9" fill="#000000" transform="matrix(1.00, 0.00, -0.00, -1.00, 493.7, 12.0)">a</text><text xml:space="preserve" font-family="IowanOldStyle-Roman" font-size="41.9" fill="#000000" transform="matrix(1.00, 0.00, -0.00, -1.00, 513.9, 12.0)">n</text><text xml:space="preserve" font-family="IowanOldStyle-Roman" font-size="41.9" fill="#000000" transform="matrix(1.00, 0.00, -0.00, -1.00, 538.3, 12.0)"> </text><text xml:space="preserve" font-family="IowanOldStyle-Roman" font-size="41.9" fill="#000000" transform="matrix(1.00, 0.00, -0.00, -1.00, 549.9, 12.0)">a</text><text xml:space="preserve" font-family="IowanOldStyle-Roman" font-size="41.9" fill="#000000" transform="matrix(1.00, 0.00, -0.00, -1.00, 570.1, 12.0)">p</text><text xml:space="preserve" font-family="IowanOldStyle-Roman" font-size="41.9" fill="#000000" transform="matrix(1.00, 0.00, -0.00, -1.00, 593.5, 12.0)">p</text><text xml:space="preserve" font-family="IowanOldStyle-Roman" font-size="41.9" fill="#000000" transform="matrix(1.00, 0.00, -0.00, -1.00, 617.0, 12.0)">a</text><text xml:space="preserve" font-family="IowanOldStyle-Roman" font-size="41.9" fill="#000000" transform="matrix(1.00, 0.00, -0.00, -1.00, 637.1, 12.0)">r</text><text xml:space="preserve" font-family="IowanOldStyle-Roman" font-size="41.9" fill="#000000" transform="matrix(1.00, 0.00, -0.00, -1.00, 653.4, 12.0)">e</text><text xml:space="preserve" font-family="IowanOldStyle-Roman" font-size="41.9" fill="#000000" transform="matrix(1.00, 0.00, -0.00, -1.00, 673.9, 12.0)">l</text></g></svg>