<?xml version="1.0" encoding="UTF-8" standalone="no"?><svg xmlns="http://www.w3.org/2000/svg" xmlns:xlink="http://www.w3.org/1999/xlink" clip-rule="evenodd" stroke-miterlimit="4.00" viewBox="0 0 419 22"><desc>SVG generated by Keynote</desc><defs></defs><g transform="matrix(1.00, 0.00, -0.00, -1.00, 0.0, 22.0)"><text xml:space="preserve" font-family="IowanOldStyle-Roman" font-size="17.9" fill="#000000" transform="matrix(1.00, 0.00, -0.00, -1.00, 1.0, 6.0)">p</text><text xml:space="preserve" font-family="IowanOldStyle-Roman" font-size="17.9" fill="#000000" transform="matrix(1.00, 0.00, -0.00, -1.00, 11.0, 6.0)">u</text><text xml:space="preserve" font-family="IowanOldStyle-Roman" font-size="17.9" fill="#000000" transform="matrix(1.00, 0.00, -0.00, -1.00, 21.5, 6.0)">r</text><text xml:space="preserve" font-family="IowanOldStyle-Roman" font-size="17.9" fill="#000000" transform="matrix(1.00, 0.00, -0.00, -1.00, 28.5, 6.0)">c</text><text xml:space="preserve" font-family="IowanOldStyle-Roman" font-size="17.9" fill="#000000" transform="matrix(1.00, 0.00, -0.00, -1.00, 36.4, 6.0)">h</text><text xml:space="preserve" font-family="IowanOldStyle-Roman" font-size="17.9" fill="#000000" transform="matrix(1.00, 0.00, -0.00, -1.00, 46.9, 6.0)">a</text><text xml:space="preserve" font-family="IowanOldStyle-Roman" font-size="17.9" fill="#000000" transform="matrix(1.00, 0.00, -0.00, -1.00, 55.5, 6.0)">s</text><text xml:space="preserve" font-family="IowanOldStyle-Roman" font-size="17.9" fill="#000000" transform="matrix(1.00, 0.00, -0.00, -1.00, 63.4, 6.0)">e</text><text xml:space="preserve" font-family="IowanOldStyle-Roman" font-size="17.9" fill="#000000" transform="matrix(1.00, 0.00, -0.00, -1.00, 72.1, 6.0)">s</text><text xml:space="preserve" font-family="IowanOldStyle-Roman" font-size="17.9" fill="#000000" transform="matrix(1.00, 0.00, -0.00, -1.00, 80.0, 6.0)">;</text><text xml:space="preserve" font-family="IowanOldStyle-Roman" font-size="17.9" fill="#000000" transform="matrix(1.00, 0.00, -0.00, -1.00, 85.0, 6.0)"> </text><text xml:space="preserve" font-family="IowanOldStyle-Roman" font-size="17.9" fill="#000000" transform="matrix(1.00, 0.00, -0.00, -1.00, 89.9, 6.0)">t</text><text xml:space="preserve" font-family="IowanOldStyle-Roman" font-size="17.9" fill="#000000" transform="matrix(1.00, 0.00, -0.00, -1.00, 96.4, 6.0)">h</text><text xml:space="preserve" font-family="IowanOldStyle-Roman" font-size="17.9" fill="#000000" transform="matrix(1.00, 0.00, -0.00, -1.00, 106.8, 6.0)">e</text><text xml:space="preserve" font-family="IowanOldStyle-Roman" font-size="17.9" fill="#000000" transform="matrix(1.00, 0.00, -0.00, -1.00, 115.5, 6.0)">y</text><text xml:space="preserve" font-family="IowanOldStyle-Roman" font-size="17.9" fill="#000000" transform="matrix(1.00, 0.00, -0.00, -1.00, 124.2, 6.0)"> </text><text xml:space="preserve" font-family="IowanOldStyle-Roman" font-size="17.9" fill="#000000" transform="matrix(1.00, 0.00, -0.00, -1.00, 129.2, 6.0)">m</text><text xml:space="preserve" font-family="IowanOldStyle-Roman" font-size="17.9" fill="#000000" transform="matrix(1.00, 0.00, -0.00, -1.00, 144.9, 6.0)">u</text><text xml:space="preserve" font-family="IowanOldStyle-Roman" font-size="17.9" fill="#000000" transform="matrix(1.00, 0.00, -0.00, -1.00, 155.4, 6.0)">s</text><text xml:space="preserve" font-family="IowanOldStyle-Roman" font-size="17.9" fill="#000000" transform="matrix(1.00, 0.00, -0.00, -1.00, 163.3, 6.0)">t</text><text xml:space="preserve" font-family="IowanOldStyle-Roman" font-size="17.9" fill="#000000" transform="matrix(1.00, 0.00, -0.00, -1.00, 169.7, 6.0)"> </text><text xml:space="preserve" font-family="IowanOldStyle-Roman" font-size="17.9" fill="#000000" transform="matrix(1.00, 0.00, -0.00, -1.00, 174.7, 6.0)">c</text><text xml:space="preserve" font-family="IowanOldStyle-Roman" font-size="17.9" fill="#000000" transform="matrix(1.00, 0.00, -0.00, -1.00, 182.6, 6.0)">o</text><text xml:space="preserve" font-family="IowanOldStyle-Roman" font-size="17.9" fill="#000000" transform="matrix(1.00, 0.00, -0.00, -1.00, 192.5, 6.0)">m</text><text xml:space="preserve" font-family="IowanOldStyle-Roman" font-size="17.9" fill="#000000" transform="matrix(1.00, 0.00, -0.00, -1.00, 208.2, 6.0)">p</text><text xml:space="preserve" font-family="IowanOldStyle-Roman" font-size="17.9" fill="#000000" transform="matrix(1.00, 0.00, -0.00, -1.00, 218.2, 6.0)">r</text><text xml:space="preserve" font-family="IowanOldStyle-Roman" font-size="17.9" fill="#000000" transform="matrix(1.00, 0.00, -0.00, -1.00, 225.2, 6.0)">o</text><text xml:space="preserve" font-family="IowanOldStyle-Roman" font-size="17.9" fill="#000000" transform="matrix(1.00, 0.00, -0.00, -1.00, 235.0, 6.0)">m</text><text xml:space="preserve" font-family="IowanOldStyle-Roman" font-size="17.9" fill="#000000" transform="matrix(1.00, 0.00, -0.00, -1.00, 250.7, 6.0)">i</text><text xml:space="preserve" font-family="IowanOldStyle-Roman" font-size="17.9" fill="#000000" transform="matrix(1.00, 0.00, -0.00, -1.00, 256.0, 6.0)">s</text><text xml:space="preserve" font-family="IowanOldStyle-Roman" font-size="17.9" fill="#000000" transform="matrix(1.00, 0.00, -0.00, -1.00, 263.9, 6.0)">e</text><text xml:space="preserve" font-family="IowanOldStyle-Roman" font-size="17.9" fill="#000000" transform="matrix(1.00, 0.00, -0.00, -1.00, 272.6, 6.0)"> </text><text xml:space="preserve" font-family="IowanOldStyle-Roman" font-size="17.9" fill="#000000" transform="matrix(1.00, 0.00, -0.00, -1.00, 277.6, 6.0)">o</text><text xml:space="preserve" font-family="IowanOldStyle-Roman" font-size="17.9" fill="#000000" transform="matrix(1.00, 0.00, -0.00, -1.00, 287.4, 6.0)">n</text><text xml:space="preserve" font-family="IowanOldStyle-Roman" font-size="17.9" fill="#000000" transform="matrix(1.00, 0.00, -0.00, -1.00, 297.9, 6.0)"> </text><text xml:space="preserve" font-family="IowanOldStyle-Roman" font-size="17.9" fill="#000000" transform="matrix(1.00, 0.00, -0.00, -1.00, 302.8, 6.0)">s</text><text xml:space="preserve" font-family="IowanOldStyle-Roman" font-size="17.9" fill="#000000" transform="matrix(1.00, 0.00, -0.00, -1.00, 310.7, 6.0)">i</text><text xml:space="preserve" font-family="IowanOldStyle-Roman" font-size="17.9" fill="#000000" transform="matrix(1.00, 0.00, -0.00, -1.00, 316.0, 6.0)">z</text><text xml:space="preserve" font-family="IowanOldStyle-Roman" font-size="17.9" fill="#000000" transform="matrix(1.00, 0.00, -0.00, -1.00, 324.5, 6.0)">e</text><text xml:space="preserve" font-family="IowanOldStyle-Roman" font-size="17.9" fill="#000000" transform="matrix(1.00, 0.00, -0.00, -1.00, 333.2, 6.0)">/</text><text xml:space="preserve" font-family="IowanOldStyle-Roman" font-size="17.9" fill="#000000" transform="matrix(1.00, 0.00, -0.00, -1.00, 341.4, 6.0)">ï¬</text><text xml:space="preserve" font-family="IowanOldStyle-Roman" font-size="17.9" fill="#000000" transform="matrix(1.00, 0.00, -0.00, -1.00, 351.9, 6.0)">t</text><text xml:space="preserve" font-family="IowanOldStyle-Roman" font-size="17.9" fill="#000000" transform="matrix(1.00, 0.00, -0.00, -1.00, 358.4, 6.0)"> </text><text xml:space="preserve" font-family="IowanOldStyle-Roman" font-size="17.9" fill="#000000" transform="matrix(1.00, 0.00, -0.00, -1.00, 363.3, 6.0)">a</text><text xml:space="preserve" font-family="IowanOldStyle-Roman" font-size="17.9" fill="#000000" transform="matrix(1.00, 0.00, -0.00, -1.00, 371.9, 6.0)">n</text><text xml:space="preserve" font-family="IowanOldStyle-Roman" font-size="17.9" fill="#000000" transform="matrix(1.00, 0.00, -0.00, -1.00, 382.3, 6.0)">d</text><text xml:space="preserve" font-family="IowanOldStyle-Roman" font-size="17.9" fill="#000000" transform="matrix(1.00, 0.00, -0.00, -1.00, 392.4, 6.0)">/</text><text xml:space="preserve" font-family="IowanOldStyle-Roman" font-size="17.9" fill="#000000" transform="matrix(1.00, 0.00, -0.00, -1.00, 400.6, 6.0)">o</text><text xml:space="preserve" font-family="IowanOldStyle-Roman" font-size="17.9" fill="#000000" transform="matrix(1.00, 0.00, -0.00, -1.00, 410.4, 6.0)">r</text></g></svg>