<?xml version="1.0" encoding="UTF-8" standalone="no"?><svg xmlns="http://www.w3.org/2000/svg" xmlns:xlink="http://www.w3.org/1999/xlink" clip-rule="evenodd" stroke-miterlimit="4.00" viewBox="0 0 436 18"><desc>SVG generated by Keynote</desc><defs></defs><g transform="matrix(1.00, 0.00, -0.00, -1.00, 0.0, 18.0)"><text xml:space="preserve" font-family="IowanOldStyle-Roman" font-size="18.0" fill="#000000" transform="matrix(1.00, 0.00, -0.00, -1.00, 2.0, 2.0)">W</text><text xml:space="preserve" font-family="IowanOldStyle-Roman" font-size="18.0" fill="#000000" transform="matrix(1.00, 0.00, -0.00, -1.00, 19.2, 2.0)">e</text><text xml:space="preserve" font-family="IowanOldStyle-Roman" font-size="18.0" fill="#000000" transform="matrix(1.00, 0.00, -0.00, -1.00, 28.0, 2.0)"> </text><text xml:space="preserve" font-family="IowanOldStyle-Roman" font-size="18.0" fill="#000000" transform="matrix(1.00, 0.00, -0.00, -1.00, 33.0, 2.0)">u</text><text xml:space="preserve" font-family="IowanOldStyle-Roman" font-size="18.0" fill="#000000" transform="matrix(1.00, 0.00, -0.00, -1.00, 43.6, 2.0)">s</text><text xml:space="preserve" font-family="IowanOldStyle-Roman" font-size="18.0" fill="#000000" transform="matrix(1.00, 0.00, -0.00, -1.00, 51.5, 2.0)">e</text><text xml:space="preserve" font-family="IowanOldStyle-Roman" font-size="18.0" fill="#000000" transform="matrix(1.00, 0.00, -0.00, -1.00, 60.3, 2.0)">d</text><text xml:space="preserve" font-family="IowanOldStyle-Roman" font-size="18.0" fill="#000000" transform="matrix(1.00, 0.00, -0.00, -1.00, 70.4, 2.0)"> </text><text xml:space="preserve" font-family="IowanOldStyle-Roman" font-size="18.0" fill="#000000" transform="matrix(1.00, 0.00, -0.00, -1.00, 75.4, 2.0)">F</text><text xml:space="preserve" font-family="IowanOldStyle-Roman" font-size="18.0" fill="#000000" transform="matrix(1.00, 0.00, -0.00, -1.00, 85.3, 2.0)">a</text><text xml:space="preserve" font-family="IowanOldStyle-Roman" font-size="18.0" fill="#000000" transform="matrix(1.00, 0.00, -0.00, -1.00, 94.0, 2.0)">c</text><text xml:space="preserve" font-family="IowanOldStyle-Roman" font-size="18.0" fill="#000000" transform="matrix(1.00, 0.00, -0.00, -1.00, 102.0, 2.0)">e</text><text xml:space="preserve" font-family="IowanOldStyle-Roman" font-size="18.0" fill="#000000" transform="matrix(1.00, 0.00, -0.00, -1.00, 110.8, 2.0)">T</text><text xml:space="preserve" font-family="IowanOldStyle-Roman" font-size="18.0" fill="#000000" transform="matrix(1.00, 0.00, -0.00, -1.00, 121.5, 2.0)">i</text><text xml:space="preserve" font-family="IowanOldStyle-Roman" font-size="18.0" fill="#000000" transform="matrix(1.00, 0.00, -0.00, -1.00, 126.8, 2.0)">m</text><text xml:space="preserve" font-family="IowanOldStyle-Roman" font-size="18.0" fill="#000000" transform="matrix(1.00, 0.00, -0.00, -1.00, 142.7, 2.0)">e</text><text xml:space="preserve" font-family="IowanOldStyle-Roman" font-size="18.0" fill="#000000" transform="matrix(1.00, 0.00, -0.00, -1.00, 151.4, 2.0)"> </text><text xml:space="preserve" font-family="IowanOldStyle-Roman" font-size="18.0" fill="#000000" transform="matrix(1.00, 0.00, -0.00, -1.00, 156.4, 2.0)">t</text><text xml:space="preserve" font-family="IowanOldStyle-Roman" font-size="18.0" fill="#000000" transform="matrix(1.00, 0.00, -0.00, -1.00, 162.9, 2.0)">o</text><text xml:space="preserve" font-family="IowanOldStyle-Roman" font-size="18.0" fill="#000000" transform="matrix(1.00, 0.00, -0.00, -1.00, 172.8, 2.0)"> </text><text xml:space="preserve" font-family="IowanOldStyle-Roman" font-size="18.0" fill="#000000" transform="matrix(1.00, 0.00, -0.00, -1.00, 177.8, 2.0)">c</text><text xml:space="preserve" font-family="IowanOldStyle-Roman" font-size="18.0" fill="#000000" transform="matrix(1.00, 0.00, -0.00, -1.00, 185.9, 2.0)">o</text><text xml:space="preserve" font-family="IowanOldStyle-Roman" font-size="18.0" fill="#000000" transform="matrix(1.00, 0.00, -0.00, -1.00, 195.8, 2.0)">n</text><text xml:space="preserve" font-family="IowanOldStyle-Roman" font-size="18.0" fill="#000000" transform="matrix(1.00, 0.00, -0.00, -1.00, 206.3, 2.0)">d</text><text xml:space="preserve" font-family="IowanOldStyle-Roman" font-size="18.0" fill="#000000" transform="matrix(1.00, 0.00, -0.00, -1.00, 216.4, 2.0)">u</text><text xml:space="preserve" font-family="IowanOldStyle-Roman" font-size="18.0" fill="#000000" transform="matrix(1.00, 0.00, -0.00, -1.00, 227.0, 2.0)">c</text><text xml:space="preserve" font-family="IowanOldStyle-Roman" font-size="18.0" fill="#000000" transform="matrix(1.00, 0.00, -0.00, -1.00, 235.0, 2.0)">t</text><text xml:space="preserve" font-family="IowanOldStyle-Roman" font-size="18.0" fill="#000000" transform="matrix(1.00, 0.00, -0.00, -1.00, 241.5, 2.0)"> </text><text xml:space="preserve" font-family="IowanOldStyle-Roman" font-size="18.0" fill="#000000" transform="matrix(1.00, 0.00, -0.00, -1.00, 246.5, 2.0)">s</text><text xml:space="preserve" font-family="IowanOldStyle-Roman" font-size="18.0" fill="#000000" transform="matrix(1.00, 0.00, -0.00, -1.00, 254.5, 2.0)">e</text><text xml:space="preserve" font-family="IowanOldStyle-Roman" font-size="18.0" fill="#000000" transform="matrix(1.00, 0.00, -0.00, -1.00, 263.2, 2.0)">v</text><text xml:space="preserve" font-family="IowanOldStyle-Roman" font-size="18.0" fill="#000000" transform="matrix(1.00, 0.00, -0.00, -1.00, 272.1, 2.0)">e</text><text xml:space="preserve" font-family="IowanOldStyle-Roman" font-size="18.0" fill="#000000" transform="matrix(1.00, 0.00, -0.00, -1.00, 280.9, 2.0)">r</text><text xml:space="preserve" font-family="IowanOldStyle-Roman" font-size="18.0" fill="#000000" transform="matrix(1.00, 0.00, -0.00, -1.00, 287.9, 2.0)">a</text><text xml:space="preserve" font-family="IowanOldStyle-Roman" font-size="18.0" fill="#000000" transform="matrix(1.00, 0.00, -0.00, -1.00, 296.5, 2.0)">l</text><text xml:space="preserve" font-family="IowanOldStyle-Roman" font-size="18.0" fill="#000000" transform="matrix(1.00, 0.00, -0.00, -1.00, 301.8, 2.0)"> </text><text xml:space="preserve" font-family="IowanOldStyle-Roman" font-size="18.0" fill="#000000" transform="matrix(1.00, 0.00, -0.00, -1.00, 306.8, 2.0)">u</text><text xml:space="preserve" font-family="IowanOldStyle-Roman" font-size="18.0" fill="#000000" transform="matrix(1.00, 0.00, -0.00, -1.00, 317.4, 2.0)">s</text><text xml:space="preserve" font-family="IowanOldStyle-Roman" font-size="18.0" fill="#000000" transform="matrix(1.00, 0.00, -0.00, -1.00, 325.3, 2.0)">e</text><text xml:space="preserve" font-family="IowanOldStyle-Roman" font-size="18.0" fill="#000000" transform="matrix(1.00, 0.00, -0.00, -1.00, 334.1, 2.0)">r</text><text xml:space="preserve" font-family="IowanOldStyle-Roman" font-size="18.0" fill="#000000" transform="matrix(1.00, 0.00, -0.00, -1.00, 341.1, 2.0)"> </text><text xml:space="preserve" font-family="IowanOldStyle-Roman" font-size="18.0" fill="#000000" transform="matrix(1.00, 0.00, -0.00, -1.00, 346.1, 2.0)">i</text><text xml:space="preserve" font-family="IowanOldStyle-Roman" font-size="18.0" fill="#000000" transform="matrix(1.00, 0.00, -0.00, -1.00, 351.5, 2.0)">n</text><text xml:space="preserve" font-family="IowanOldStyle-Roman" font-size="18.0" fill="#000000" transform="matrix(1.00, 0.00, -0.00, -1.00, 362.0, 2.0)">t</text><text xml:space="preserve" font-family="IowanOldStyle-Roman" font-size="18.0" fill="#000000" transform="matrix(1.00, 0.00, -0.00, -1.00, 368.5, 2.0)">e</text><text xml:space="preserve" font-family="IowanOldStyle-Roman" font-size="18.0" fill="#000000" transform="matrix(1.00, 0.00, -0.00, -1.00, 377.2, 2.0)">r</text><text xml:space="preserve" font-family="IowanOldStyle-Roman" font-size="18.0" fill="#000000" transform="matrix(1.00, 0.00, -0.00, -1.00, 384.8, 2.0)">v</text><text xml:space="preserve" font-family="IowanOldStyle-Roman" font-size="18.0" fill="#000000" transform="matrix(1.00, 0.00, -0.00, -1.00, 393.6, 2.0)">i</text><text xml:space="preserve" font-family="IowanOldStyle-Roman" font-size="18.0" fill="#000000" transform="matrix(1.00, 0.00, -0.00, -1.00, 399.0, 2.0)">e</text><text xml:space="preserve" font-family="IowanOldStyle-Roman" font-size="18.0" fill="#000000" transform="matrix(1.00, 0.00, -0.00, -1.00, 407.7, 2.0)">w</text><text xml:space="preserve" font-family="IowanOldStyle-Roman" font-size="18.0" fill="#000000" transform="matrix(1.00, 0.00, -0.00, -1.00, 421.7, 2.0)">s</text><text xml:space="preserve" font-family="IowanOldStyle-Roman" font-size="18.0" fill="#000000" transform="matrix(1.00, 0.00, -0.00, -1.00, 429.7, 2.0)">.</text></g></svg>