<?xml version="1.0" encoding="UTF-8" standalone="no"?><svg xmlns="http://www.w3.org/2000/svg" xmlns:xlink="http://www.w3.org/1999/xlink" clip-rule="evenodd" stroke-miterlimit="4.00" viewBox="0 0 183 27"><desc>SVG generated by Keynote</desc><defs></defs><g transform="matrix(1.00, 0.00, -0.00, -1.00, 0.0, 27.0)"><text xml:space="preserve" font-family="IowanOldStyle-Roman" font-size="22.4" fill="#000000" transform="matrix(1.00, 0.00, -0.00, -1.00, 1.0, 8.0)">o</text><text xml:space="preserve" font-family="IowanOldStyle-Roman" font-size="22.4" fill="#000000" transform="matrix(1.00, 0.00, -0.00, -1.00, 13.3, 8.0)">p</text><text xml:space="preserve" font-family="IowanOldStyle-Roman" font-size="22.4" fill="#000000" transform="matrix(1.00, 0.00, -0.00, -1.00, 25.9, 8.0)">t</text><text xml:space="preserve" font-family="IowanOldStyle-Roman" font-size="22.4" fill="#000000" transform="matrix(1.00, 0.00, -0.00, -1.00, 34.0, 8.0)">i</text><text xml:space="preserve" font-family="IowanOldStyle-Roman" font-size="22.4" fill="#000000" transform="matrix(1.00, 0.00, -0.00, -1.00, 40.6, 8.0)">o</text><text xml:space="preserve" font-family="IowanOldStyle-Roman" font-size="22.4" fill="#000000" transform="matrix(1.00, 0.00, -0.00, -1.00, 53.0, 8.0)">n</text><text xml:space="preserve" font-family="IowanOldStyle-Roman" font-size="22.4" fill="#000000" transform="matrix(1.00, 0.00, -0.00, -1.00, 66.1, 8.0)"> </text><text xml:space="preserve" font-family="IowanOldStyle-Roman" font-size="22.4" fill="#000000" transform="matrix(1.00, 0.00, -0.00, -1.00, 72.3, 8.0)">t</text><text xml:space="preserve" font-family="IowanOldStyle-Roman" font-size="22.4" fill="#000000" transform="matrix(1.00, 0.00, -0.00, -1.00, 80.3, 8.0)">o</text><text xml:space="preserve" font-family="IowanOldStyle-Roman" font-size="22.4" fill="#000000" transform="matrix(1.00, 0.00, -0.00, -1.00, 92.7, 8.0)"> </text><text xml:space="preserve" font-family="IowanOldStyle-Roman" font-size="22.4" fill="#000000" transform="matrix(1.00, 0.00, -0.00, -1.00, 98.9, 8.0)">s</text><text xml:space="preserve" font-family="IowanOldStyle-Roman" font-size="22.4" fill="#000000" transform="matrix(1.00, 0.00, -0.00, -1.00, 108.8, 8.0)">h</text><text xml:space="preserve" font-family="IowanOldStyle-Roman" font-size="22.4" fill="#000000" transform="matrix(1.00, 0.00, -0.00, -1.00, 122.0, 8.0)">o</text><text xml:space="preserve" font-family="IowanOldStyle-Roman" font-size="22.4" fill="#000000" transform="matrix(1.00, 0.00, -0.00, -1.00, 134.3, 8.0)">p</text><text xml:space="preserve" font-family="IowanOldStyle-Roman" font-size="22.4" fill="#000000" transform="matrix(1.00, 0.00, -0.00, -1.00, 146.9, 8.0)"> </text><text xml:space="preserve" font-family="IowanOldStyle-Roman" font-size="22.4" fill="#000000" transform="matrix(1.00, 0.00, -0.00, -1.00, 153.1, 8.0)">f</text><text xml:space="preserve" font-family="IowanOldStyle-Roman" font-size="22.4" fill="#000000" transform="matrix(1.00, 0.00, -0.00, -1.00, 160.3, 8.0)">o</text><text xml:space="preserve" font-family="IowanOldStyle-Roman" font-size="22.4" fill="#000000" transform="matrix(1.00, 0.00, -0.00, -1.00, 172.6, 8.0)">r</text></g></svg>