<?xml version="1.0" encoding="UTF-8" standalone="no"?><svg xmlns="http://www.w3.org/2000/svg" xmlns:xlink="http://www.w3.org/1999/xlink" clip-rule="evenodd" stroke-miterlimit="4.00" viewBox="0 0 816 38"><desc>SVG generated by Keynote</desc><defs></defs><g transform="matrix(1.00, 0.00, -0.00, -1.00, 0.0, 38.0)"><text xml:space="preserve" font-family="IowanOldStyle-Roman" font-size="34.6" fill="#000000" transform="matrix(1.00, 0.00, -0.00, -1.00, 0.0, 10.0)">c</text><text xml:space="preserve" font-family="IowanOldStyle-Roman" font-size="34.6" fill="#000000" transform="matrix(1.00, 0.00, -0.00, -1.00, 15.4, 10.0)">l</text><text xml:space="preserve" font-family="IowanOldStyle-Roman" font-size="34.6" fill="#000000" transform="matrix(1.00, 0.00, -0.00, -1.00, 25.5, 10.0)">i</text><text xml:space="preserve" font-family="IowanOldStyle-Roman" font-size="34.6" fill="#000000" transform="matrix(1.00, 0.00, -0.00, -1.00, 35.8, 10.0)">c</text><text xml:space="preserve" font-family="IowanOldStyle-Roman" font-size="34.6" fill="#000000" transform="matrix(1.00, 0.00, -0.00, -1.00, 51.2, 10.0)">k</text><text xml:space="preserve" font-family="IowanOldStyle-Roman" font-size="34.6" fill="#000000" transform="matrix(1.00, 0.00, -0.00, -1.00, 69.5, 10.0)">a</text><text xml:space="preserve" font-family="IowanOldStyle-Roman" font-size="34.6" fill="#000000" transform="matrix(1.00, 0.00, -0.00, -1.00, 86.1, 10.0)">b</text><text xml:space="preserve" font-family="IowanOldStyle-Roman" font-size="34.6" fill="#000000" transform="matrix(1.00, 0.00, -0.00, -1.00, 105.4, 10.0)">l</text><text xml:space="preserve" font-family="IowanOldStyle-Roman" font-size="34.6" fill="#000000" transform="matrix(1.00, 0.00, -0.00, -1.00, 115.5, 10.0)">e</text><text xml:space="preserve" font-family="IowanOldStyle-Roman" font-size="34.6" fill="#000000" transform="matrix(1.00, 0.00, -0.00, -1.00, 132.3, 10.0)"> </text><text xml:space="preserve" font-family="IowanOldStyle-Roman" font-size="34.6" fill="#000000" transform="matrix(1.00, 0.00, -0.00, -1.00, 141.9, 10.0)">p</text><text xml:space="preserve" font-family="IowanOldStyle-Roman" font-size="34.6" fill="#000000" transform="matrix(1.00, 0.00, -0.00, -1.00, 161.3, 10.0)">a</text><text xml:space="preserve" font-family="IowanOldStyle-Roman" font-size="34.6" fill="#000000" transform="matrix(1.00, 0.00, -0.00, -1.00, 177.9, 10.0)">g</text><text xml:space="preserve" font-family="IowanOldStyle-Roman" font-size="34.6" fill="#000000" transform="matrix(1.00, 0.00, -0.00, -1.00, 195.8, 10.0)">e</text><text xml:space="preserve" font-family="IowanOldStyle-Roman" font-size="34.6" fill="#000000" transform="matrix(1.00, 0.00, -0.00, -1.00, 212.7, 10.0)">s</text><text xml:space="preserve" font-family="IowanOldStyle-Roman" font-size="34.6" fill="#000000" transform="matrix(1.00, 0.00, -0.00, -1.00, 228.0, 10.0)"> </text><text xml:space="preserve" font-family="IowanOldStyle-Roman" font-size="34.6" fill="#000000" transform="matrix(1.00, 0.00, -0.00, -1.00, 237.6, 10.0)">f</text><text xml:space="preserve" font-family="IowanOldStyle-Roman" font-size="34.6" fill="#000000" transform="matrix(1.00, 0.00, -0.00, -1.00, 248.6, 10.0)">o</text><text xml:space="preserve" font-family="IowanOldStyle-Roman" font-size="34.6" fill="#000000" transform="matrix(1.00, 0.00, -0.00, -1.00, 267.7, 10.0)">r</text><text xml:space="preserve" font-family="IowanOldStyle-Roman" font-size="34.6" fill="#000000" transform="matrix(1.00, 0.00, -0.00, -1.00, 281.1, 10.0)"> </text><text xml:space="preserve" font-family="IowanOldStyle-Roman" font-size="34.6" fill="#000000" transform="matrix(1.00, 0.00, -0.00, -1.00, 290.8, 10.0)">u</text><text xml:space="preserve" font-family="IowanOldStyle-Roman" font-size="34.6" fill="#000000" transform="matrix(1.00, 0.00, -0.00, -1.00, 311.1, 10.0)">s</text><text xml:space="preserve" font-family="IowanOldStyle-Roman" font-size="34.6" fill="#000000" transform="matrix(1.00, 0.00, -0.00, -1.00, 326.4, 10.0)">e</text><text xml:space="preserve" font-family="IowanOldStyle-Roman" font-size="34.6" fill="#000000" transform="matrix(1.00, 0.00, -0.00, -1.00, 343.2, 10.0)">r</text><text xml:space="preserve" font-family="IowanOldStyle-Roman" font-size="34.6" fill="#000000" transform="matrix(1.00, 0.00, -0.00, -1.00, 356.7, 10.0)">s</text><text xml:space="preserve" font-family="IowanOldStyle-Roman" font-size="34.6" fill="#000000" transform="matrix(1.00, 0.00, -0.00, -1.00, 372.1, 10.0)"> </text><text xml:space="preserve" font-family="IowanOldStyle-Roman" font-size="34.6" fill="#000000" transform="matrix(1.00, 0.00, -0.00, -1.00, 381.7, 10.0)">t</text><text xml:space="preserve" font-family="IowanOldStyle-Roman" font-size="34.6" fill="#000000" transform="matrix(1.00, 0.00, -0.00, -1.00, 394.1, 10.0)">o</text><text xml:space="preserve" font-family="IowanOldStyle-Roman" font-size="34.6" fill="#000000" transform="matrix(1.00, 0.00, -0.00, -1.00, 413.1, 10.0)"> </text><text xml:space="preserve" font-family="IowanOldStyle-Roman" font-size="34.6" fill="#000000" transform="matrix(1.00, 0.00, -0.00, -1.00, 422.7, 10.0)">n</text><text xml:space="preserve" font-family="IowanOldStyle-Roman" font-size="34.6" fill="#000000" transform="matrix(1.00, 0.00, -0.00, -1.00, 442.9, 10.0)">a</text><text xml:space="preserve" font-family="IowanOldStyle-Roman" font-size="34.6" fill="#000000" transform="matrix(1.00, 0.00, -0.00, -1.00, 459.6, 10.0)">v</text><text xml:space="preserve" font-family="IowanOldStyle-Roman" font-size="34.6" fill="#000000" transform="matrix(1.00, 0.00, -0.00, -1.00, 476.6, 10.0)">i</text><text xml:space="preserve" font-family="IowanOldStyle-Roman" font-size="34.6" fill="#000000" transform="matrix(1.00, 0.00, -0.00, -1.00, 486.8, 10.0)">g</text><text xml:space="preserve" font-family="IowanOldStyle-Roman" font-size="34.6" fill="#000000" transform="matrix(1.00, 0.00, -0.00, -1.00, 504.7, 10.0)">a</text><text xml:space="preserve" font-family="IowanOldStyle-Roman" font-size="34.6" fill="#000000" transform="matrix(1.00, 0.00, -0.00, -1.00, 521.3, 10.0)">t</text><text xml:space="preserve" font-family="IowanOldStyle-Roman" font-size="34.6" fill="#000000" transform="matrix(1.00, 0.00, -0.00, -1.00, 533.7, 10.0)">e</text><text xml:space="preserve" font-family="IowanOldStyle-Roman" font-size="34.6" fill="#000000" transform="matrix(1.00, 0.00, -0.00, -1.00, 550.6, 10.0)"> </text><text xml:space="preserve" font-family="IowanOldStyle-Roman" font-size="34.6" fill="#000000" transform="matrix(1.00, 0.00, -0.00, -1.00, 560.2, 10.0)">t</text><text xml:space="preserve" font-family="IowanOldStyle-Roman" font-size="34.6" fill="#000000" transform="matrix(1.00, 0.00, -0.00, -1.00, 572.6, 10.0)">h</text><text xml:space="preserve" font-family="IowanOldStyle-Roman" font-size="34.6" fill="#000000" transform="matrix(1.00, 0.00, -0.00, -1.00, 592.9, 10.0)">r</text><text xml:space="preserve" font-family="IowanOldStyle-Roman" font-size="34.6" fill="#000000" transform="matrix(1.00, 0.00, -0.00, -1.00, 606.4, 10.0)">o</text><text xml:space="preserve" font-family="IowanOldStyle-Roman" font-size="34.6" fill="#000000" transform="matrix(1.00, 0.00, -0.00, -1.00, 625.4, 10.0)">u</text><text xml:space="preserve" font-family="IowanOldStyle-Roman" font-size="34.6" fill="#000000" transform="matrix(1.00, 0.00, -0.00, -1.00, 645.8, 10.0)">g</text><text xml:space="preserve" font-family="IowanOldStyle-Roman" font-size="34.6" fill="#000000" transform="matrix(1.00, 0.00, -0.00, -1.00, 663.6, 10.0)">h</text><text xml:space="preserve" font-family="IowanOldStyle-Roman" font-size="34.6" fill="#000000" transform="matrix(1.00, 0.00, -0.00, -1.00, 683.9, 10.0)"> </text><text xml:space="preserve" font-family="IowanOldStyle-Roman" font-size="34.6" fill="#000000" transform="matrix(1.00, 0.00, -0.00, -1.00, 693.5, 10.0)">t</text><text xml:space="preserve" font-family="IowanOldStyle-Roman" font-size="34.6" fill="#000000" transform="matrix(1.00, 0.00, -0.00, -1.00, 705.9, 10.0)">h</text><text xml:space="preserve" font-family="IowanOldStyle-Roman" font-size="34.6" fill="#000000" transform="matrix(1.00, 0.00, -0.00, -1.00, 726.2, 10.0)">e</text><text xml:space="preserve" font-family="IowanOldStyle-Roman" font-size="34.6" fill="#000000" transform="matrix(1.00, 0.00, -0.00, -1.00, 743.0, 10.0)"> </text><text xml:space="preserve" font-family="IowanOldStyle-Roman" font-size="34.6" fill="#000000" transform="matrix(1.00, 0.00, -0.00, -1.00, 752.6, 10.0)">s</text><text xml:space="preserve" font-family="IowanOldStyle-Roman" font-size="34.6" fill="#000000" transform="matrix(1.00, 0.00, -0.00, -1.00, 767.9, 10.0)">i</text><text xml:space="preserve" font-family="IowanOldStyle-Roman" font-size="34.6" fill="#000000" transform="matrix(1.00, 0.00, -0.00, -1.00, 778.2, 10.0)">t</text><text xml:space="preserve" font-family="IowanOldStyle-Roman" font-size="34.6" fill="#000000" transform="matrix(1.00, 0.00, -0.00, -1.00, 790.6, 10.0)">e</text><text xml:space="preserve" font-family="IowanOldStyle-Roman" font-size="34.6" fill="#000000" transform="matrix(1.00, 0.00, -0.00, -1.00, 807.5, 10.0)">.</text></g></svg>