<?xml version="1.0" encoding="UTF-8" standalone="no"?><svg xmlns="http://www.w3.org/2000/svg" xmlns:xlink="http://www.w3.org/1999/xlink" clip-rule="evenodd" stroke-miterlimit="4.00" viewBox="0 0 825 57"><desc>SVG generated by Keynote</desc><defs></defs><g transform="matrix(1.00, 0.00, -0.00, -1.00, 0.0, 57.0)"><text xml:space="preserve" font-family="IowanOldStyle-Roman" font-size="72.0" fill="#000000" transform="matrix(1.00, 0.00, -0.00, -1.00, -1.0, 4.0)">P</text><text xml:space="preserve" font-family="IowanOldStyle-Roman" font-size="72.0" fill="#000000" transform="matrix(1.00, 0.00, -0.00, -1.00, 41.4, 4.0)">R</text><text xml:space="preserve" font-family="IowanOldStyle-Roman" font-size="72.0" fill="#000000" transform="matrix(1.00, 0.00, -0.00, -1.00, 92.0, 4.0)">O</text><text xml:space="preserve" font-family="IowanOldStyle-Roman" font-size="72.0" fill="#000000" transform="matrix(1.00, 0.00, -0.00, -1.00, 149.7, 4.0)">T</text><text xml:space="preserve" font-family="IowanOldStyle-Roman" font-size="72.0" fill="#000000" transform="matrix(1.00, 0.00, -0.00, -1.00, 195.2, 4.0)">O</text><text xml:space="preserve" font-family="IowanOldStyle-Roman" font-size="72.0" fill="#000000" transform="matrix(1.00, 0.00, -0.00, -1.00, 252.9, 4.0)">T</text><text xml:space="preserve" font-family="IowanOldStyle-Roman" font-size="72.0" fill="#000000" transform="matrix(1.00, 0.00, -0.00, -1.00, 298.3, 4.0)">Y</text><text xml:space="preserve" font-family="IowanOldStyle-Roman" font-size="72.0" fill="#000000" transform="matrix(1.00, 0.00, -0.00, -1.00, 345.8, 4.0)">P</text><text xml:space="preserve" font-family="IowanOldStyle-Roman" font-size="72.0" fill="#000000" transform="matrix(1.00, 0.00, -0.00, -1.00, 388.1, 4.0)">E</text><text xml:space="preserve" font-family="IowanOldStyle-Roman" font-size="72.0" fill="#000000" transform="matrix(1.00, 0.00, -0.00, -1.00, 433.8, 4.0)"> </text><text xml:space="preserve" font-family="IowanOldStyle-Roman" font-size="72.0" fill="#000000" transform="matrix(1.00, 0.00, -0.00, -1.00, 453.8, 4.0)">F</text><text xml:space="preserve" font-family="IowanOldStyle-Roman" font-size="72.0" fill="#000000" transform="matrix(1.00, 0.00, -0.00, -1.00, 495.9, 4.0)">E</text><text xml:space="preserve" font-family="IowanOldStyle-Roman" font-size="72.0" fill="#000000" transform="matrix(1.00, 0.00, -0.00, -1.00, 541.5, 4.0)">A</text><text xml:space="preserve" font-family="IowanOldStyle-Roman" font-size="72.0" fill="#000000" transform="matrix(1.00, 0.00, -0.00, -1.00, 589.6, 4.0)">T</text><text xml:space="preserve" font-family="IowanOldStyle-Roman" font-size="72.0" fill="#000000" transform="matrix(1.00, 0.00, -0.00, -1.00, 635.0, 4.0)">U</text><text xml:space="preserve" font-family="IowanOldStyle-Roman" font-size="72.0" fill="#000000" transform="matrix(1.00, 0.00, -0.00, -1.00, 691.7, 4.0)">R</text><text xml:space="preserve" font-family="IowanOldStyle-Roman" font-size="72.0" fill="#000000" transform="matrix(1.00, 0.00, -0.00, -1.00, 742.3, 4.0)">E</text><text xml:space="preserve" font-family="IowanOldStyle-Roman" font-size="72.0" fill="#000000" transform="matrix(1.00, 0.00, -0.00, -1.00, 787.9, 4.0)">S</text></g></svg>