<?xml version="1.0" encoding="UTF-8" standalone="no"?><svg xmlns="http://www.w3.org/2000/svg" xmlns:xlink="http://www.w3.org/1999/xlink" clip-rule="evenodd" stroke-miterlimit="4.00" viewBox="0 0 211 31"><desc>SVG generated by Keynote</desc><defs></defs><g transform="matrix(1.00, 0.00, -0.00, -1.00, 0.0, 31.0)"><text xml:space="preserve" font-family="IowanOldStyle-Roman" font-size="26.0" fill="#000000" transform="matrix(1.00, 0.00, -0.00, -1.00, 1.0, 9.0)">f</text><text xml:space="preserve" font-family="IowanOldStyle-Roman" font-size="26.0" fill="#000000" transform="matrix(1.00, 0.00, -0.00, -1.00, 9.3, 9.0)">a</text><text xml:space="preserve" font-family="IowanOldStyle-Roman" font-size="26.0" fill="#000000" transform="matrix(1.00, 0.00, -0.00, -1.00, 21.8, 9.0)">n</text><text xml:space="preserve" font-family="IowanOldStyle-Roman" font-size="26.0" fill="#000000" transform="matrix(1.00, 0.00, -0.00, -1.00, 37.0, 9.0)"> </text><text xml:space="preserve" font-family="IowanOldStyle-Roman" font-size="26.0" fill="#000000" transform="matrix(1.00, 0.00, -0.00, -1.00, 44.2, 9.0)">a</text><text xml:space="preserve" font-family="IowanOldStyle-Roman" font-size="26.0" fill="#000000" transform="matrix(1.00, 0.00, -0.00, -1.00, 56.7, 9.0)">p</text><text xml:space="preserve" font-family="IowanOldStyle-Roman" font-size="26.0" fill="#000000" transform="matrix(1.00, 0.00, -0.00, -1.00, 71.3, 9.0)">p</text><text xml:space="preserve" font-family="IowanOldStyle-Roman" font-size="26.0" fill="#000000" transform="matrix(1.00, 0.00, -0.00, -1.00, 85.9, 9.0)">a</text><text xml:space="preserve" font-family="IowanOldStyle-Roman" font-size="26.0" fill="#000000" transform="matrix(1.00, 0.00, -0.00, -1.00, 98.4, 9.0)">r</text><text xml:space="preserve" font-family="IowanOldStyle-Roman" font-size="26.0" fill="#000000" transform="matrix(1.00, 0.00, -0.00, -1.00, 108.5, 9.0)">e</text><text xml:space="preserve" font-family="IowanOldStyle-Roman" font-size="26.0" fill="#000000" transform="matrix(1.00, 0.00, -0.00, -1.00, 121.2, 9.0)">l</text><text xml:space="preserve" font-family="IowanOldStyle-Roman" font-size="26.0" fill="#000000" transform="matrix(1.00, 0.00, -0.00, -1.00, 128.8, 9.0)"> </text><text xml:space="preserve" font-family="IowanOldStyle-Roman" font-size="26.0" fill="#000000" transform="matrix(1.00, 0.00, -0.00, -1.00, 136.0, 9.0)">n</text><text xml:space="preserve" font-family="IowanOldStyle-Roman" font-size="26.0" fill="#000000" transform="matrix(1.00, 0.00, -0.00, -1.00, 151.2, 9.0)">e</text><text xml:space="preserve" font-family="IowanOldStyle-Roman" font-size="26.0" fill="#000000" transform="matrix(1.00, 0.00, -0.00, -1.00, 163.8, 9.0)">e</text><text xml:space="preserve" font-family="IowanOldStyle-Roman" font-size="26.0" fill="#000000" transform="matrix(1.00, 0.00, -0.00, -1.00, 176.5, 9.0)">d</text><text xml:space="preserve" font-family="IowanOldStyle-Roman" font-size="26.0" fill="#000000" transform="matrix(1.00, 0.00, -0.00, -1.00, 191.1, 9.0)">s</text><text xml:space="preserve" font-family="IowanOldStyle-Roman" font-size="26.0" fill="#000000" transform="matrix(1.00, 0.00, -0.00, -1.00, 202.7, 9.0)">.</text></g></svg>