<?xml version="1.0" encoding="UTF-8" standalone="no"?><svg xmlns="http://www.w3.org/2000/svg" xmlns:xlink="http://www.w3.org/1999/xlink" clip-rule="evenodd" stroke-miterlimit="4.00" viewBox="0 0 144 27"><desc>SVG generated by Keynote</desc><defs></defs><g transform="matrix(1.00, 0.00, -0.00, -1.00, 0.0, 27.0)"><text xml:space="preserve" font-family="IowanOldStyle-Roman" font-size="22.4" fill="#000000" transform="matrix(1.00, 0.00, -0.00, -1.00, 1.0, 8.0)">e</text><text xml:space="preserve" font-family="IowanOldStyle-Roman" font-size="22.4" fill="#000000" transform="matrix(1.00, 0.00, -0.00, -1.00, 11.5, 8.0)">x</text><text xml:space="preserve" font-family="IowanOldStyle-Roman" font-size="22.4" fill="#000000" transform="matrix(1.00, 0.00, -0.00, -1.00, 23.4, 8.0)">p</text><text xml:space="preserve" font-family="IowanOldStyle-Roman" font-size="22.4" fill="#000000" transform="matrix(1.00, 0.00, -0.00, -1.00, 36.0, 8.0)">e</text><text xml:space="preserve" font-family="IowanOldStyle-Roman" font-size="22.4" fill="#000000" transform="matrix(1.00, 0.00, -0.00, -1.00, 46.9, 8.0)">r</text><text xml:space="preserve" font-family="IowanOldStyle-Roman" font-size="22.4" fill="#000000" transform="matrix(1.00, 0.00, -0.00, -1.00, 55.7, 8.0)">i</text><text xml:space="preserve" font-family="IowanOldStyle-Roman" font-size="22.4" fill="#000000" transform="matrix(1.00, 0.00, -0.00, -1.00, 62.3, 8.0)">e</text><text xml:space="preserve" font-family="IowanOldStyle-Roman" font-size="22.4" fill="#000000" transform="matrix(1.00, 0.00, -0.00, -1.00, 73.2, 8.0)">n</text><text xml:space="preserve" font-family="IowanOldStyle-Roman" font-size="22.4" fill="#000000" transform="matrix(1.00, 0.00, -0.00, -1.00, 86.3, 8.0)">c</text><text xml:space="preserve" font-family="IowanOldStyle-Roman" font-size="22.4" fill="#000000" transform="matrix(1.00, 0.00, -0.00, -1.00, 96.3, 8.0)">e</text><text xml:space="preserve" font-family="IowanOldStyle-Roman" font-size="22.4" fill="#000000" transform="matrix(1.00, 0.00, -0.00, -1.00, 107.3, 8.0)"> </text><text xml:space="preserve" font-family="IowanOldStyle-Roman" font-size="22.4" fill="#000000" transform="matrix(1.00, 0.00, -0.00, -1.00, 113.5, 8.0)">f</text><text xml:space="preserve" font-family="IowanOldStyle-Roman" font-size="22.4" fill="#000000" transform="matrix(1.00, 0.00, -0.00, -1.00, 120.7, 8.0)">o</text><text xml:space="preserve" font-family="IowanOldStyle-Roman" font-size="22.4" fill="#000000" transform="matrix(1.00, 0.00, -0.00, -1.00, 133.0, 8.0)">r</text></g></svg>