<?xml version="1.0" encoding="UTF-8" standalone="no"?><svg xmlns="http://www.w3.org/2000/svg" xmlns:xlink="http://www.w3.org/1999/xlink" clip-rule="evenodd" stroke-miterlimit="4.00" viewBox="0 0 200 17"><desc>SVG generated by Keynote</desc><defs></defs><g transform="matrix(1.00, 0.00, -0.00, -1.00, 0.0, 17.0)"><text xml:space="preserve" font-family="IowanOldStyle-Roman" font-size="16.3" fill="#000000" transform="matrix(1.00, 0.00, -0.00, -1.00, 1.0, 6.0)">m</text><text xml:space="preserve" font-family="IowanOldStyle-Roman" font-size="16.3" fill="#000000" transform="matrix(1.00, 0.00, -0.00, -1.00, 15.4, 6.0)">o</text><text xml:space="preserve" font-family="IowanOldStyle-Roman" font-size="16.3" fill="#000000" transform="matrix(1.00, 0.00, -0.00, -1.00, 24.4, 6.0)">s</text><text xml:space="preserve" font-family="IowanOldStyle-Roman" font-size="16.3" fill="#000000" transform="matrix(1.00, 0.00, -0.00, -1.00, 31.6, 6.0)">t</text><text xml:space="preserve" font-family="IowanOldStyle-Roman" font-size="16.3" fill="#000000" transform="matrix(1.00, 0.00, -0.00, -1.00, 37.5, 6.0)"> </text><text xml:space="preserve" font-family="IowanOldStyle-Roman" font-size="16.3" fill="#000000" transform="matrix(1.00, 0.00, -0.00, -1.00, 42.0, 6.0)">c</text><text xml:space="preserve" font-family="IowanOldStyle-Roman" font-size="16.3" fill="#000000" transform="matrix(1.00, 0.00, -0.00, -1.00, 49.3, 6.0)">a</text><text xml:space="preserve" font-family="IowanOldStyle-Roman" font-size="16.3" fill="#000000" transform="matrix(1.00, 0.00, -0.00, -1.00, 57.2, 6.0)">s</text><text xml:space="preserve" font-family="IowanOldStyle-Roman" font-size="16.3" fill="#000000" transform="matrix(1.00, 0.00, -0.00, -1.00, 64.4, 6.0)">e</text><text xml:space="preserve" font-family="IowanOldStyle-Roman" font-size="16.3" fill="#000000" transform="matrix(1.00, 0.00, -0.00, -1.00, 72.4, 6.0)">s</text><text xml:space="preserve" font-family="IowanOldStyle-Roman" font-size="16.3" fill="#000000" transform="matrix(1.00, 0.00, -0.00, -1.00, 79.6, 6.0)">,</text><text xml:space="preserve" font-family="IowanOldStyle-Roman" font-size="16.3" fill="#000000" transform="matrix(1.00, 0.00, -0.00, -1.00, 84.2, 6.0)"> </text><text xml:space="preserve" font-family="IowanOldStyle-Roman" font-size="16.3" fill="#000000" transform="matrix(1.00, 0.00, -0.00, -1.00, 88.7, 6.0)">u</text><text xml:space="preserve" font-family="IowanOldStyle-Roman" font-size="16.3" fill="#000000" transform="matrix(1.00, 0.00, -0.00, -1.00, 98.3, 6.0)">s</text><text xml:space="preserve" font-family="IowanOldStyle-Roman" font-size="16.3" fill="#000000" transform="matrix(1.00, 0.00, -0.00, -1.00, 105.5, 6.0)">e</text><text xml:space="preserve" font-family="IowanOldStyle-Roman" font-size="16.3" fill="#000000" transform="matrix(1.00, 0.00, -0.00, -1.00, 113.5, 6.0)">r</text><text xml:space="preserve" font-family="IowanOldStyle-Roman" font-size="16.3" fill="#000000" transform="matrix(1.00, 0.00, -0.00, -1.00, 119.9, 6.0)">s</text><text xml:space="preserve" font-family="IowanOldStyle-Roman" font-size="16.3" fill="#000000" transform="matrix(1.00, 0.00, -0.00, -1.00, 127.1, 6.0)"> </text><text xml:space="preserve" font-family="IowanOldStyle-Roman" font-size="16.3" fill="#000000" transform="matrix(1.00, 0.00, -0.00, -1.00, 131.6, 6.0)">a</text><text xml:space="preserve" font-family="IowanOldStyle-Roman" font-size="16.3" fill="#000000" transform="matrix(1.00, 0.00, -0.00, -1.00, 139.5, 6.0)">r</text><text xml:space="preserve" font-family="IowanOldStyle-Roman" font-size="16.3" fill="#000000" transform="matrix(1.00, 0.00, -0.00, -1.00, 145.9, 6.0)">e</text><text xml:space="preserve" font-family="IowanOldStyle-Roman" font-size="16.3" fill="#000000" transform="matrix(1.00, 0.00, -0.00, -1.00, 153.8, 6.0)"> </text><text xml:space="preserve" font-family="IowanOldStyle-Roman" font-size="16.3" fill="#000000" transform="matrix(1.00, 0.00, -0.00, -1.00, 158.4, 6.0)">s</text><text xml:space="preserve" font-family="IowanOldStyle-Roman" font-size="16.3" fill="#000000" transform="matrix(1.00, 0.00, -0.00, -1.00, 165.6, 6.0)">a</text><text xml:space="preserve" font-family="IowanOldStyle-Roman" font-size="16.3" fill="#000000" transform="matrix(1.00, 0.00, -0.00, -1.00, 173.5, 6.0)">v</text><text xml:space="preserve" font-family="IowanOldStyle-Roman" font-size="16.3" fill="#000000" transform="matrix(1.00, 0.00, -0.00, -1.00, 181.5, 6.0)">v</text><text xml:space="preserve" font-family="IowanOldStyle-Roman" font-size="16.3" fill="#000000" transform="matrix(1.00, 0.00, -0.00, -1.00, 189.5, 6.0)">y</text></g></svg>