<?xml version="1.0" encoding="UTF-8" standalone="no"?><svg xmlns="http://www.w3.org/2000/svg" xmlns:xlink="http://www.w3.org/1999/xlink" clip-rule="evenodd" stroke-miterlimit="4.00" viewBox="0 0 157 21"><desc>SVG generated by Keynote</desc><defs></defs><g transform="matrix(1.00, 0.00, -0.00, -1.00, 0.0, 21.0)"><text xml:space="preserve" font-family="IowanOldStyle-Roman" font-size="22.4" fill="#000000" transform="matrix(1.00, 0.00, -0.00, -1.00, 1.0, 2.0)">t</text><text xml:space="preserve" font-family="IowanOldStyle-Roman" font-size="22.4" fill="#000000" transform="matrix(1.00, 0.00, -0.00, -1.00, 9.1, 2.0)">h</text><text xml:space="preserve" font-family="IowanOldStyle-Roman" font-size="22.4" fill="#000000" transform="matrix(1.00, 0.00, -0.00, -1.00, 22.2, 2.0)">a</text><text xml:space="preserve" font-family="IowanOldStyle-Roman" font-size="22.4" fill="#000000" transform="matrix(1.00, 0.00, -0.00, -1.00, 33.0, 2.0)">t</text><text xml:space="preserve" font-family="IowanOldStyle-Roman" font-size="22.4" fill="#000000" transform="matrix(1.00, 0.00, -0.00, -1.00, 41.0, 2.0)"> </text><text xml:space="preserve" font-family="IowanOldStyle-Roman" font-size="22.4" fill="#000000" transform="matrix(1.00, 0.00, -0.00, -1.00, 47.3, 2.0)">a</text><text xml:space="preserve" font-family="IowanOldStyle-Roman" font-size="22.4" fill="#000000" transform="matrix(1.00, 0.00, -0.00, -1.00, 58.1, 2.0)">n</text><text xml:space="preserve" font-family="IowanOldStyle-Roman" font-size="22.4" fill="#000000" transform="matrix(1.00, 0.00, -0.00, -1.00, 71.1, 2.0)">i</text><text xml:space="preserve" font-family="IowanOldStyle-Roman" font-size="22.4" fill="#000000" transform="matrix(1.00, 0.00, -0.00, -1.00, 77.8, 2.0)">m</text><text xml:space="preserve" font-family="IowanOldStyle-Roman" font-size="22.4" fill="#000000" transform="matrix(1.00, 0.00, -0.00, -1.00, 97.5, 2.0)">a</text><text xml:space="preserve" font-family="IowanOldStyle-Roman" font-size="22.4" fill="#000000" transform="matrix(1.00, 0.00, -0.00, -1.00, 108.3, 2.0)">t</text><text xml:space="preserve" font-family="IowanOldStyle-Roman" font-size="22.4" fill="#000000" transform="matrix(1.00, 0.00, -0.00, -1.00, 116.4, 2.0)">e</text><text xml:space="preserve" font-family="IowanOldStyle-Roman" font-size="22.4" fill="#000000" transform="matrix(1.00, 0.00, -0.00, -1.00, 127.3, 2.0)">s</text><text xml:space="preserve" font-family="IowanOldStyle-Roman" font-size="22.4" fill="#000000" transform="matrix(1.00, 0.00, -0.00, -1.00, 137.2, 2.0)"> </text><text xml:space="preserve" font-family="IowanOldStyle-Roman" font-size="22.4" fill="#000000" transform="matrix(1.00, 0.00, -0.00, -1.00, 143.5, 2.0)">a</text></g></svg>