<?xml version="1.0" encoding="UTF-8" standalone="no"?><svg xmlns="http://www.w3.org/2000/svg" xmlns:xlink="http://www.w3.org/1999/xlink" clip-rule="evenodd" stroke-miterlimit="4.00" viewBox="0 0 192 20"><desc>SVG generated by Keynote</desc><defs></defs><g transform="matrix(1.00, 0.00, -0.00, -1.00, 0.0, 20.0)"><text xml:space="preserve" font-family="IowanOldStyle-Roman" font-size="16.3" fill="#000000" transform="matrix(1.00, 0.00, -0.00, -1.00, 1.0, 6.0)">p</text><text xml:space="preserve" font-family="IowanOldStyle-Roman" font-size="16.3" fill="#000000" transform="matrix(1.00, 0.00, -0.00, -1.00, 10.2, 6.0)">u</text><text xml:space="preserve" font-family="IowanOldStyle-Roman" font-size="16.3" fill="#000000" transform="matrix(1.00, 0.00, -0.00, -1.00, 19.8, 6.0)">t</text><text xml:space="preserve" font-family="IowanOldStyle-Roman" font-size="16.3" fill="#000000" transform="matrix(1.00, 0.00, -0.00, -1.00, 25.6, 6.0)"> </text><text xml:space="preserve" font-family="IowanOldStyle-Roman" font-size="16.3" fill="#000000" transform="matrix(1.00, 0.00, -0.00, -1.00, 30.2, 6.0)">t</text><text xml:space="preserve" font-family="IowanOldStyle-Roman" font-size="16.3" fill="#000000" transform="matrix(1.00, 0.00, -0.00, -1.00, 36.1, 6.0)">h</text><text xml:space="preserve" font-family="IowanOldStyle-Roman" font-size="16.3" fill="#000000" transform="matrix(1.00, 0.00, -0.00, -1.00, 45.6, 6.0)">e</text><text xml:space="preserve" font-family="IowanOldStyle-Roman" font-size="16.3" fill="#000000" transform="matrix(1.00, 0.00, -0.00, -1.00, 53.6, 6.0)">m</text><text xml:space="preserve" font-family="IowanOldStyle-Roman" font-size="16.3" fill="#000000" transform="matrix(1.00, 0.00, -0.00, -1.00, 68.0, 6.0)"> </text><text xml:space="preserve" font-family="IowanOldStyle-Roman" font-size="16.3" fill="#000000" transform="matrix(1.00, 0.00, -0.00, -1.00, 72.5, 6.0)">i</text><text xml:space="preserve" font-family="IowanOldStyle-Roman" font-size="16.3" fill="#000000" transform="matrix(1.00, 0.00, -0.00, -1.00, 77.4, 6.0)">s</text><text xml:space="preserve" font-family="IowanOldStyle-Roman" font-size="16.3" fill="#000000" transform="matrix(1.00, 0.00, -0.00, -1.00, 84.6, 6.0)"> </text><text xml:space="preserve" font-family="IowanOldStyle-Roman" font-size="16.3" fill="#000000" transform="matrix(1.00, 0.00, -0.00, -1.00, 89.1, 6.0)">t</text><text xml:space="preserve" font-family="IowanOldStyle-Roman" font-size="16.3" fill="#000000" transform="matrix(1.00, 0.00, -0.00, -1.00, 95.0, 6.0)">h</text><text xml:space="preserve" font-family="IowanOldStyle-Roman" font-size="16.3" fill="#000000" transform="matrix(1.00, 0.00, -0.00, -1.00, 104.6, 6.0)">e</text><text xml:space="preserve" font-family="IowanOldStyle-Roman" font-size="16.3" fill="#000000" transform="matrix(1.00, 0.00, -0.00, -1.00, 112.5, 6.0)"> </text><text xml:space="preserve" font-family="IowanOldStyle-Roman" font-size="16.3" fill="#000000" transform="matrix(1.00, 0.00, -0.00, -1.00, 117.1, 6.0)">C</text><text xml:space="preserve" font-family="IowanOldStyle-Roman" font-size="16.3" fill="#000000" transform="matrix(1.00, 0.00, -0.00, -1.00, 128.6, 6.0)">a</text><text xml:space="preserve" font-family="IowanOldStyle-Roman" font-size="16.3" fill="#000000" transform="matrix(1.00, 0.00, -0.00, -1.00, 136.5, 6.0)">r</text><text xml:space="preserve" font-family="IowanOldStyle-Roman" font-size="16.3" fill="#000000" transform="matrix(1.00, 0.00, -0.00, -1.00, 142.9, 6.0)">t</text><text xml:space="preserve" font-family="IowanOldStyle-Roman" font-size="16.3" fill="#000000" transform="matrix(1.00, 0.00, -0.00, -1.00, 148.7, 6.0)"> </text><text xml:space="preserve" font-family="IowanOldStyle-Roman" font-size="16.3" fill="#000000" transform="matrix(1.00, 0.00, -0.00, -1.00, 153.3, 6.0)">p</text><text xml:space="preserve" font-family="IowanOldStyle-Roman" font-size="16.3" fill="#000000" transform="matrix(1.00, 0.00, -0.00, -1.00, 162.4, 6.0)">a</text><text xml:space="preserve" font-family="IowanOldStyle-Roman" font-size="16.3" fill="#000000" transform="matrix(1.00, 0.00, -0.00, -1.00, 170.3, 6.0)">g</text><text xml:space="preserve" font-family="IowanOldStyle-Roman" font-size="16.3" fill="#000000" transform="matrix(1.00, 0.00, -0.00, -1.00, 178.7, 6.0)">e</text><text xml:space="preserve" font-family="IowanOldStyle-Roman" font-size="16.3" fill="#000000" transform="matrix(1.00, 0.00, -0.00, -1.00, 186.7, 6.0)">,</text></g></svg>