<?xml version="1.0" encoding="UTF-8" standalone="no"?><svg xmlns="http://www.w3.org/2000/svg" xmlns:xlink="http://www.w3.org/1999/xlink" clip-rule="evenodd" stroke-miterlimit="4.00" viewBox="0 0 179 27"><desc>SVG generated by Keynote</desc><defs></defs><g transform="matrix(1.00, 0.00, -0.00, -1.00, 0.0, 27.0)"><text xml:space="preserve" font-family="IowanOldStyle-Roman" font-size="22.4" fill="#000000" transform="matrix(1.00, 0.00, -0.00, -1.00, 0.0, 8.0)">s</text><text xml:space="preserve" font-family="IowanOldStyle-Roman" font-size="22.4" fill="#000000" transform="matrix(1.00, 0.00, -0.00, -1.00, 9.9, 8.0)">i</text><text xml:space="preserve" font-family="IowanOldStyle-Roman" font-size="22.4" fill="#000000" transform="matrix(1.00, 0.00, -0.00, -1.00, 16.6, 8.0)">z</text><text xml:space="preserve" font-family="IowanOldStyle-Roman" font-size="22.4" fill="#000000" transform="matrix(1.00, 0.00, -0.00, -1.00, 27.2, 8.0)">i</text><text xml:space="preserve" font-family="IowanOldStyle-Roman" font-size="22.4" fill="#000000" transform="matrix(1.00, 0.00, -0.00, -1.00, 33.8, 8.0)">n</text><text xml:space="preserve" font-family="IowanOldStyle-Roman" font-size="22.4" fill="#000000" transform="matrix(1.00, 0.00, -0.00, -1.00, 46.9, 8.0)">g</text><text xml:space="preserve" font-family="IowanOldStyle-Roman" font-size="22.4" fill="#000000" transform="matrix(1.00, 0.00, -0.00, -1.00, 58.5, 8.0)"> </text><text xml:space="preserve" font-family="IowanOldStyle-Roman" font-size="22.4" fill="#000000" transform="matrix(1.00, 0.00, -0.00, -1.00, 64.7, 8.0)">a</text><text xml:space="preserve" font-family="IowanOldStyle-Roman" font-size="22.4" fill="#000000" transform="matrix(1.00, 0.00, -0.00, -1.00, 75.5, 8.0)"> </text><text xml:space="preserve" font-family="IowanOldStyle-Roman" font-size="22.4" fill="#000000" transform="matrix(1.00, 0.00, -0.00, -1.00, 81.7, 8.0)">s</text><text xml:space="preserve" font-family="IowanOldStyle-Roman" font-size="22.4" fill="#000000" transform="matrix(1.00, 0.00, -0.00, -1.00, 91.7, 8.0)">m</text><text xml:space="preserve" font-family="IowanOldStyle-Roman" font-size="22.4" fill="#000000" transform="matrix(1.00, 0.00, -0.00, -1.00, 111.4, 8.0)">o</text><text xml:space="preserve" font-family="IowanOldStyle-Roman" font-size="22.4" fill="#000000" transform="matrix(1.00, 0.00, -0.00, -1.00, 123.7, 8.0)">o</text><text xml:space="preserve" font-family="IowanOldStyle-Roman" font-size="22.4" fill="#000000" transform="matrix(1.00, 0.00, -0.00, -1.00, 136.1, 8.0)">t</text><text xml:space="preserve" font-family="IowanOldStyle-Roman" font-size="22.4" fill="#000000" transform="matrix(1.00, 0.00, -0.00, -1.00, 144.1, 8.0)">h</text><text xml:space="preserve" font-family="IowanOldStyle-Roman" font-size="22.4" fill="#000000" transform="matrix(1.00, 0.00, -0.00, -1.00, 157.3, 8.0)">e</text><text xml:space="preserve" font-family="IowanOldStyle-Roman" font-size="22.4" fill="#000000" transform="matrix(1.00, 0.00, -0.00, -1.00, 168.2, 8.0)">r</text></g></svg>