<?xml version="1.0" encoding="UTF-8" standalone="no"?><svg xmlns="http://www.w3.org/2000/svg" xmlns:xlink="http://www.w3.org/1999/xlink" clip-rule="evenodd" stroke-miterlimit="4.00" viewBox="0 0 386 28"><desc>SVG generated by Keynote</desc><defs></defs><g transform="matrix(1.00, 0.00, -0.00, -1.00, 0.0, 28.0)"><g><clipPath id="clip-3"><path d="M 2.0 1.0 L 385.0 1.0 L 385.0 26.0 L 2.0 26.0 Z M 2.0 1.0 "></path></clipPath><g clip-path="url(#clip-3)"><text xml:space="preserve" font-family="CollegiateBlackFLF" font-weight="bold" font-size="36.0" fill="#000000" transform="matrix(1.00, 0.00, -0.00, -1.00, 2.0, 1.0)">f</text><text xml:space="preserve" font-family="CollegiateBlackFLF" font-weight="bold" font-size="36.0" fill="#000000" transform="matrix(1.00, 0.00, -0.00, -1.00, 17.7, 1.0)">a</text><text xml:space="preserve" font-family="CollegiateBlackFLF" font-weight="bold" font-size="36.0" fill="#000000" transform="matrix(1.00, 0.00, -0.00, -1.00, 43.3, 1.0)">n</text><text xml:space="preserve" font-family="CollegiateBlackFLF" font-weight="bold" font-size="36.0" fill="#000000" transform="matrix(1.00, 0.00, -0.00, -1.00, 67.9, 1.0)"> </text><text xml:space="preserve" font-family="CollegiateBlackFLF" font-weight="bold" font-size="36.0" fill="#000000" transform="matrix(1.00, 0.00, -0.00, -1.00, 78.3, 1.0)">a</text><text xml:space="preserve" font-family="CollegiateBlackFLF" font-weight="bold" font-size="36.0" fill="#000000" transform="matrix(1.00, 0.00, -0.00, -1.00, 103.9, 1.0)">p</text><text xml:space="preserve" font-family="CollegiateBlackFLF" font-weight="bold" font-size="36.0" fill="#000000" transform="matrix(1.00, 0.00, -0.00, -1.00, 125.2, 1.0)">p</text><text xml:space="preserve" font-family="CollegiateBlackFLF" font-weight="bold" font-size="36.0" fill="#000000" transform="matrix(1.00, 0.00, -0.00, -1.00, 142.9, 1.0)">a</text><text xml:space="preserve" font-family="CollegiateBlackFLF" font-weight="bold" font-size="36.0" fill="#000000" transform="matrix(1.00, 0.00, -0.00, -1.00, 168.4, 1.0)">r</text><text xml:space="preserve" font-family="CollegiateBlackFLF" font-weight="bold" font-size="36.0" fill="#000000" transform="matrix(1.00, 0.00, -0.00, -1.00, 190.7, 1.0)">e</text><text xml:space="preserve" font-family="CollegiateBlackFLF" font-weight="bold" font-size="36.0" fill="#000000" transform="matrix(1.00, 0.00, -0.00, -1.00, 210.5, 1.0)">l</text><text xml:space="preserve" font-family="CollegiateBlackFLF" font-weight="bold" font-size="36.0" fill="#000000" transform="matrix(1.00, 0.00, -0.00, -1.00, 229.9, 1.0)"> </text><text xml:space="preserve" font-family="CollegiateBlackFLF" font-weight="bold" font-size="36.0" fill="#000000" transform="matrix(1.00, 0.00, -0.00, -1.00, 240.3, 1.0)">f</text><text xml:space="preserve" font-family="CollegiateBlackFLF" font-weight="bold" font-size="36.0" fill="#000000" transform="matrix(1.00, 0.00, -0.00, -1.00, 259.6, 1.0)">o</text><text xml:space="preserve" font-family="CollegiateBlackFLF" font-weight="bold" font-size="36.0" fill="#000000" transform="matrix(1.00, 0.00, -0.00, -1.00, 280.0, 1.0)">r</text><text xml:space="preserve" font-family="CollegiateBlackFLF" font-weight="bold" font-size="36.0" fill="#000000" transform="matrix(1.00, 0.00, -0.00, -1.00, 302.3, 1.0)"> </text><text xml:space="preserve" font-family="CollegiateBlackFLF" font-weight="bold" font-size="36.0" fill="#000000" transform="matrix(1.00, 0.00, -0.00, -1.00, 312.7, 1.0)">a</text><text xml:space="preserve" font-family="CollegiateBlackFLF" font-weight="bold" font-size="36.0" fill="#000000" transform="matrix(1.00, 0.00, -0.00, -1.00, 338.3, 1.0)">l</text><text xml:space="preserve" font-family="CollegiateBlackFLF" font-weight="bold" font-size="36.0" fill="#000000" transform="matrix(1.00, 0.00, -0.00, -1.00, 357.7, 1.0)">l</text><text xml:space="preserve" font-family="CollegiateBlackFLF" font-weight="bold" font-size="36.0" fill="#000000" transform="matrix(1.00, 0.00, -0.00, -1.00, 377.1, 1.0)">.</text></g></g></g></svg>