<?xml version="1.0" encoding="UTF-8" standalone="no"?><svg xmlns="http://www.w3.org/2000/svg" xmlns:xlink="http://www.w3.org/1999/xlink" clip-rule="evenodd" stroke-miterlimit="4.00" viewBox="0 0 111 23"><desc>SVG generated by Keynote</desc><defs></defs><g transform="matrix(1.00, 0.00, -0.00, -1.00, 0.0, 23.0)"><text xml:space="preserve" font-family="IowanOldStyle-Roman" font-size="18.6" fill="#000000" transform="matrix(1.00, 0.00, -0.00, -1.00, 1.0, 6.0)">u</text><text xml:space="preserve" font-family="IowanOldStyle-Roman" font-size="18.6" fill="#000000" transform="matrix(1.00, 0.00, -0.00, -1.00, 11.9, 6.0)">s</text><text xml:space="preserve" font-family="IowanOldStyle-Roman" font-size="18.6" fill="#000000" transform="matrix(1.00, 0.00, -0.00, -1.00, 20.2, 6.0)">e</text><text xml:space="preserve" font-family="IowanOldStyle-Roman" font-size="18.6" fill="#000000" transform="matrix(1.00, 0.00, -0.00, -1.00, 29.3, 6.0)">r</text><text xml:space="preserve" font-family="IowanOldStyle-Roman" font-size="18.6" fill="#000000" transform="matrix(1.00, 0.00, -0.00, -1.00, 36.1, 6.0)">-</text><text xml:space="preserve" font-family="IowanOldStyle-Roman" font-size="18.6" fill="#000000" transform="matrix(1.00, 0.00, -0.00, -1.00, 42.6, 6.0)">f</text><text xml:space="preserve" font-family="IowanOldStyle-Roman" font-size="18.6" fill="#000000" transform="matrix(1.00, 0.00, -0.00, -1.00, 48.6, 6.0)">r</text><text xml:space="preserve" font-family="IowanOldStyle-Roman" font-size="18.6" fill="#000000" transform="matrix(1.00, 0.00, -0.00, -1.00, 55.9, 6.0)">i</text><text xml:space="preserve" font-family="IowanOldStyle-Roman" font-size="18.6" fill="#000000" transform="matrix(1.00, 0.00, -0.00, -1.00, 61.4, 6.0)">e</text><text xml:space="preserve" font-family="IowanOldStyle-Roman" font-size="18.6" fill="#000000" transform="matrix(1.00, 0.00, -0.00, -1.00, 70.5, 6.0)">n</text><text xml:space="preserve" font-family="IowanOldStyle-Roman" font-size="18.6" fill="#000000" transform="matrix(1.00, 0.00, -0.00, -1.00, 81.3, 6.0)">d</text><text xml:space="preserve" font-family="IowanOldStyle-Roman" font-size="18.6" fill="#000000" transform="matrix(1.00, 0.00, -0.00, -1.00, 91.8, 6.0)">l</text><text xml:space="preserve" font-family="IowanOldStyle-Roman" font-size="18.6" fill="#000000" transform="matrix(1.00, 0.00, -0.00, -1.00, 97.2, 6.0)">y</text><text xml:space="preserve" font-family="IowanOldStyle-Roman" font-size="18.6" fill="#000000" transform="matrix(1.00, 0.00, -0.00, -1.00, 104.7, 6.0)">.</text></g></svg>