<?xml version="1.0" encoding="UTF-8" standalone="no"?><svg xmlns="http://www.w3.org/2000/svg" xmlns:xlink="http://www.w3.org/1999/xlink" clip-rule="evenodd" stroke-miterlimit="4.00" viewBox="0 0 165 21"><desc>SVG generated by Keynote</desc><defs></defs><g transform="matrix(1.00, 0.00, -0.00, -1.00, 0.0, 21.0)"><text xml:space="preserve" font-family="IowanOldStyle-Roman" font-size="22.4" fill="#000000" transform="matrix(1.00, 0.00, -0.00, -1.00, 1.0, 2.0)">d</text><text xml:space="preserve" font-family="IowanOldStyle-Roman" font-size="22.4" fill="#000000" transform="matrix(1.00, 0.00, -0.00, -1.00, 13.6, 2.0)">e</text><text xml:space="preserve" font-family="IowanOldStyle-Roman" font-size="22.4" fill="#000000" transform="matrix(1.00, 0.00, -0.00, -1.00, 24.5, 2.0)">t</text><text xml:space="preserve" font-family="IowanOldStyle-Roman" font-size="22.4" fill="#000000" transform="matrix(1.00, 0.00, -0.00, -1.00, 32.6, 2.0)">a</text><text xml:space="preserve" font-family="IowanOldStyle-Roman" font-size="22.4" fill="#000000" transform="matrix(1.00, 0.00, -0.00, -1.00, 43.4, 2.0)">i</text><text xml:space="preserve" font-family="IowanOldStyle-Roman" font-size="22.4" fill="#000000" transform="matrix(1.00, 0.00, -0.00, -1.00, 50.0, 2.0)">l</text><text xml:space="preserve" font-family="IowanOldStyle-Roman" font-size="22.4" fill="#000000" transform="matrix(1.00, 0.00, -0.00, -1.00, 56.6, 2.0)">e</text><text xml:space="preserve" font-family="IowanOldStyle-Roman" font-size="22.4" fill="#000000" transform="matrix(1.00, 0.00, -0.00, -1.00, 67.5, 2.0)">d</text><text xml:space="preserve" font-family="IowanOldStyle-Roman" font-size="22.4" fill="#000000" transform="matrix(1.00, 0.00, -0.00, -1.00, 80.1, 2.0)"> </text><text xml:space="preserve" font-family="IowanOldStyle-Roman" font-size="22.4" fill="#000000" transform="matrix(1.00, 0.00, -0.00, -1.00, 86.3, 2.0)">o</text><text xml:space="preserve" font-family="IowanOldStyle-Roman" font-size="22.4" fill="#000000" transform="matrix(1.00, 0.00, -0.00, -1.00, 98.7, 2.0)">n</text><text xml:space="preserve" font-family="IowanOldStyle-Roman" font-size="22.4" fill="#000000" transform="matrix(1.00, 0.00, -0.00, -1.00, 111.8, 2.0)"> </text><text xml:space="preserve" font-family="IowanOldStyle-Roman" font-size="22.4" fill="#000000" transform="matrix(1.00, 0.00, -0.00, -1.00, 118.0, 2.0)">e</text><text xml:space="preserve" font-family="IowanOldStyle-Roman" font-size="22.4" fill="#000000" transform="matrix(1.00, 0.00, -0.00, -1.00, 128.9, 2.0)">a</text><text xml:space="preserve" font-family="IowanOldStyle-Roman" font-size="22.4" fill="#000000" transform="matrix(1.00, 0.00, -0.00, -1.00, 139.7, 2.0)">c</text><text xml:space="preserve" font-family="IowanOldStyle-Roman" font-size="22.4" fill="#000000" transform="matrix(1.00, 0.00, -0.00, -1.00, 149.7, 2.0)">h</text></g></svg>