<?xml version="1.0" encoding="UTF-8" standalone="no"?><svg xmlns="http://www.w3.org/2000/svg" xmlns:xlink="http://www.w3.org/1999/xlink" clip-rule="evenodd" stroke-miterlimit="4.00" viewBox="0 0 191 21"><desc>SVG generated by Keynote</desc><defs></defs><g transform="matrix(1.00, 0.00, -0.00, -1.00, 0.0, 21.0)"><text xml:space="preserve" font-family="IowanOldStyle-Roman" font-size="18.6" fill="#000000" transform="matrix(1.00, 0.00, -0.00, -1.00, 1.0, 4.0)">f</text><text xml:space="preserve" font-family="IowanOldStyle-Roman" font-size="18.6" fill="#000000" transform="matrix(1.00, 0.00, -0.00, -1.00, 7.0, 4.0)">o</text><text xml:space="preserve" font-family="IowanOldStyle-Roman" font-size="18.6" fill="#000000" transform="matrix(1.00, 0.00, -0.00, -1.00, 17.2, 4.0)">r</text><text xml:space="preserve" font-family="IowanOldStyle-Roman" font-size="18.6" fill="#000000" transform="matrix(1.00, 0.00, -0.00, -1.00, 24.5, 4.0)"> </text><text xml:space="preserve" font-family="IowanOldStyle-Roman" font-size="18.6" fill="#000000" transform="matrix(1.00, 0.00, -0.00, -1.00, 29.6, 4.0)">t</text><text xml:space="preserve" font-family="IowanOldStyle-Roman" font-size="18.6" fill="#000000" transform="matrix(1.00, 0.00, -0.00, -1.00, 36.3, 4.0)">h</text><text xml:space="preserve" font-family="IowanOldStyle-Roman" font-size="18.6" fill="#000000" transform="matrix(1.00, 0.00, -0.00, -1.00, 47.2, 4.0)">i</text><text xml:space="preserve" font-family="IowanOldStyle-Roman" font-size="18.6" fill="#000000" transform="matrix(1.00, 0.00, -0.00, -1.00, 52.8, 4.0)">s</text><text xml:space="preserve" font-family="IowanOldStyle-Roman" font-size="18.6" fill="#000000" transform="matrix(1.00, 0.00, -0.00, -1.00, 61.0, 4.0)"> </text><text xml:space="preserve" font-family="IowanOldStyle-Roman" font-size="18.6" fill="#000000" transform="matrix(1.00, 0.00, -0.00, -1.00, 66.2, 4.0)">i</text><text xml:space="preserve" font-family="IowanOldStyle-Roman" font-size="18.6" fill="#000000" transform="matrix(1.00, 0.00, -0.00, -1.00, 71.7, 4.0)">n</text><text xml:space="preserve" font-family="IowanOldStyle-Roman" font-size="18.6" fill="#000000" transform="matrix(1.00, 0.00, -0.00, -1.00, 82.6, 4.0)">f</text><text xml:space="preserve" font-family="IowanOldStyle-Roman" font-size="18.6" fill="#000000" transform="matrix(1.00, 0.00, -0.00, -1.00, 88.5, 4.0)">o</text><text xml:space="preserve" font-family="IowanOldStyle-Roman" font-size="18.6" fill="#000000" transform="matrix(1.00, 0.00, -0.00, -1.00, 98.8, 4.0)">r</text><text xml:space="preserve" font-family="IowanOldStyle-Roman" font-size="18.6" fill="#000000" transform="matrix(1.00, 0.00, -0.00, -1.00, 106.1, 4.0)">m</text><text xml:space="preserve" font-family="IowanOldStyle-Roman" font-size="18.6" fill="#000000" transform="matrix(1.00, 0.00, -0.00, -1.00, 122.4, 4.0)">a</text><text xml:space="preserve" font-family="IowanOldStyle-Roman" font-size="18.6" fill="#000000" transform="matrix(1.00, 0.00, -0.00, -1.00, 131.4, 4.0)">t</text><text xml:space="preserve" font-family="IowanOldStyle-Roman" font-size="18.6" fill="#000000" transform="matrix(1.00, 0.00, -0.00, -1.00, 138.1, 4.0)">i</text><text xml:space="preserve" font-family="IowanOldStyle-Roman" font-size="18.6" fill="#000000" transform="matrix(1.00, 0.00, -0.00, -1.00, 143.6, 4.0)">o</text><text xml:space="preserve" font-family="IowanOldStyle-Roman" font-size="18.6" fill="#000000" transform="matrix(1.00, 0.00, -0.00, -1.00, 153.9, 4.0)">n</text><text xml:space="preserve" font-family="IowanOldStyle-Roman" font-size="18.6" fill="#000000" transform="matrix(1.00, 0.00, -0.00, -1.00, 164.7, 4.0)">;</text><text xml:space="preserve" font-family="IowanOldStyle-Roman" font-size="18.6" fill="#000000" transform="matrix(1.00, 0.00, -0.00, -1.00, 169.9, 4.0)"> </text><text xml:space="preserve" font-family="IowanOldStyle-Roman" font-size="18.6" fill="#000000" transform="matrix(1.00, 0.00, -0.00, -1.00, 175.1, 4.0)">i</text><text xml:space="preserve" font-family="IowanOldStyle-Roman" font-size="18.6" fill="#000000" transform="matrix(1.00, 0.00, -0.00, -1.00, 180.6, 4.0)">t</text></g></svg>