<?xml version="1.0" encoding="UTF-8" standalone="no"?><svg xmlns="http://www.w3.org/2000/svg" xmlns:xlink="http://www.w3.org/1999/xlink" clip-rule="evenodd" stroke-miterlimit="4.00" viewBox="0 0 188 20"><desc>SVG generated by Keynote</desc><defs></defs><g transform="matrix(1.00, 0.00, -0.00, -1.00, 0.0, 20.0)"><text xml:space="preserve" font-family="IowanOldStyle-Roman" font-size="18.6" fill="#000000" transform="matrix(1.00, 0.00, -0.00, -1.00, 1.0, 3.0)">h</text><text xml:space="preserve" font-family="IowanOldStyle-Roman" font-size="18.6" fill="#000000" transform="matrix(1.00, 0.00, -0.00, -1.00, 11.9, 3.0)">a</text><text xml:space="preserve" font-family="IowanOldStyle-Roman" font-size="18.6" fill="#000000" transform="matrix(1.00, 0.00, -0.00, -1.00, 20.9, 3.0)">v</text><text xml:space="preserve" font-family="IowanOldStyle-Roman" font-size="18.6" fill="#000000" transform="matrix(1.00, 0.00, -0.00, -1.00, 30.0, 3.0)">e</text><text xml:space="preserve" font-family="IowanOldStyle-Roman" font-size="18.6" fill="#000000" transform="matrix(1.00, 0.00, -0.00, -1.00, 39.1, 3.0)"> </text><text xml:space="preserve" font-family="IowanOldStyle-Roman" font-size="18.6" fill="#000000" transform="matrix(1.00, 0.00, -0.00, -1.00, 44.3, 3.0)">t</text><text xml:space="preserve" font-family="IowanOldStyle-Roman" font-size="18.6" fill="#000000" transform="matrix(1.00, 0.00, -0.00, -1.00, 51.0, 3.0)">o</text><text xml:space="preserve" font-family="IowanOldStyle-Roman" font-size="18.6" fill="#000000" transform="matrix(1.00, 0.00, -0.00, -1.00, 61.2, 3.0)"> </text><text xml:space="preserve" font-family="IowanOldStyle-Roman" font-size="18.6" fill="#000000" transform="matrix(1.00, 0.00, -0.00, -1.00, 66.4, 3.0)">s</text><text xml:space="preserve" font-family="IowanOldStyle-Roman" font-size="18.6" fill="#000000" transform="matrix(1.00, 0.00, -0.00, -1.00, 74.6, 3.0)">e</text><text xml:space="preserve" font-family="IowanOldStyle-Roman" font-size="18.6" fill="#000000" transform="matrix(1.00, 0.00, -0.00, -1.00, 83.7, 3.0)">a</text><text xml:space="preserve" font-family="IowanOldStyle-Roman" font-size="18.6" fill="#000000" transform="matrix(1.00, 0.00, -0.00, -1.00, 92.7, 3.0)">r</text><text xml:space="preserve" font-family="IowanOldStyle-Roman" font-size="18.6" fill="#000000" transform="matrix(1.00, 0.00, -0.00, -1.00, 99.9, 3.0)">c</text><text xml:space="preserve" font-family="IowanOldStyle-Roman" font-size="18.6" fill="#000000" transform="matrix(1.00, 0.00, -0.00, -1.00, 108.2, 3.0)">h</text><text xml:space="preserve" font-family="IowanOldStyle-Roman" font-size="18.6" fill="#000000" transform="matrix(1.00, 0.00, -0.00, -1.00, 119.2, 3.0)"> </text><text xml:space="preserve" font-family="IowanOldStyle-Roman" font-size="18.6" fill="#000000" transform="matrix(1.00, 0.00, -0.00, -1.00, 124.3, 3.0)">t</text><text xml:space="preserve" font-family="IowanOldStyle-Roman" font-size="18.6" fill="#000000" transform="matrix(1.00, 0.00, -0.00, -1.00, 131.0, 3.0)">h</text><text xml:space="preserve" font-family="IowanOldStyle-Roman" font-size="18.6" fill="#000000" transform="matrix(1.00, 0.00, -0.00, -1.00, 141.9, 3.0)">e</text><text xml:space="preserve" font-family="IowanOldStyle-Roman" font-size="18.6" fill="#000000" transform="matrix(1.00, 0.00, -0.00, -1.00, 151.0, 3.0)"> </text><text xml:space="preserve" font-family="IowanOldStyle-Roman" font-size="18.6" fill="#000000" transform="matrix(1.00, 0.00, -0.00, -1.00, 156.2, 3.0)">s</text><text xml:space="preserve" font-family="IowanOldStyle-Roman" font-size="18.6" fill="#000000" transform="matrix(1.00, 0.00, -0.00, -1.00, 164.4, 3.0)">i</text><text xml:space="preserve" font-family="IowanOldStyle-Roman" font-size="18.6" fill="#000000" transform="matrix(1.00, 0.00, -0.00, -1.00, 169.9, 3.0)">t</text><text xml:space="preserve" font-family="IowanOldStyle-Roman" font-size="18.6" fill="#000000" transform="matrix(1.00, 0.00, -0.00, -1.00, 176.6, 3.0)">e</text></g></svg>