<?xml version="1.0" encoding="UTF-8" standalone="no"?><svg xmlns="http://www.w3.org/2000/svg" xmlns:xlink="http://www.w3.org/1999/xlink" clip-rule="evenodd" stroke-miterlimit="4.00" viewBox="0 0 661 43"><desc>SVG generated by Keynote</desc><defs></defs><g transform="matrix(1.00, 0.00, -0.00, -1.00, 0.0, 43.0)"><text xml:space="preserve" font-family="IowanOldStyle-Roman" font-size="38.0" fill="#000000" transform="matrix(1.00, 0.00, -0.00, -1.00, 1.0, 12.0)">o</text><text xml:space="preserve" font-family="IowanOldStyle-Roman" font-size="38.0" fill="#000000" transform="matrix(1.00, 0.00, -0.00, -1.00, 21.9, 12.0)">u</text><text xml:space="preserve" font-family="IowanOldStyle-Roman" font-size="38.0" fill="#000000" transform="matrix(1.00, 0.00, -0.00, -1.00, 44.3, 12.0)">r</text><text xml:space="preserve" font-family="IowanOldStyle-Roman" font-size="38.0" fill="#000000" transform="matrix(1.00, 0.00, -0.00, -1.00, 59.1, 12.0)"> </text><text xml:space="preserve" font-family="IowanOldStyle-Roman" font-size="38.0" fill="#000000" transform="matrix(1.00, 0.00, -0.00, -1.00, 69.6, 12.0)">u</text><text xml:space="preserve" font-family="IowanOldStyle-Roman" font-size="38.0" fill="#000000" transform="matrix(1.00, 0.00, -0.00, -1.00, 92.0, 12.0)">s</text><text xml:space="preserve" font-family="IowanOldStyle-Roman" font-size="38.0" fill="#000000" transform="matrix(1.00, 0.00, -0.00, -1.00, 108.8, 12.0)">e</text><text xml:space="preserve" font-family="IowanOldStyle-Roman" font-size="38.0" fill="#000000" transform="matrix(1.00, 0.00, -0.00, -1.00, 127.3, 12.0)">r</text><text xml:space="preserve" font-family="IowanOldStyle-Roman" font-size="38.0" fill="#000000" transform="matrix(1.00, 0.00, -0.00, -1.00, 142.2, 12.0)">s</text><text xml:space="preserve" font-family="IowanOldStyle-Roman" font-size="38.0" fill="#000000" transform="matrix(1.00, 0.00, -0.00, -1.00, 159.0, 12.0)"> </text><text xml:space="preserve" font-family="IowanOldStyle-Roman" font-size="38.0" fill="#000000" transform="matrix(1.00, 0.00, -0.00, -1.00, 169.5, 12.0)">f</text><text xml:space="preserve" font-family="IowanOldStyle-Roman" font-size="38.0" fill="#000000" transform="matrix(1.00, 0.00, -0.00, -1.00, 181.7, 12.0)">o</text><text xml:space="preserve" font-family="IowanOldStyle-Roman" font-size="38.0" fill="#000000" transform="matrix(1.00, 0.00, -0.00, -1.00, 202.6, 12.0)">u</text><text xml:space="preserve" font-family="IowanOldStyle-Roman" font-size="38.0" fill="#000000" transform="matrix(1.00, 0.00, -0.00, -1.00, 224.9, 12.0)">n</text><text xml:space="preserve" font-family="IowanOldStyle-Roman" font-size="38.0" fill="#000000" transform="matrix(1.00, 0.00, -0.00, -1.00, 247.1, 12.0)">d</text><text xml:space="preserve" font-family="IowanOldStyle-Roman" font-size="38.0" fill="#000000" transform="matrix(1.00, 0.00, -0.00, -1.00, 268.5, 12.0)"> </text><text xml:space="preserve" font-family="IowanOldStyle-Roman" font-size="38.0" fill="#000000" transform="matrix(1.00, 0.00, -0.00, -1.00, 279.0, 12.0)">u</text><text xml:space="preserve" font-family="IowanOldStyle-Roman" font-size="38.0" fill="#000000" transform="matrix(1.00, 0.00, -0.00, -1.00, 301.4, 12.0)">s</text><text xml:space="preserve" font-family="IowanOldStyle-Roman" font-size="38.0" fill="#000000" transform="matrix(1.00, 0.00, -0.00, -1.00, 318.2, 12.0)">e</text><text xml:space="preserve" font-family="IowanOldStyle-Roman" font-size="38.0" fill="#000000" transform="matrix(1.00, 0.00, -0.00, -1.00, 336.7, 12.0)">f</text><text xml:space="preserve" font-family="IowanOldStyle-Roman" font-size="38.0" fill="#000000" transform="matrix(1.00, 0.00, -0.00, -1.00, 348.9, 12.0)">u</text><text xml:space="preserve" font-family="IowanOldStyle-Roman" font-size="38.0" fill="#000000" transform="matrix(1.00, 0.00, -0.00, -1.00, 371.2, 12.0)">l</text><text xml:space="preserve" font-family="IowanOldStyle-Roman" font-size="38.0" fill="#000000" transform="matrix(1.00, 0.00, -0.00, -1.00, 382.3, 12.0)"> </text><text xml:space="preserve" font-family="IowanOldStyle-Roman" font-size="38.0" fill="#000000" transform="matrix(1.00, 0.00, -0.00, -1.00, 392.9, 12.0)">a</text><text xml:space="preserve" font-family="IowanOldStyle-Roman" font-size="38.0" fill="#000000" transform="matrix(1.00, 0.00, -0.00, -1.00, 411.1, 12.0)">n</text><text xml:space="preserve" font-family="IowanOldStyle-Roman" font-size="38.0" fill="#000000" transform="matrix(1.00, 0.00, -0.00, -1.00, 433.3, 12.0)">d</text><text xml:space="preserve" font-family="IowanOldStyle-Roman" font-size="38.0" fill="#000000" transform="matrix(1.00, 0.00, -0.00, -1.00, 454.7, 12.0)"> </text><text xml:space="preserve" font-family="IowanOldStyle-Roman" font-size="38.0" fill="#000000" transform="matrix(1.00, 0.00, -0.00, -1.00, 465.2, 12.0)">e</text><text xml:space="preserve" font-family="IowanOldStyle-Roman" font-size="38.0" fill="#000000" transform="matrix(1.00, 0.00, -0.00, -1.00, 483.8, 12.0)">a</text><text xml:space="preserve" font-family="IowanOldStyle-Roman" font-size="38.0" fill="#000000" transform="matrix(1.00, 0.00, -0.00, -1.00, 502.0, 12.0)">s</text><text xml:space="preserve" font-family="IowanOldStyle-Roman" font-size="38.0" fill="#000000" transform="matrix(1.00, 0.00, -0.00, -1.00, 518.9, 12.0)">y</text><text xml:space="preserve" font-family="IowanOldStyle-Roman" font-size="38.0" fill="#000000" transform="matrix(1.00, 0.00, -0.00, -1.00, 537.3, 12.0)"> </text><text xml:space="preserve" font-family="IowanOldStyle-Roman" font-size="38.0" fill="#000000" transform="matrix(1.00, 0.00, -0.00, -1.00, 547.9, 12.0)">t</text><text xml:space="preserve" font-family="IowanOldStyle-Roman" font-size="38.0" fill="#000000" transform="matrix(1.00, 0.00, -0.00, -1.00, 561.5, 12.0)">o</text><text xml:space="preserve" font-family="IowanOldStyle-Roman" font-size="38.0" fill="#000000" transform="matrix(1.00, 0.00, -0.00, -1.00, 582.5, 12.0)"> </text><text xml:space="preserve" font-family="IowanOldStyle-Roman" font-size="38.0" fill="#000000" transform="matrix(1.00, 0.00, -0.00, -1.00, 593.0, 12.0)">u</text><text xml:space="preserve" font-family="IowanOldStyle-Roman" font-size="38.0" fill="#000000" transform="matrix(1.00, 0.00, -0.00, -1.00, 615.3, 12.0)">s</text><text xml:space="preserve" font-family="IowanOldStyle-Roman" font-size="38.0" fill="#000000" transform="matrix(1.00, 0.00, -0.00, -1.00, 632.2, 12.0)">e</text><text xml:space="preserve" font-family="IowanOldStyle-Roman" font-size="38.0" fill="#000000" transform="matrix(1.00, 0.00, -0.00, -1.00, 650.7, 12.0)">.</text></g></svg>