<?xml version="1.0" encoding="UTF-8" standalone="no"?><svg xmlns="http://www.w3.org/2000/svg" xmlns:xlink="http://www.w3.org/1999/xlink" clip-rule="evenodd" stroke-miterlimit="4.00" viewBox="0 0 534 43"><desc>SVG generated by Keynote</desc><defs></defs><g transform="matrix(1.00, 0.00, -0.00, -1.00, 0.0, 43.0)"><text xml:space="preserve" font-family="IowanOldStyle-Roman" font-size="38.0" fill="#000000" transform="matrix(1.00, 0.00, -0.00, -1.00, 0.0, 12.0)">c</text><text xml:space="preserve" font-family="IowanOldStyle-Roman" font-size="38.0" fill="#000000" transform="matrix(1.00, 0.00, -0.00, -1.00, 17.0, 12.0)">e</text><text xml:space="preserve" font-family="IowanOldStyle-Roman" font-size="38.0" fill="#000000" transform="matrix(1.00, 0.00, -0.00, -1.00, 35.5, 12.0)">n</text><text xml:space="preserve" font-family="IowanOldStyle-Roman" font-size="38.0" fill="#000000" transform="matrix(1.00, 0.00, -0.00, -1.00, 57.7, 12.0)">t</text><text xml:space="preserve" font-family="IowanOldStyle-Roman" font-size="38.0" fill="#000000" transform="matrix(1.00, 0.00, -0.00, -1.00, 71.4, 12.0)">e</text><text xml:space="preserve" font-family="IowanOldStyle-Roman" font-size="38.0" fill="#000000" transform="matrix(1.00, 0.00, -0.00, -1.00, 89.9, 12.0)">r</text><text xml:space="preserve" font-family="IowanOldStyle-Roman" font-size="38.0" fill="#000000" transform="matrix(1.00, 0.00, -0.00, -1.00, 104.7, 12.0)">e</text><text xml:space="preserve" font-family="IowanOldStyle-Roman" font-size="38.0" fill="#000000" transform="matrix(1.00, 0.00, -0.00, -1.00, 123.2, 12.0)">d</text><text xml:space="preserve" font-family="IowanOldStyle-Roman" font-size="38.0" fill="#000000" transform="matrix(1.00, 0.00, -0.00, -1.00, 144.6, 12.0)"> </text><text xml:space="preserve" font-family="IowanOldStyle-Roman" font-size="38.0" fill="#000000" transform="matrix(1.00, 0.00, -0.00, -1.00, 155.2, 12.0)">o</text><text xml:space="preserve" font-family="IowanOldStyle-Roman" font-size="38.0" fill="#000000" transform="matrix(1.00, 0.00, -0.00, -1.00, 176.1, 12.0)">u</text><text xml:space="preserve" font-family="IowanOldStyle-Roman" font-size="38.0" fill="#000000" transform="matrix(1.00, 0.00, -0.00, -1.00, 198.4, 12.0)">r</text><text xml:space="preserve" font-family="IowanOldStyle-Roman" font-size="38.0" fill="#000000" transform="matrix(1.00, 0.00, -0.00, -1.00, 213.2, 12.0)"> </text><text xml:space="preserve" font-family="IowanOldStyle-Roman" font-size="38.0" fill="#000000" transform="matrix(1.00, 0.00, -0.00, -1.00, 223.8, 12.0)">d</text><text xml:space="preserve" font-family="IowanOldStyle-Roman" font-size="38.0" fill="#000000" transform="matrix(1.00, 0.00, -0.00, -1.00, 245.1, 12.0)">e</text><text xml:space="preserve" font-family="IowanOldStyle-Roman" font-size="38.0" fill="#000000" transform="matrix(1.00, 0.00, -0.00, -1.00, 263.7, 12.0)">s</text><text xml:space="preserve" font-family="IowanOldStyle-Roman" font-size="38.0" fill="#000000" transform="matrix(1.00, 0.00, -0.00, -1.00, 280.5, 12.0)">i</text><text xml:space="preserve" font-family="IowanOldStyle-Roman" font-size="38.0" fill="#000000" transform="matrix(1.00, 0.00, -0.00, -1.00, 291.8, 12.0)">g</text><text xml:space="preserve" font-family="IowanOldStyle-Roman" font-size="38.0" fill="#000000" transform="matrix(1.00, 0.00, -0.00, -1.00, 311.4, 12.0)">n</text><text xml:space="preserve" font-family="IowanOldStyle-Roman" font-size="38.0" fill="#000000" transform="matrix(1.00, 0.00, -0.00, -1.00, 333.6, 12.0)"> </text><text xml:space="preserve" font-family="IowanOldStyle-Roman" font-size="38.0" fill="#000000" transform="matrix(1.00, 0.00, -0.00, -1.00, 344.1, 12.0)">o</text><text xml:space="preserve" font-family="IowanOldStyle-Roman" font-size="38.0" fill="#000000" transform="matrix(1.00, 0.00, -0.00, -1.00, 365.1, 12.0)">n</text><text xml:space="preserve" font-family="IowanOldStyle-Roman" font-size="38.0" fill="#000000" transform="matrix(1.00, 0.00, -0.00, -1.00, 387.2, 12.0)"> </text><text xml:space="preserve" font-family="IowanOldStyle-Roman" font-size="38.0" fill="#000000" transform="matrix(1.00, 0.00, -0.00, -1.00, 397.8, 12.0)">f</text><text xml:space="preserve" font-family="IowanOldStyle-Roman" font-size="38.0" fill="#000000" transform="matrix(1.00, 0.00, -0.00, -1.00, 409.9, 12.0)">e</text><text xml:space="preserve" font-family="IowanOldStyle-Roman" font-size="38.0" fill="#000000" transform="matrix(1.00, 0.00, -0.00, -1.00, 428.5, 12.0)">a</text><text xml:space="preserve" font-family="IowanOldStyle-Roman" font-size="38.0" fill="#000000" transform="matrix(1.00, 0.00, -0.00, -1.00, 446.7, 12.0)">t</text><text xml:space="preserve" font-family="IowanOldStyle-Roman" font-size="38.0" fill="#000000" transform="matrix(1.00, 0.00, -0.00, -1.00, 460.4, 12.0)">u</text><text xml:space="preserve" font-family="IowanOldStyle-Roman" font-size="38.0" fill="#000000" transform="matrix(1.00, 0.00, -0.00, -1.00, 482.8, 12.0)">r</text><text xml:space="preserve" font-family="IowanOldStyle-Roman" font-size="38.0" fill="#000000" transform="matrix(1.00, 0.00, -0.00, -1.00, 497.6, 12.0)">e</text><text xml:space="preserve" font-family="IowanOldStyle-Roman" font-size="38.0" fill="#000000" transform="matrix(1.00, 0.00, -0.00, -1.00, 516.1, 12.0)">s</text></g></svg>