<?xml version="1.0" encoding="UTF-8" standalone="no"?><svg xmlns="http://www.w3.org/2000/svg" xmlns:xlink="http://www.w3.org/1999/xlink" clip-rule="evenodd" stroke-miterlimit="4.00" viewBox="0 0 456 23"><desc>SVG generated by Keynote</desc><defs></defs><g transform="matrix(1.00, 0.00, -0.00, -1.00, 0.0, 23.0)"><text xml:space="preserve" font-family="IowanOldStyle-Roman" font-size="14.6" fill="#525252" transform="matrix(1.00, 0.00, -0.00, -1.00, 0.0, 7.4)">•</text><text xml:space="preserve" font-family="IowanOldStyle-Roman" font-size="17.9" fill="#000000" transform="matrix(1.00, 0.00, -0.00, -1.00, 16.0, 6.0)">U</text><text xml:space="preserve" font-family="IowanOldStyle-Roman" font-size="17.9" fill="#000000" transform="matrix(1.00, 0.00, -0.00, -1.00, 30.1, 6.0)">s</text><text xml:space="preserve" font-family="IowanOldStyle-Roman" font-size="17.9" fill="#000000" transform="matrix(1.00, 0.00, -0.00, -1.00, 38.0, 6.0)">e</text><text xml:space="preserve" font-family="IowanOldStyle-Roman" font-size="17.9" fill="#000000" transform="matrix(1.00, 0.00, -0.00, -1.00, 46.7, 6.0)">r</text><text xml:space="preserve" font-family="IowanOldStyle-Roman" font-size="17.9" fill="#000000" transform="matrix(1.00, 0.00, -0.00, -1.00, 53.6, 6.0)">s</text><text xml:space="preserve" font-family="IowanOldStyle-Roman" font-size="17.9" fill="#000000" transform="matrix(1.00, 0.00, -0.00, -1.00, 61.6, 6.0)"> </text><text xml:space="preserve" font-family="IowanOldStyle-Roman" font-size="17.9" fill="#000000" transform="matrix(1.00, 0.00, -0.00, -1.00, 66.5, 6.0)">o</text><text xml:space="preserve" font-family="IowanOldStyle-Roman" font-size="17.9" fill="#000000" transform="matrix(1.00, 0.00, -0.00, -1.00, 76.3, 6.0)">f</text><text xml:space="preserve" font-family="IowanOldStyle-Roman" font-size="17.9" fill="#000000" transform="matrix(1.00, 0.00, -0.00, -1.00, 82.1, 6.0)">t</text><text xml:space="preserve" font-family="IowanOldStyle-Roman" font-size="17.9" fill="#000000" transform="matrix(1.00, 0.00, -0.00, -1.00, 88.5, 6.0)">e</text><text xml:space="preserve" font-family="IowanOldStyle-Roman" font-size="17.9" fill="#000000" transform="matrix(1.00, 0.00, -0.00, -1.00, 97.2, 6.0)">n</text><text xml:space="preserve" font-family="IowanOldStyle-Roman" font-size="17.9" fill="#000000" transform="matrix(1.00, 0.00, -0.00, -1.00, 107.6, 6.0)"> </text><text xml:space="preserve" font-family="IowanOldStyle-Roman" font-size="17.9" fill="#000000" transform="matrix(1.00, 0.00, -0.00, -1.00, 112.6, 6.0)">r</text><text xml:space="preserve" font-family="IowanOldStyle-Roman" font-size="17.9" fill="#000000" transform="matrix(1.00, 0.00, -0.00, -1.00, 119.5, 6.0)">e</text><text xml:space="preserve" font-family="IowanOldStyle-Roman" font-size="17.9" fill="#000000" transform="matrix(1.00, 0.00, -0.00, -1.00, 128.3, 6.0)">t</text><text xml:space="preserve" font-family="IowanOldStyle-Roman" font-size="17.9" fill="#000000" transform="matrix(1.00, 0.00, -0.00, -1.00, 134.7, 6.0)">u</text><text xml:space="preserve" font-family="IowanOldStyle-Roman" font-size="17.9" fill="#000000" transform="matrix(1.00, 0.00, -0.00, -1.00, 145.2, 6.0)">r</text><text xml:space="preserve" font-family="IowanOldStyle-Roman" font-size="17.9" fill="#000000" transform="matrix(1.00, 0.00, -0.00, -1.00, 152.1, 6.0)">n</text><text xml:space="preserve" font-family="IowanOldStyle-Roman" font-size="17.9" fill="#000000" transform="matrix(1.00, 0.00, -0.00, -1.00, 162.6, 6.0)">e</text><text xml:space="preserve" font-family="IowanOldStyle-Roman" font-size="17.9" fill="#000000" transform="matrix(1.00, 0.00, -0.00, -1.00, 171.3, 6.0)">d</text><text xml:space="preserve" font-family="IowanOldStyle-Roman" font-size="17.9" fill="#000000" transform="matrix(1.00, 0.00, -0.00, -1.00, 181.3, 6.0)"> </text><text xml:space="preserve" font-family="IowanOldStyle-Roman" font-size="17.9" fill="#000000" transform="matrix(1.00, 0.00, -0.00, -1.00, 186.3, 6.0)">i</text><text xml:space="preserve" font-family="IowanOldStyle-Roman" font-size="17.9" fill="#000000" transform="matrix(1.00, 0.00, -0.00, -1.00, 191.6, 6.0)">t</text><text xml:space="preserve" font-family="IowanOldStyle-Roman" font-size="17.9" fill="#000000" transform="matrix(1.00, 0.00, -0.00, -1.00, 198.0, 6.0)">e</text><text xml:space="preserve" font-family="IowanOldStyle-Roman" font-size="17.9" fill="#000000" transform="matrix(1.00, 0.00, -0.00, -1.00, 206.7, 6.0)">m</text><text xml:space="preserve" font-family="IowanOldStyle-Roman" font-size="17.9" fill="#000000" transform="matrix(1.00, 0.00, -0.00, -1.00, 222.4, 6.0)">s</text><text xml:space="preserve" font-family="IowanOldStyle-Roman" font-size="17.9" fill="#000000" transform="matrix(1.00, 0.00, -0.00, -1.00, 230.3, 6.0)"> </text><text xml:space="preserve" font-family="IowanOldStyle-Roman" font-size="17.9" fill="#000000" transform="matrix(1.00, 0.00, -0.00, -1.00, 235.3, 6.0)">d</text><text xml:space="preserve" font-family="IowanOldStyle-Roman" font-size="17.9" fill="#000000" transform="matrix(1.00, 0.00, -0.00, -1.00, 245.3, 6.0)">u</text><text xml:space="preserve" font-family="IowanOldStyle-Roman" font-size="17.9" fill="#000000" transform="matrix(1.00, 0.00, -0.00, -1.00, 255.8, 6.0)">e</text><text xml:space="preserve" font-family="IowanOldStyle-Roman" font-size="17.9" fill="#000000" transform="matrix(1.00, 0.00, -0.00, -1.00, 264.5, 6.0)"> </text><text xml:space="preserve" font-family="IowanOldStyle-Roman" font-size="17.9" fill="#000000" transform="matrix(1.00, 0.00, -0.00, -1.00, 269.5, 6.0)">t</text><text xml:space="preserve" font-family="IowanOldStyle-Roman" font-size="17.9" fill="#000000" transform="matrix(1.00, 0.00, -0.00, -1.00, 275.9, 6.0)">o</text><text xml:space="preserve" font-family="IowanOldStyle-Roman" font-size="17.9" fill="#000000" transform="matrix(1.00, 0.00, -0.00, -1.00, 285.8, 6.0)"> </text><text xml:space="preserve" font-family="IowanOldStyle-Roman" font-size="17.9" fill="#000000" transform="matrix(1.00, 0.00, -0.00, -1.00, 290.7, 6.0)">s</text><text xml:space="preserve" font-family="IowanOldStyle-Roman" font-size="17.9" fill="#000000" transform="matrix(1.00, 0.00, -0.00, -1.00, 298.6, 6.0)">i</text><text xml:space="preserve" font-family="IowanOldStyle-Roman" font-size="17.9" fill="#000000" transform="matrix(1.00, 0.00, -0.00, -1.00, 303.9, 6.0)">z</text><text xml:space="preserve" font-family="IowanOldStyle-Roman" font-size="17.9" fill="#000000" transform="matrix(1.00, 0.00, -0.00, -1.00, 312.4, 6.0)">i</text><text xml:space="preserve" font-family="IowanOldStyle-Roman" font-size="17.9" fill="#000000" transform="matrix(1.00, 0.00, -0.00, -1.00, 317.7, 6.0)">n</text><text xml:space="preserve" font-family="IowanOldStyle-Roman" font-size="17.9" fill="#000000" transform="matrix(1.00, 0.00, -0.00, -1.00, 328.1, 6.0)">g</text><text xml:space="preserve" font-family="IowanOldStyle-Roman" font-size="17.9" fill="#000000" transform="matrix(1.00, 0.00, -0.00, -1.00, 337.3, 6.0)"> </text><text xml:space="preserve" font-family="IowanOldStyle-Roman" font-size="17.9" fill="#000000" transform="matrix(1.00, 0.00, -0.00, -1.00, 342.3, 6.0)">o</text><text xml:space="preserve" font-family="IowanOldStyle-Roman" font-size="17.9" fill="#000000" transform="matrix(1.00, 0.00, -0.00, -1.00, 352.1, 6.0)">r</text><text xml:space="preserve" font-family="IowanOldStyle-Roman" font-size="17.9" fill="#000000" transform="matrix(1.00, 0.00, -0.00, -1.00, 359.1, 6.0)"> </text><text xml:space="preserve" font-family="IowanOldStyle-Roman" font-size="17.9" fill="#000000" transform="matrix(1.00, 0.00, -0.00, -1.00, 364.0, 6.0)">s</text><text xml:space="preserve" font-family="IowanOldStyle-Roman" font-size="17.9" fill="#000000" transform="matrix(1.00, 0.00, -0.00, -1.00, 371.9, 6.0)">t</text><text xml:space="preserve" font-family="IowanOldStyle-Roman" font-size="17.9" fill="#000000" transform="matrix(1.00, 0.00, -0.00, -1.00, 378.4, 6.0)">y</text><text xml:space="preserve" font-family="IowanOldStyle-Roman" font-size="17.9" fill="#000000" transform="matrix(1.00, 0.00, -0.00, -1.00, 387.0, 6.0)">l</text><text xml:space="preserve" font-family="IowanOldStyle-Roman" font-size="17.9" fill="#000000" transform="matrix(1.00, 0.00, -0.00, -1.00, 392.3, 6.0)">e</text><text xml:space="preserve" font-family="IowanOldStyle-Roman" font-size="17.9" fill="#000000" transform="matrix(1.00, 0.00, -0.00, -1.00, 401.0, 6.0)"> </text><text xml:space="preserve" font-family="IowanOldStyle-Roman" font-size="17.9" fill="#000000" transform="matrix(1.00, 0.00, -0.00, -1.00, 405.9, 6.0)">i</text><text xml:space="preserve" font-family="IowanOldStyle-Roman" font-size="17.9" fill="#000000" transform="matrix(1.00, 0.00, -0.00, -1.00, 411.2, 6.0)">s</text><text xml:space="preserve" font-family="IowanOldStyle-Roman" font-size="17.9" fill="#000000" transform="matrix(1.00, 0.00, -0.00, -1.00, 419.1, 6.0)">s</text><text xml:space="preserve" font-family="IowanOldStyle-Roman" font-size="17.9" fill="#000000" transform="matrix(1.00, 0.00, -0.00, -1.00, 427.0, 6.0)">u</text><text xml:space="preserve" font-family="IowanOldStyle-Roman" font-size="17.9" fill="#000000" transform="matrix(1.00, 0.00, -0.00, -1.00, 437.5, 6.0)">e</text><text xml:space="preserve" font-family="IowanOldStyle-Roman" font-size="17.9" fill="#000000" transform="matrix(1.00, 0.00, -0.00, -1.00, 446.2, 6.0)">s</text></g></svg>