<?xml version="1.0" encoding="UTF-8" standalone="no"?><svg xmlns="http://www.w3.org/2000/svg" xmlns:xlink="http://www.w3.org/1999/xlink" clip-rule="evenodd" stroke-miterlimit="4.00" viewBox="0 0 405 21"><desc>SVG generated by Keynote</desc><defs></defs><g transform="matrix(1.00, 0.00, -0.00, -1.00, 0.0, 21.0)"><text xml:space="preserve" font-family="IowanOldStyle-Roman" font-size="19.4" fill="#000000" transform="matrix(1.00, 0.00, -0.00, -1.00, 1.0, 4.0)">b</text><text xml:space="preserve" font-family="IowanOldStyle-Roman" font-size="19.4" fill="#000000" transform="matrix(1.00, 0.00, -0.00, -1.00, 11.8, 4.0)">e</text><text xml:space="preserve" font-family="IowanOldStyle-Roman" font-size="19.4" fill="#000000" transform="matrix(1.00, 0.00, -0.00, -1.00, 21.2, 4.0)">h</text><text xml:space="preserve" font-family="IowanOldStyle-Roman" font-size="19.4" fill="#000000" transform="matrix(1.00, 0.00, -0.00, -1.00, 32.6, 4.0)">a</text><text xml:space="preserve" font-family="IowanOldStyle-Roman" font-size="19.4" fill="#000000" transform="matrix(1.00, 0.00, -0.00, -1.00, 41.9, 4.0)">v</text><text xml:space="preserve" font-family="IowanOldStyle-Roman" font-size="19.4" fill="#000000" transform="matrix(1.00, 0.00, -0.00, -1.00, 51.4, 4.0)">i</text><text xml:space="preserve" font-family="IowanOldStyle-Roman" font-size="19.4" fill="#000000" transform="matrix(1.00, 0.00, -0.00, -1.00, 57.2, 4.0)">o</text><text xml:space="preserve" font-family="IowanOldStyle-Roman" font-size="19.4" fill="#000000" transform="matrix(1.00, 0.00, -0.00, -1.00, 67.9, 4.0)">r</text><text xml:space="preserve" font-family="IowanOldStyle-Roman" font-size="19.4" fill="#000000" transform="matrix(1.00, 0.00, -0.00, -1.00, 75.4, 4.0)">s</text><text xml:space="preserve" font-family="IowanOldStyle-Roman" font-size="19.4" fill="#000000" transform="matrix(1.00, 0.00, -0.00, -1.00, 84.0, 4.0)">,</text><text xml:space="preserve" font-family="IowanOldStyle-Roman" font-size="19.4" fill="#000000" transform="matrix(1.00, 0.00, -0.00, -1.00, 89.4, 4.0)"> </text><text xml:space="preserve" font-family="IowanOldStyle-Roman" font-size="19.4" fill="#000000" transform="matrix(1.00, 0.00, -0.00, -1.00, 94.8, 4.0)">a</text><text xml:space="preserve" font-family="IowanOldStyle-Roman" font-size="19.4" fill="#000000" transform="matrix(1.00, 0.00, -0.00, -1.00, 104.1, 4.0)">n</text><text xml:space="preserve" font-family="IowanOldStyle-Roman" font-size="19.4" fill="#000000" transform="matrix(1.00, 0.00, -0.00, -1.00, 115.4, 4.0)">d</text><text xml:space="preserve" font-family="IowanOldStyle-Roman" font-size="19.4" fill="#000000" transform="matrix(1.00, 0.00, -0.00, -1.00, 126.3, 4.0)"> </text><text xml:space="preserve" font-family="IowanOldStyle-Roman" font-size="19.4" fill="#000000" transform="matrix(1.00, 0.00, -0.00, -1.00, 131.7, 4.0)">n</text><text xml:space="preserve" font-family="IowanOldStyle-Roman" font-size="19.4" fill="#000000" transform="matrix(1.00, 0.00, -0.00, -1.00, 143.0, 4.0)">e</text><text xml:space="preserve" font-family="IowanOldStyle-Roman" font-size="19.4" fill="#000000" transform="matrix(1.00, 0.00, -0.00, -1.00, 152.4, 4.0)">e</text><text xml:space="preserve" font-family="IowanOldStyle-Roman" font-size="19.4" fill="#000000" transform="matrix(1.00, 0.00, -0.00, -1.00, 161.9, 4.0)">d</text><text xml:space="preserve" font-family="IowanOldStyle-Roman" font-size="19.4" fill="#000000" transform="matrix(1.00, 0.00, -0.00, -1.00, 172.8, 4.0)">s</text><text xml:space="preserve" font-family="IowanOldStyle-Roman" font-size="19.4" fill="#000000" transform="matrix(1.00, 0.00, -0.00, -1.00, 181.4, 4.0)"> </text><text xml:space="preserve" font-family="IowanOldStyle-Roman" font-size="19.4" fill="#000000" transform="matrix(1.00, 0.00, -0.00, -1.00, 186.7, 4.0)">f</text><text xml:space="preserve" font-family="IowanOldStyle-Roman" font-size="19.4" fill="#000000" transform="matrix(1.00, 0.00, -0.00, -1.00, 192.9, 4.0)">r</text><text xml:space="preserve" font-family="IowanOldStyle-Roman" font-size="19.4" fill="#000000" transform="matrix(1.00, 0.00, -0.00, -1.00, 200.5, 4.0)">o</text><text xml:space="preserve" font-family="IowanOldStyle-Roman" font-size="19.4" fill="#000000" transform="matrix(1.00, 0.00, -0.00, -1.00, 211.2, 4.0)">m</text><text xml:space="preserve" font-family="IowanOldStyle-Roman" font-size="19.4" fill="#000000" transform="matrix(1.00, 0.00, -0.00, -1.00, 228.2, 4.0)"> </text><text xml:space="preserve" font-family="IowanOldStyle-Roman" font-size="19.4" fill="#000000" transform="matrix(1.00, 0.00, -0.00, -1.00, 233.6, 4.0)">t</text><text xml:space="preserve" font-family="IowanOldStyle-Roman" font-size="19.4" fill="#000000" transform="matrix(1.00, 0.00, -0.00, -1.00, 240.6, 4.0)">h</text><text xml:space="preserve" font-family="IowanOldStyle-Roman" font-size="19.4" fill="#000000" transform="matrix(1.00, 0.00, -0.00, -1.00, 251.9, 4.0)">e</text><text xml:space="preserve" font-family="IowanOldStyle-Roman" font-size="19.4" fill="#000000" transform="matrix(1.00, 0.00, -0.00, -1.00, 261.4, 4.0)"> </text><text xml:space="preserve" font-family="IowanOldStyle-Roman" font-size="19.4" fill="#000000" transform="matrix(1.00, 0.00, -0.00, -1.00, 266.8, 4.0)">u</text><text xml:space="preserve" font-family="IowanOldStyle-Roman" font-size="19.4" fill="#000000" transform="matrix(1.00, 0.00, -0.00, -1.00, 278.1, 4.0)">s</text><text xml:space="preserve" font-family="IowanOldStyle-Roman" font-size="19.4" fill="#000000" transform="matrix(1.00, 0.00, -0.00, -1.00, 286.7, 4.0)">e</text><text xml:space="preserve" font-family="IowanOldStyle-Roman" font-size="19.4" fill="#000000" transform="matrix(1.00, 0.00, -0.00, -1.00, 296.2, 4.0)">r</text><text xml:space="preserve" font-family="IowanOldStyle-Roman" font-size="19.4" fill="#000000" transform="matrix(1.00, 0.00, -0.00, -1.00, 303.7, 4.0)"> </text><text xml:space="preserve" font-family="IowanOldStyle-Roman" font-size="19.4" fill="#000000" transform="matrix(1.00, 0.00, -0.00, -1.00, 309.1, 4.0)">i</text><text xml:space="preserve" font-family="IowanOldStyle-Roman" font-size="19.4" fill="#000000" transform="matrix(1.00, 0.00, -0.00, -1.00, 314.9, 4.0)">n</text><text xml:space="preserve" font-family="IowanOldStyle-Roman" font-size="19.4" fill="#000000" transform="matrix(1.00, 0.00, -0.00, -1.00, 326.2, 4.0)">t</text><text xml:space="preserve" font-family="IowanOldStyle-Roman" font-size="19.4" fill="#000000" transform="matrix(1.00, 0.00, -0.00, -1.00, 333.2, 4.0)">e</text><text xml:space="preserve" font-family="IowanOldStyle-Roman" font-size="19.4" fill="#000000" transform="matrix(1.00, 0.00, -0.00, -1.00, 342.6, 4.0)">r</text><text xml:space="preserve" font-family="IowanOldStyle-Roman" font-size="19.4" fill="#000000" transform="matrix(1.00, 0.00, -0.00, -1.00, 350.7, 4.0)">v</text><text xml:space="preserve" font-family="IowanOldStyle-Roman" font-size="19.4" fill="#000000" transform="matrix(1.00, 0.00, -0.00, -1.00, 360.2, 4.0)">i</text><text xml:space="preserve" font-family="IowanOldStyle-Roman" font-size="19.4" fill="#000000" transform="matrix(1.00, 0.00, -0.00, -1.00, 366.0, 4.0)">e</text><text xml:space="preserve" font-family="IowanOldStyle-Roman" font-size="19.4" fill="#000000" transform="matrix(1.00, 0.00, -0.00, -1.00, 375.4, 4.0)">w</text><text xml:space="preserve" font-family="IowanOldStyle-Roman" font-size="19.4" fill="#000000" transform="matrix(1.00, 0.00, -0.00, -1.00, 390.5, 4.0)">s</text><text xml:space="preserve" font-family="IowanOldStyle-Roman" font-size="19.4" fill="#000000" transform="matrix(1.00, 0.00, -0.00, -1.00, 399.0, 4.0)">.</text></g></svg>