<?xml version="1.0" encoding="UTF-8" standalone="no"?><svg xmlns="http://www.w3.org/2000/svg" xmlns:xlink="http://www.w3.org/1999/xlink" clip-rule="evenodd" stroke-miterlimit="4.00" viewBox="0 0 403 25"><desc>SVG generated by Keynote</desc><defs></defs><g transform="matrix(1.00, 0.00, -0.00, -1.00, 0.0, 25.0)"><text xml:space="preserve" font-family="IowanOldStyle-Roman" font-size="15.9" fill="#000000" transform="matrix(1.00, 0.00, -0.00, -1.00, 0.0, 7.7)">•</text><text xml:space="preserve" font-family="IowanOldStyle-Roman" font-size="19.4" fill="#000000" transform="matrix(1.00, 0.00, -0.00, -1.00, 17.0, 6.0)">U</text><text xml:space="preserve" font-family="IowanOldStyle-Roman" font-size="19.4" fill="#000000" transform="matrix(1.00, 0.00, -0.00, -1.00, 32.3, 6.0)">s</text><text xml:space="preserve" font-family="IowanOldStyle-Roman" font-size="19.4" fill="#000000" transform="matrix(1.00, 0.00, -0.00, -1.00, 40.8, 6.0)">e</text><text xml:space="preserve" font-family="IowanOldStyle-Roman" font-size="19.4" fill="#000000" transform="matrix(1.00, 0.00, -0.00, -1.00, 50.3, 6.0)">r</text><text xml:space="preserve" font-family="IowanOldStyle-Roman" font-size="19.4" fill="#000000" transform="matrix(1.00, 0.00, -0.00, -1.00, 57.8, 6.0)">s</text><text xml:space="preserve" font-family="IowanOldStyle-Roman" font-size="19.4" fill="#000000" transform="matrix(1.00, 0.00, -0.00, -1.00, 66.4, 6.0)"> </text><text xml:space="preserve" font-family="IowanOldStyle-Roman" font-size="19.4" fill="#000000" transform="matrix(1.00, 0.00, -0.00, -1.00, 71.8, 6.0)">w</text><text xml:space="preserve" font-family="IowanOldStyle-Roman" font-size="19.4" fill="#000000" transform="matrix(1.00, 0.00, -0.00, -1.00, 86.8, 6.0)">a</text><text xml:space="preserve" font-family="IowanOldStyle-Roman" font-size="19.4" fill="#000000" transform="matrix(1.00, 0.00, -0.00, -1.00, 96.1, 6.0)">n</text><text xml:space="preserve" font-family="IowanOldStyle-Roman" font-size="19.4" fill="#000000" transform="matrix(1.00, 0.00, -0.00, -1.00, 107.5, 6.0)">t</text><text xml:space="preserve" font-family="IowanOldStyle-Roman" font-size="19.4" fill="#000000" transform="matrix(1.00, 0.00, -0.00, -1.00, 114.4, 6.0)"> </text><text xml:space="preserve" font-family="IowanOldStyle-Roman" font-size="19.4" fill="#000000" transform="matrix(1.00, 0.00, -0.00, -1.00, 119.8, 6.0)">o</text><text xml:space="preserve" font-family="IowanOldStyle-Roman" font-size="19.4" fill="#000000" transform="matrix(1.00, 0.00, -0.00, -1.00, 130.5, 6.0)">n</text><text xml:space="preserve" font-family="IowanOldStyle-Roman" font-size="19.4" fill="#000000" transform="matrix(1.00, 0.00, -0.00, -1.00, 141.8, 6.0)">e</text><text xml:space="preserve" font-family="IowanOldStyle-Roman" font-size="19.4" fill="#000000" transform="matrix(1.00, 0.00, -0.00, -1.00, 151.3, 6.0)"> </text><text xml:space="preserve" font-family="IowanOldStyle-Roman" font-size="19.4" fill="#000000" transform="matrix(1.00, 0.00, -0.00, -1.00, 156.6, 6.0)">p</text><text xml:space="preserve" font-family="IowanOldStyle-Roman" font-size="19.4" fill="#000000" transform="matrix(1.00, 0.00, -0.00, -1.00, 167.5, 6.0)">l</text><text xml:space="preserve" font-family="IowanOldStyle-Roman" font-size="19.4" fill="#000000" transform="matrix(1.00, 0.00, -0.00, -1.00, 173.2, 6.0)">a</text><text xml:space="preserve" font-family="IowanOldStyle-Roman" font-size="19.4" fill="#000000" transform="matrix(1.00, 0.00, -0.00, -1.00, 182.5, 6.0)">c</text><text xml:space="preserve" font-family="IowanOldStyle-Roman" font-size="19.4" fill="#000000" transform="matrix(1.00, 0.00, -0.00, -1.00, 191.1, 6.0)">e</text><text xml:space="preserve" font-family="IowanOldStyle-Roman" font-size="19.4" fill="#000000" transform="matrix(1.00, 0.00, -0.00, -1.00, 200.6, 6.0)"> </text><text xml:space="preserve" font-family="IowanOldStyle-Roman" font-size="19.4" fill="#000000" transform="matrix(1.00, 0.00, -0.00, -1.00, 206.0, 6.0)">t</text><text xml:space="preserve" font-family="IowanOldStyle-Roman" font-size="19.4" fill="#000000" transform="matrix(1.00, 0.00, -0.00, -1.00, 212.9, 6.0)">o</text><text xml:space="preserve" font-family="IowanOldStyle-Roman" font-size="19.4" fill="#000000" transform="matrix(1.00, 0.00, -0.00, -1.00, 223.6, 6.0)"> </text><text xml:space="preserve" font-family="IowanOldStyle-Roman" font-size="19.4" fill="#000000" transform="matrix(1.00, 0.00, -0.00, -1.00, 229.0, 6.0)">v</text><text xml:space="preserve" font-family="IowanOldStyle-Roman" font-size="19.4" fill="#000000" transform="matrix(1.00, 0.00, -0.00, -1.00, 238.5, 6.0)">i</text><text xml:space="preserve" font-family="IowanOldStyle-Roman" font-size="19.4" fill="#000000" transform="matrix(1.00, 0.00, -0.00, -1.00, 244.3, 6.0)">s</text><text xml:space="preserve" font-family="IowanOldStyle-Roman" font-size="19.4" fill="#000000" transform="matrix(1.00, 0.00, -0.00, -1.00, 252.8, 6.0)">i</text><text xml:space="preserve" font-family="IowanOldStyle-Roman" font-size="19.4" fill="#000000" transform="matrix(1.00, 0.00, -0.00, -1.00, 258.6, 6.0)">t</text><text xml:space="preserve" font-family="IowanOldStyle-Roman" font-size="19.4" fill="#000000" transform="matrix(1.00, 0.00, -0.00, -1.00, 265.6, 6.0)"> </text><text xml:space="preserve" font-family="IowanOldStyle-Roman" font-size="19.4" fill="#000000" transform="matrix(1.00, 0.00, -0.00, -1.00, 270.9, 6.0)">o</text><text xml:space="preserve" font-family="IowanOldStyle-Roman" font-size="19.4" fill="#000000" transform="matrix(1.00, 0.00, -0.00, -1.00, 281.6, 6.0)">n</text><text xml:space="preserve" font-family="IowanOldStyle-Roman" font-size="19.4" fill="#000000" transform="matrix(1.00, 0.00, -0.00, -1.00, 292.9, 6.0)">l</text><text xml:space="preserve" font-family="IowanOldStyle-Roman" font-size="19.4" fill="#000000" transform="matrix(1.00, 0.00, -0.00, -1.00, 298.6, 6.0)">i</text><text xml:space="preserve" font-family="IowanOldStyle-Roman" font-size="19.4" fill="#000000" transform="matrix(1.00, 0.00, -0.00, -1.00, 304.3, 6.0)">n</text><text xml:space="preserve" font-family="IowanOldStyle-Roman" font-size="19.4" fill="#000000" transform="matrix(1.00, 0.00, -0.00, -1.00, 315.7, 6.0)">e</text><text xml:space="preserve" font-family="IowanOldStyle-Roman" font-size="19.4" fill="#000000" transform="matrix(1.00, 0.00, -0.00, -1.00, 325.1, 6.0)"> </text><text xml:space="preserve" font-family="IowanOldStyle-Roman" font-size="19.4" fill="#000000" transform="matrix(1.00, 0.00, -0.00, -1.00, 330.5, 6.0)">f</text><text xml:space="preserve" font-family="IowanOldStyle-Roman" font-size="19.4" fill="#000000" transform="matrix(1.00, 0.00, -0.00, -1.00, 336.7, 6.0)">o</text><text xml:space="preserve" font-family="IowanOldStyle-Roman" font-size="19.4" fill="#000000" transform="matrix(1.00, 0.00, -0.00, -1.00, 347.3, 6.0)">r</text><text xml:space="preserve" font-family="IowanOldStyle-Roman" font-size="19.4" fill="#000000" transform="matrix(1.00, 0.00, -0.00, -1.00, 354.9, 6.0)"> </text><text xml:space="preserve" font-family="IowanOldStyle-Roman" font-size="19.4" fill="#000000" transform="matrix(1.00, 0.00, -0.00, -1.00, 360.3, 6.0)">t</text><text xml:space="preserve" font-family="IowanOldStyle-Roman" font-size="19.4" fill="#000000" transform="matrix(1.00, 0.00, -0.00, -1.00, 367.3, 6.0)">h</text><text xml:space="preserve" font-family="IowanOldStyle-Roman" font-size="19.4" fill="#000000" transform="matrix(1.00, 0.00, -0.00, -1.00, 378.6, 6.0)">e</text><text xml:space="preserve" font-family="IowanOldStyle-Roman" font-size="19.4" fill="#000000" transform="matrix(1.00, 0.00, -0.00, -1.00, 388.1, 6.0)">i</text><text xml:space="preserve" font-family="IowanOldStyle-Roman" font-size="19.4" fill="#000000" transform="matrix(1.00, 0.00, -0.00, -1.00, 393.8, 6.0)">r</text></g></svg>