<?xml version="1.0" encoding="UTF-8" standalone="no"?><svg xmlns="http://www.w3.org/2000/svg" xmlns:xlink="http://www.w3.org/1999/xlink" clip-rule="evenodd" stroke-miterlimit="4.00" viewBox="0 0 123 27"><desc>SVG generated by Keynote</desc><defs></defs><g transform="matrix(1.00, 0.00, -0.00, -1.00, 0.0, 27.0)"><text xml:space="preserve" font-family="IowanOldStyle-Roman" font-size="24.5" fill="#000000" transform="matrix(1.00, 0.00, -0.00, -1.00, 1.0, 8.0)">K</text><text xml:space="preserve" font-family="IowanOldStyle-Roman" font-size="24.5" fill="#000000" transform="matrix(1.00, 0.00, -0.00, -1.00, 17.3, 8.0)">e</text><text xml:space="preserve" font-family="IowanOldStyle-Roman" font-size="24.5" fill="#000000" transform="matrix(1.00, 0.00, -0.00, -1.00, 29.2, 8.0)">y</text><text xml:space="preserve" font-family="IowanOldStyle-Roman" font-size="24.5" fill="#000000" transform="matrix(1.00, 0.00, -0.00, -1.00, 41.1, 8.0)"> </text><text xml:space="preserve" font-family="IowanOldStyle-Roman" font-size="24.5" fill="#000000" transform="matrix(1.00, 0.00, -0.00, -1.00, 47.9, 8.0)">P</text><text xml:space="preserve" font-family="IowanOldStyle-Roman" font-size="24.5" fill="#000000" transform="matrix(1.00, 0.00, -0.00, -1.00, 61.5, 8.0)">o</text><text xml:space="preserve" font-family="IowanOldStyle-Roman" font-size="24.5" fill="#000000" transform="matrix(1.00, 0.00, -0.00, -1.00, 74.9, 8.0)">i</text><text xml:space="preserve" font-family="IowanOldStyle-Roman" font-size="24.5" fill="#000000" transform="matrix(1.00, 0.00, -0.00, -1.00, 82.2, 8.0)">n</text><text xml:space="preserve" font-family="IowanOldStyle-Roman" font-size="24.5" fill="#000000" transform="matrix(1.00, 0.00, -0.00, -1.00, 96.5, 8.0)">t</text><text xml:space="preserve" font-family="IowanOldStyle-Roman" font-size="24.5" fill="#000000" transform="matrix(1.00, 0.00, -0.00, -1.00, 105.3, 8.0)">s</text><text xml:space="preserve" font-family="IowanOldStyle-Roman" font-size="24.5" fill="#000000" transform="matrix(1.00, 0.00, -0.00, -1.00, 116.1, 8.0)">:</text></g></svg>