<?xml version="1.0" encoding="UTF-8" standalone="no"?><svg xmlns="http://www.w3.org/2000/svg" xmlns:xlink="http://www.w3.org/1999/xlink" clip-rule="evenodd" stroke-miterlimit="4.00" viewBox="0 0 1015 31"><desc>SVG generated by Keynote</desc><defs></defs><g transform="matrix(1.00, 0.00, -0.00, -1.00, 0.0, 31.0)"><text xml:space="preserve" font-family="IowanOldStyle-Roman" font-size="26.0" fill="#000000" transform="matrix(1.00, 0.00, -0.00, -1.00, 2.0, 9.0)">I</text><text xml:space="preserve" font-family="IowanOldStyle-Roman" font-size="26.0" fill="#000000" transform="matrix(1.00, 0.00, -0.00, -1.00, 10.8, 9.0)">n</text><text xml:space="preserve" font-family="IowanOldStyle-Roman" font-size="26.0" fill="#000000" transform="matrix(1.00, 0.00, -0.00, -1.00, 26.0, 9.0)"> </text><text xml:space="preserve" font-family="IowanOldStyle-Roman" font-size="26.0" fill="#000000" transform="matrix(1.00, 0.00, -0.00, -1.00, 33.2, 9.0)">a</text><text xml:space="preserve" font-family="IowanOldStyle-Roman" font-size="26.0" fill="#000000" transform="matrix(1.00, 0.00, -0.00, -1.00, 45.7, 9.0)">d</text><text xml:space="preserve" font-family="IowanOldStyle-Roman" font-size="26.0" fill="#000000" transform="matrix(1.00, 0.00, -0.00, -1.00, 60.3, 9.0)">d</text><text xml:space="preserve" font-family="IowanOldStyle-Roman" font-size="26.0" fill="#000000" transform="matrix(1.00, 0.00, -0.00, -1.00, 75.0, 9.0)">i</text><text xml:space="preserve" font-family="IowanOldStyle-Roman" font-size="26.0" fill="#000000" transform="matrix(1.00, 0.00, -0.00, -1.00, 82.7, 9.0)">t</text><text xml:space="preserve" font-family="IowanOldStyle-Roman" font-size="26.0" fill="#000000" transform="matrix(1.00, 0.00, -0.00, -1.00, 92.0, 9.0)">i</text><text xml:space="preserve" font-family="IowanOldStyle-Roman" font-size="26.0" fill="#000000" transform="matrix(1.00, 0.00, -0.00, -1.00, 99.7, 9.0)">o</text><text xml:space="preserve" font-family="IowanOldStyle-Roman" font-size="26.0" fill="#000000" transform="matrix(1.00, 0.00, -0.00, -1.00, 114.1, 9.0)">n</text><text xml:space="preserve" font-family="IowanOldStyle-Roman" font-size="26.0" fill="#000000" transform="matrix(1.00, 0.00, -0.00, -1.00, 129.2, 9.0)">,</text><text xml:space="preserve" font-family="IowanOldStyle-Roman" font-size="26.0" fill="#000000" transform="matrix(1.00, 0.00, -0.00, -1.00, 136.5, 9.0)"> </text><text xml:space="preserve" font-family="IowanOldStyle-Roman" font-size="26.0" fill="#000000" transform="matrix(1.00, 0.00, -0.00, -1.00, 143.7, 9.0)">w</text><text xml:space="preserve" font-family="IowanOldStyle-Roman" font-size="26.0" fill="#000000" transform="matrix(1.00, 0.00, -0.00, -1.00, 163.8, 9.0)">o</text><text xml:space="preserve" font-family="IowanOldStyle-Roman" font-size="26.0" fill="#000000" transform="matrix(1.00, 0.00, -0.00, -1.00, 178.1, 9.0)">m</text><text xml:space="preserve" font-family="IowanOldStyle-Roman" font-size="26.0" fill="#000000" transform="matrix(1.00, 0.00, -0.00, -1.00, 201.0, 9.0)">e</text><text xml:space="preserve" font-family="IowanOldStyle-Roman" font-size="26.0" fill="#000000" transform="matrix(1.00, 0.00, -0.00, -1.00, 213.7, 9.0)">n</text><text xml:space="preserve" font-family="IowanOldStyle-Roman" font-size="26.0" fill="#000000" transform="matrix(1.00, 0.00, -0.00, -1.00, 228.9, 9.0)">'</text><text xml:space="preserve" font-family="IowanOldStyle-Roman" font-size="26.0" fill="#000000" transform="matrix(1.00, 0.00, -0.00, -1.00, 233.3, 9.0)">s</text><text xml:space="preserve" font-family="IowanOldStyle-Roman" font-size="26.0" fill="#000000" transform="matrix(1.00, 0.00, -0.00, -1.00, 244.8, 9.0)"> </text><text xml:space="preserve" font-family="IowanOldStyle-Roman" font-size="26.0" fill="#000000" transform="matrix(1.00, 0.00, -0.00, -1.00, 252.0, 9.0)">a</text><text xml:space="preserve" font-family="IowanOldStyle-Roman" font-size="26.0" fill="#000000" transform="matrix(1.00, 0.00, -0.00, -1.00, 264.5, 9.0)">p</text><text xml:space="preserve" font-family="IowanOldStyle-Roman" font-size="26.0" fill="#000000" transform="matrix(1.00, 0.00, -0.00, -1.00, 279.1, 9.0)">p</text><text xml:space="preserve" font-family="IowanOldStyle-Roman" font-size="26.0" fill="#000000" transform="matrix(1.00, 0.00, -0.00, -1.00, 293.7, 9.0)">a</text><text xml:space="preserve" font-family="IowanOldStyle-Roman" font-size="26.0" fill="#000000" transform="matrix(1.00, 0.00, -0.00, -1.00, 306.2, 9.0)">r</text><text xml:space="preserve" font-family="IowanOldStyle-Roman" font-size="26.0" fill="#000000" transform="matrix(1.00, 0.00, -0.00, -1.00, 316.3, 9.0)">e</text><text xml:space="preserve" font-family="IowanOldStyle-Roman" font-size="26.0" fill="#000000" transform="matrix(1.00, 0.00, -0.00, -1.00, 329.0, 9.0)">l</text><text xml:space="preserve" font-family="IowanOldStyle-Roman" font-size="26.0" fill="#000000" transform="matrix(1.00, 0.00, -0.00, -1.00, 336.6, 9.0)"> </text><text xml:space="preserve" font-family="IowanOldStyle-Roman" font-size="26.0" fill="#000000" transform="matrix(1.00, 0.00, -0.00, -1.00, 343.8, 9.0)">i</text><text xml:space="preserve" font-family="IowanOldStyle-Roman" font-size="26.0" fill="#000000" transform="matrix(1.00, 0.00, -0.00, -1.00, 351.5, 9.0)">t</text><text xml:space="preserve" font-family="IowanOldStyle-Roman" font-size="26.0" fill="#000000" transform="matrix(1.00, 0.00, -0.00, -1.00, 360.9, 9.0)">e</text><text xml:space="preserve" font-family="IowanOldStyle-Roman" font-size="26.0" fill="#000000" transform="matrix(1.00, 0.00, -0.00, -1.00, 373.5, 9.0)">m</text><text xml:space="preserve" font-family="IowanOldStyle-Roman" font-size="26.0" fill="#000000" transform="matrix(1.00, 0.00, -0.00, -1.00, 396.4, 9.0)">s</text><text xml:space="preserve" font-family="IowanOldStyle-Roman" font-size="26.0" fill="#000000" transform="matrix(1.00, 0.00, -0.00, -1.00, 407.9, 9.0)"> </text><text xml:space="preserve" font-family="IowanOldStyle-Roman" font-size="26.0" fill="#000000" transform="matrix(1.00, 0.00, -0.00, -1.00, 415.1, 9.0)">w</text><text xml:space="preserve" font-family="IowanOldStyle-Roman" font-size="26.0" fill="#000000" transform="matrix(1.00, 0.00, -0.00, -1.00, 435.3, 9.0)">i</text><text xml:space="preserve" font-family="IowanOldStyle-Roman" font-size="26.0" fill="#000000" transform="matrix(1.00, 0.00, -0.00, -1.00, 443.0, 9.0)">l</text><text xml:space="preserve" font-family="IowanOldStyle-Roman" font-size="26.0" fill="#000000" transform="matrix(1.00, 0.00, -0.00, -1.00, 450.6, 9.0)">l</text><text xml:space="preserve" font-family="IowanOldStyle-Roman" font-size="26.0" fill="#000000" transform="matrix(1.00, 0.00, -0.00, -1.00, 458.2, 9.0)"> </text><text xml:space="preserve" font-family="IowanOldStyle-Roman" font-size="26.0" fill="#000000" transform="matrix(1.00, 0.00, -0.00, -1.00, 465.4, 9.0)">b</text><text xml:space="preserve" font-family="IowanOldStyle-Roman" font-size="26.0" fill="#000000" transform="matrix(1.00, 0.00, -0.00, -1.00, 479.9, 9.0)">e</text><text xml:space="preserve" font-family="IowanOldStyle-Roman" font-size="26.0" fill="#000000" transform="matrix(1.00, 0.00, -0.00, -1.00, 492.6, 9.0)"> </text><text xml:space="preserve" font-family="IowanOldStyle-Roman" font-size="26.0" fill="#000000" transform="matrix(1.00, 0.00, -0.00, -1.00, 499.8, 9.0)">a</text><text xml:space="preserve" font-family="IowanOldStyle-Roman" font-size="26.0" fill="#000000" transform="matrix(1.00, 0.00, -0.00, -1.00, 512.3, 9.0)">v</text><text xml:space="preserve" font-family="IowanOldStyle-Roman" font-size="26.0" fill="#000000" transform="matrix(1.00, 0.00, -0.00, -1.00, 525.1, 9.0)">a</text><text xml:space="preserve" font-family="IowanOldStyle-Roman" font-size="26.0" fill="#000000" transform="matrix(1.00, 0.00, -0.00, -1.00, 537.6, 9.0)">i</text><text xml:space="preserve" font-family="IowanOldStyle-Roman" font-size="26.0" fill="#000000" transform="matrix(1.00, 0.00, -0.00, -1.00, 545.3, 9.0)">l</text><text xml:space="preserve" font-family="IowanOldStyle-Roman" font-size="26.0" fill="#000000" transform="matrix(1.00, 0.00, -0.00, -1.00, 552.9, 9.0)">a</text><text xml:space="preserve" font-family="IowanOldStyle-Roman" font-size="26.0" fill="#000000" transform="matrix(1.00, 0.00, -0.00, -1.00, 565.4, 9.0)">b</text><text xml:space="preserve" font-family="IowanOldStyle-Roman" font-size="26.0" fill="#000000" transform="matrix(1.00, 0.00, -0.00, -1.00, 579.8, 9.0)">l</text><text xml:space="preserve" font-family="IowanOldStyle-Roman" font-size="26.0" fill="#000000" transform="matrix(1.00, 0.00, -0.00, -1.00, 587.4, 9.0)">e</text><text xml:space="preserve" font-family="IowanOldStyle-Roman" font-size="26.0" fill="#000000" transform="matrix(1.00, 0.00, -0.00, -1.00, 600.1, 9.0)"> </text><text xml:space="preserve" font-family="IowanOldStyle-Roman" font-size="26.0" fill="#000000" transform="matrix(1.00, 0.00, -0.00, -1.00, 607.3, 9.0)">i</text><text xml:space="preserve" font-family="IowanOldStyle-Roman" font-size="26.0" fill="#000000" transform="matrix(1.00, 0.00, -0.00, -1.00, 615.0, 9.0)">n</text><text xml:space="preserve" font-family="IowanOldStyle-Roman" font-size="26.0" fill="#000000" transform="matrix(1.00, 0.00, -0.00, -1.00, 630.2, 9.0)"> </text><text xml:space="preserve" font-family="IowanOldStyle-Roman" font-size="26.0" fill="#000000" transform="matrix(1.00, 0.00, -0.00, -1.00, 637.4, 9.0)">v</text><text xml:space="preserve" font-family="IowanOldStyle-Roman" font-size="26.0" fill="#000000" transform="matrix(1.00, 0.00, -0.00, -1.00, 650.2, 9.0)">a</text><text xml:space="preserve" font-family="IowanOldStyle-Roman" font-size="26.0" fill="#000000" transform="matrix(1.00, 0.00, -0.00, -1.00, 662.7, 9.0)">r</text><text xml:space="preserve" font-family="IowanOldStyle-Roman" font-size="26.0" fill="#000000" transform="matrix(1.00, 0.00, -0.00, -1.00, 673.4, 9.0)">y</text><text xml:space="preserve" font-family="IowanOldStyle-Roman" font-size="26.0" fill="#000000" transform="matrix(1.00, 0.00, -0.00, -1.00, 686.0, 9.0)">i</text><text xml:space="preserve" font-family="IowanOldStyle-Roman" font-size="26.0" fill="#000000" transform="matrix(1.00, 0.00, -0.00, -1.00, 693.7, 9.0)">n</text><text xml:space="preserve" font-family="IowanOldStyle-Roman" font-size="26.0" fill="#000000" transform="matrix(1.00, 0.00, -0.00, -1.00, 708.9, 9.0)">g</text><text xml:space="preserve" font-family="IowanOldStyle-Roman" font-size="26.0" fill="#000000" transform="matrix(1.00, 0.00, -0.00, -1.00, 722.3, 9.0)"> </text><text xml:space="preserve" font-family="IowanOldStyle-Roman" font-size="26.0" fill="#000000" transform="matrix(1.00, 0.00, -0.00, -1.00, 729.5, 9.0)">s</text><text xml:space="preserve" font-family="IowanOldStyle-Roman" font-size="26.0" fill="#000000" transform="matrix(1.00, 0.00, -0.00, -1.00, 741.0, 9.0)">i</text><text xml:space="preserve" font-family="IowanOldStyle-Roman" font-size="26.0" fill="#000000" transform="matrix(1.00, 0.00, -0.00, -1.00, 748.7, 9.0)">z</text><text xml:space="preserve" font-family="IowanOldStyle-Roman" font-size="26.0" fill="#000000" transform="matrix(1.00, 0.00, -0.00, -1.00, 761.0, 9.0)">e</text><text xml:space="preserve" font-family="IowanOldStyle-Roman" font-size="26.0" fill="#000000" transform="matrix(1.00, 0.00, -0.00, -1.00, 773.7, 9.0)">s</text><text xml:space="preserve" font-family="IowanOldStyle-Roman" font-size="26.0" fill="#000000" transform="matrix(1.00, 0.00, -0.00, -1.00, 785.2, 9.0)">/</text><text xml:space="preserve" font-family="IowanOldStyle-Roman" font-size="26.0" fill="#000000" transform="matrix(1.00, 0.00, -0.00, -1.00, 797.2, 9.0)">ï¬</text><text xml:space="preserve" font-family="IowanOldStyle-Roman" font-size="26.0" fill="#000000" transform="matrix(1.00, 0.00, -0.00, -1.00, 812.5, 9.0)">t</text><text xml:space="preserve" font-family="IowanOldStyle-Roman" font-size="26.0" fill="#000000" transform="matrix(1.00, 0.00, -0.00, -1.00, 821.9, 9.0)">s</text><text xml:space="preserve" font-family="IowanOldStyle-Roman" font-size="26.0" fill="#000000" transform="matrix(1.00, 0.00, -0.00, -1.00, 833.4, 9.0)">,</text><text xml:space="preserve" font-family="IowanOldStyle-Roman" font-size="26.0" fill="#000000" transform="matrix(1.00, 0.00, -0.00, -1.00, 840.6, 9.0)"> </text><text xml:space="preserve" font-family="IowanOldStyle-Roman" font-size="26.0" fill="#000000" transform="matrix(1.00, 0.00, -0.00, -1.00, 847.8, 9.0)">a</text><text xml:space="preserve" font-family="IowanOldStyle-Roman" font-size="26.0" fill="#000000" transform="matrix(1.00, 0.00, -0.00, -1.00, 860.3, 9.0)">n</text><text xml:space="preserve" font-family="IowanOldStyle-Roman" font-size="26.0" fill="#000000" transform="matrix(1.00, 0.00, -0.00, -1.00, 875.5, 9.0)">d</text><text xml:space="preserve" font-family="IowanOldStyle-Roman" font-size="26.0" fill="#000000" transform="matrix(1.00, 0.00, -0.00, -1.00, 890.1, 9.0)"> </text><text xml:space="preserve" font-family="IowanOldStyle-Roman" font-size="26.0" fill="#000000" transform="matrix(1.00, 0.00, -0.00, -1.00, 897.4, 9.0)">m</text><text xml:space="preserve" font-family="IowanOldStyle-Roman" font-size="26.0" fill="#000000" transform="matrix(1.00, 0.00, -0.00, -1.00, 920.2, 9.0)">o</text><text xml:space="preserve" font-family="IowanOldStyle-Roman" font-size="26.0" fill="#000000" transform="matrix(1.00, 0.00, -0.00, -1.00, 934.5, 9.0)">d</text><text xml:space="preserve" font-family="IowanOldStyle-Roman" font-size="26.0" fill="#000000" transform="matrix(1.00, 0.00, -0.00, -1.00, 949.2, 9.0)">e</text><text xml:space="preserve" font-family="IowanOldStyle-Roman" font-size="26.0" fill="#000000" transform="matrix(1.00, 0.00, -0.00, -1.00, 961.8, 9.0)">l</text><text xml:space="preserve" font-family="IowanOldStyle-Roman" font-size="26.0" fill="#000000" transform="matrix(1.00, 0.00, -0.00, -1.00, 969.4, 9.0)">s</text><text xml:space="preserve" font-family="IowanOldStyle-Roman" font-size="26.0" fill="#000000" transform="matrix(1.00, 0.00, -0.00, -1.00, 980.9, 9.0)"> </text><text xml:space="preserve" font-family="IowanOldStyle-Roman" font-size="26.0" fill="#000000" transform="matrix(1.00, 0.00, -0.00, -1.00, 988.2, 9.0)">o</text><text xml:space="preserve" font-family="IowanOldStyle-Roman" font-size="26.0" fill="#000000" transform="matrix(1.00, 0.00, -0.00, -1.00, 1002.5, 9.0)">f</text></g></svg>