<?xml version="1.0" encoding="UTF-8" standalone="no"?><svg xmlns="http://www.w3.org/2000/svg" xmlns:xlink="http://www.w3.org/1999/xlink" clip-rule="evenodd" stroke-miterlimit="4.00" viewBox="0 0 815 30"><desc>SVG generated by Keynote</desc><defs></defs><g transform="matrix(1.00, 0.00, -0.00, -1.00, 0.0, 30.0)"><text xml:space="preserve" font-family="IowanOldStyle-Roman" font-size="26.0" fill="#000000" transform="matrix(1.00, 0.00, -0.00, -1.00, 1.0, 8.0)">F</text><text xml:space="preserve" font-family="IowanOldStyle-Roman" font-size="26.0" fill="#000000" transform="matrix(1.00, 0.00, -0.00, -1.00, 15.3, 8.0)">a</text><text xml:space="preserve" font-family="IowanOldStyle-Roman" font-size="26.0" fill="#000000" transform="matrix(1.00, 0.00, -0.00, -1.00, 27.8, 8.0)">n</text><text xml:space="preserve" font-family="IowanOldStyle-Roman" font-size="26.0" fill="#000000" transform="matrix(1.00, 0.00, -0.00, -1.00, 43.0, 8.0)"> </text><text xml:space="preserve" font-family="IowanOldStyle-Roman" font-size="26.0" fill="#000000" transform="matrix(1.00, 0.00, -0.00, -1.00, 50.2, 8.0)">a</text><text xml:space="preserve" font-family="IowanOldStyle-Roman" font-size="26.0" fill="#000000" transform="matrix(1.00, 0.00, -0.00, -1.00, 62.7, 8.0)">p</text><text xml:space="preserve" font-family="IowanOldStyle-Roman" font-size="26.0" fill="#000000" transform="matrix(1.00, 0.00, -0.00, -1.00, 77.3, 8.0)">p</text><text xml:space="preserve" font-family="IowanOldStyle-Roman" font-size="26.0" fill="#000000" transform="matrix(1.00, 0.00, -0.00, -1.00, 91.8, 8.0)">a</text><text xml:space="preserve" font-family="IowanOldStyle-Roman" font-size="26.0" fill="#000000" transform="matrix(1.00, 0.00, -0.00, -1.00, 104.3, 8.0)">r</text><text xml:space="preserve" font-family="IowanOldStyle-Roman" font-size="26.0" fill="#000000" transform="matrix(1.00, 0.00, -0.00, -1.00, 114.5, 8.0)">e</text><text xml:space="preserve" font-family="IowanOldStyle-Roman" font-size="26.0" fill="#000000" transform="matrix(1.00, 0.00, -0.00, -1.00, 127.1, 8.0)">l</text><text xml:space="preserve" font-family="IowanOldStyle-Roman" font-size="26.0" fill="#000000" transform="matrix(1.00, 0.00, -0.00, -1.00, 134.7, 8.0)"> </text><text xml:space="preserve" font-family="IowanOldStyle-Roman" font-size="26.0" fill="#000000" transform="matrix(1.00, 0.00, -0.00, -1.00, 142.0, 8.0)">f</text><text xml:space="preserve" font-family="IowanOldStyle-Roman" font-size="26.0" fill="#000000" transform="matrix(1.00, 0.00, -0.00, -1.00, 150.3, 8.0)">o</text><text xml:space="preserve" font-family="IowanOldStyle-Roman" font-size="26.0" fill="#000000" transform="matrix(1.00, 0.00, -0.00, -1.00, 164.6, 8.0)">r</text><text xml:space="preserve" font-family="IowanOldStyle-Roman" font-size="26.0" fill="#000000" transform="matrix(1.00, 0.00, -0.00, -1.00, 174.7, 8.0)"> </text><text xml:space="preserve" font-family="IowanOldStyle-Roman" font-size="26.0" fill="#000000" transform="matrix(1.00, 0.00, -0.00, -1.00, 181.9, 8.0)">w</text><text xml:space="preserve" font-family="IowanOldStyle-Roman" font-size="26.0" fill="#000000" transform="matrix(1.00, 0.00, -0.00, -1.00, 202.1, 8.0)">o</text><text xml:space="preserve" font-family="IowanOldStyle-Roman" font-size="26.0" fill="#000000" transform="matrix(1.00, 0.00, -0.00, -1.00, 216.4, 8.0)">m</text><text xml:space="preserve" font-family="IowanOldStyle-Roman" font-size="26.0" fill="#000000" transform="matrix(1.00, 0.00, -0.00, -1.00, 239.3, 8.0)">e</text><text xml:space="preserve" font-family="IowanOldStyle-Roman" font-size="26.0" fill="#000000" transform="matrix(1.00, 0.00, -0.00, -1.00, 252.0, 8.0)">n</text><text xml:space="preserve" font-family="IowanOldStyle-Roman" font-size="26.0" fill="#000000" transform="matrix(1.00, 0.00, -0.00, -1.00, 267.1, 8.0)">’</text><text xml:space="preserve" font-family="IowanOldStyle-Roman" font-size="26.0" fill="#000000" transform="matrix(1.00, 0.00, -0.00, -1.00, 274.4, 8.0)">s</text><text xml:space="preserve" font-family="IowanOldStyle-Roman" font-size="26.0" fill="#000000" transform="matrix(1.00, 0.00, -0.00, -1.00, 285.9, 8.0)"> </text><text xml:space="preserve" font-family="IowanOldStyle-Roman" font-size="26.0" fill="#000000" transform="matrix(1.00, 0.00, -0.00, -1.00, 293.1, 8.0)">t</text><text xml:space="preserve" font-family="IowanOldStyle-Roman" font-size="26.0" fill="#000000" transform="matrix(1.00, 0.00, -0.00, -1.00, 302.4, 8.0)">e</text><text xml:space="preserve" font-family="IowanOldStyle-Roman" font-size="26.0" fill="#000000" transform="matrix(1.00, 0.00, -0.00, -1.00, 315.1, 8.0)">a</text><text xml:space="preserve" font-family="IowanOldStyle-Roman" font-size="26.0" fill="#000000" transform="matrix(1.00, 0.00, -0.00, -1.00, 327.6, 8.0)">m</text><text xml:space="preserve" font-family="IowanOldStyle-Roman" font-size="26.0" fill="#000000" transform="matrix(1.00, 0.00, -0.00, -1.00, 350.5, 8.0)">s</text><text xml:space="preserve" font-family="IowanOldStyle-Roman" font-size="26.0" fill="#000000" transform="matrix(1.00, 0.00, -0.00, -1.00, 362.0, 8.0)"> </text><text xml:space="preserve" font-family="IowanOldStyle-Roman" font-size="26.0" fill="#000000" transform="matrix(1.00, 0.00, -0.00, -1.00, 369.2, 8.0)">w</text><text xml:space="preserve" font-family="IowanOldStyle-Roman" font-size="26.0" fill="#000000" transform="matrix(1.00, 0.00, -0.00, -1.00, 389.4, 8.0)">i</text><text xml:space="preserve" font-family="IowanOldStyle-Roman" font-size="26.0" fill="#000000" transform="matrix(1.00, 0.00, -0.00, -1.00, 397.1, 8.0)">l</text><text xml:space="preserve" font-family="IowanOldStyle-Roman" font-size="26.0" fill="#000000" transform="matrix(1.00, 0.00, -0.00, -1.00, 404.7, 8.0)">l</text><text xml:space="preserve" font-family="IowanOldStyle-Roman" font-size="26.0" fill="#000000" transform="matrix(1.00, 0.00, -0.00, -1.00, 412.3, 8.0)"> </text><text xml:space="preserve" font-family="IowanOldStyle-Roman" font-size="26.0" fill="#000000" transform="matrix(1.00, 0.00, -0.00, -1.00, 419.5, 8.0)">b</text><text xml:space="preserve" font-family="IowanOldStyle-Roman" font-size="26.0" fill="#000000" transform="matrix(1.00, 0.00, -0.00, -1.00, 434.0, 8.0)">e</text><text xml:space="preserve" font-family="IowanOldStyle-Roman" font-size="26.0" fill="#000000" transform="matrix(1.00, 0.00, -0.00, -1.00, 446.6, 8.0)"> </text><text xml:space="preserve" font-family="IowanOldStyle-Roman" font-size="26.0" fill="#000000" transform="matrix(1.00, 0.00, -0.00, -1.00, 453.9, 8.0)">f</text><text xml:space="preserve" font-family="IowanOldStyle-Roman" font-size="26.0" fill="#000000" transform="matrix(1.00, 0.00, -0.00, -1.00, 462.2, 8.0)">e</text><text xml:space="preserve" font-family="IowanOldStyle-Roman" font-size="26.0" fill="#000000" transform="matrix(1.00, 0.00, -0.00, -1.00, 474.8, 8.0)">a</text><text xml:space="preserve" font-family="IowanOldStyle-Roman" font-size="26.0" fill="#000000" transform="matrix(1.00, 0.00, -0.00, -1.00, 487.4, 8.0)">t</text><text xml:space="preserve" font-family="IowanOldStyle-Roman" font-size="26.0" fill="#000000" transform="matrix(1.00, 0.00, -0.00, -1.00, 496.7, 8.0)">u</text><text xml:space="preserve" font-family="IowanOldStyle-Roman" font-size="26.0" fill="#000000" transform="matrix(1.00, 0.00, -0.00, -1.00, 512.0, 8.0)">r</text><text xml:space="preserve" font-family="IowanOldStyle-Roman" font-size="26.0" fill="#000000" transform="matrix(1.00, 0.00, -0.00, -1.00, 522.1, 8.0)">e</text><text xml:space="preserve" font-family="IowanOldStyle-Roman" font-size="26.0" fill="#000000" transform="matrix(1.00, 0.00, -0.00, -1.00, 534.8, 8.0)">d</text><text xml:space="preserve" font-family="IowanOldStyle-Roman" font-size="26.0" fill="#000000" transform="matrix(1.00, 0.00, -0.00, -1.00, 549.4, 8.0)"> </text><text xml:space="preserve" font-family="IowanOldStyle-Roman" font-size="26.0" fill="#000000" transform="matrix(1.00, 0.00, -0.00, -1.00, 556.6, 8.0)">i</text><text xml:space="preserve" font-family="IowanOldStyle-Roman" font-size="26.0" fill="#000000" transform="matrix(1.00, 0.00, -0.00, -1.00, 564.4, 8.0)">n</text><text xml:space="preserve" font-family="IowanOldStyle-Roman" font-size="26.0" fill="#000000" transform="matrix(1.00, 0.00, -0.00, -1.00, 579.5, 8.0)"> </text><text xml:space="preserve" font-family="IowanOldStyle-Roman" font-size="26.0" fill="#000000" transform="matrix(1.00, 0.00, -0.00, -1.00, 586.8, 8.0)">m</text><text xml:space="preserve" font-family="IowanOldStyle-Roman" font-size="26.0" fill="#000000" transform="matrix(1.00, 0.00, -0.00, -1.00, 609.6, 8.0)">e</text><text xml:space="preserve" font-family="IowanOldStyle-Roman" font-size="26.0" fill="#000000" transform="matrix(1.00, 0.00, -0.00, -1.00, 622.3, 8.0)">n</text><text xml:space="preserve" font-family="IowanOldStyle-Roman" font-size="26.0" fill="#000000" transform="matrix(1.00, 0.00, -0.00, -1.00, 637.5, 8.0)">’</text><text xml:space="preserve" font-family="IowanOldStyle-Roman" font-size="26.0" fill="#000000" transform="matrix(1.00, 0.00, -0.00, -1.00, 644.7, 8.0)">s</text><text xml:space="preserve" font-family="IowanOldStyle-Roman" font-size="26.0" fill="#000000" transform="matrix(1.00, 0.00, -0.00, -1.00, 656.2, 8.0)">/</text><text xml:space="preserve" font-family="IowanOldStyle-Roman" font-size="26.0" fill="#000000" transform="matrix(1.00, 0.00, -0.00, -1.00, 668.2, 8.0)">u</text><text xml:space="preserve" font-family="IowanOldStyle-Roman" font-size="26.0" fill="#000000" transform="matrix(1.00, 0.00, -0.00, -1.00, 683.5, 8.0)">n</text><text xml:space="preserve" font-family="IowanOldStyle-Roman" font-size="26.0" fill="#000000" transform="matrix(1.00, 0.00, -0.00, -1.00, 698.7, 8.0)">i</text><text xml:space="preserve" font-family="IowanOldStyle-Roman" font-size="26.0" fill="#000000" transform="matrix(1.00, 0.00, -0.00, -1.00, 706.4, 8.0)">s</text><text xml:space="preserve" font-family="IowanOldStyle-Roman" font-size="26.0" fill="#000000" transform="matrix(1.00, 0.00, -0.00, -1.00, 717.9, 8.0)">e</text><text xml:space="preserve" font-family="IowanOldStyle-Roman" font-size="26.0" fill="#000000" transform="matrix(1.00, 0.00, -0.00, -1.00, 730.1, 8.0)">x</text><text xml:space="preserve" font-family="IowanOldStyle-Roman" font-size="26.0" fill="#000000" transform="matrix(1.00, 0.00, -0.00, -1.00, 743.9, 8.0)"> </text><text xml:space="preserve" font-family="IowanOldStyle-Roman" font-size="26.0" fill="#000000" transform="matrix(1.00, 0.00, -0.00, -1.00, 751.1, 8.0)">s</text><text xml:space="preserve" font-family="IowanOldStyle-Roman" font-size="26.0" fill="#000000" transform="matrix(1.00, 0.00, -0.00, -1.00, 762.6, 8.0)">i</text><text xml:space="preserve" font-family="IowanOldStyle-Roman" font-size="26.0" fill="#000000" transform="matrix(1.00, 0.00, -0.00, -1.00, 770.3, 8.0)">z</text><text xml:space="preserve" font-family="IowanOldStyle-Roman" font-size="26.0" fill="#000000" transform="matrix(1.00, 0.00, -0.00, -1.00, 782.6, 8.0)">e</text><text xml:space="preserve" font-family="IowanOldStyle-Roman" font-size="26.0" fill="#000000" transform="matrix(1.00, 0.00, -0.00, -1.00, 795.3, 8.0)">s</text><text xml:space="preserve" font-family="IowanOldStyle-Roman" font-size="26.0" fill="#000000" transform="matrix(1.00, 0.00, -0.00, -1.00, 806.8, 8.0)">.</text></g></svg>