<?xml version="1.0" encoding="UTF-8" standalone="no"?><svg xmlns="http://www.w3.org/2000/svg" xmlns:xlink="http://www.w3.org/1999/xlink" clip-rule="evenodd" stroke-miterlimit="4.00" viewBox="0 0 432 60"><desc>SVG generated by Keynote</desc><defs></defs><g transform="matrix(1.00, 0.00, -0.00, -1.00, 0.0, 60.0)"><text xml:space="preserve" font-family="IowanOldStyle-Roman" font-size="72.0" fill="#000000" transform="matrix(1.00, 0.00, -0.00, -1.00, 2.0, 3.0)">T</text><text xml:space="preserve" font-family="IowanOldStyle-Roman" font-size="72.0" fill="#000000" transform="matrix(1.00, 0.00, -0.00, -1.00, 47.4, 3.0)">h</text><text xml:space="preserve" font-family="IowanOldStyle-Roman" font-size="72.0" fill="#000000" transform="matrix(1.00, 0.00, -0.00, -1.00, 89.6, 3.0)">e</text><text xml:space="preserve" font-family="IowanOldStyle-Roman" font-size="72.0" fill="#000000" transform="matrix(1.00, 0.00, -0.00, -1.00, 124.7, 3.0)"> </text><text xml:space="preserve" font-family="IowanOldStyle-Roman" font-size="72.0" fill="#000000" transform="matrix(1.00, 0.00, -0.00, -1.00, 144.7, 3.0)">S</text><text xml:space="preserve" font-family="IowanOldStyle-Roman" font-size="72.0" fill="#000000" transform="matrix(1.00, 0.00, -0.00, -1.00, 183.6, 3.0)">o</text><text xml:space="preserve" font-family="IowanOldStyle-Roman" font-size="72.0" fill="#000000" transform="matrix(1.00, 0.00, -0.00, -1.00, 223.3, 3.0)">l</text><text xml:space="preserve" font-family="IowanOldStyle-Roman" font-size="72.0" fill="#000000" transform="matrix(1.00, 0.00, -0.00, -1.00, 244.3, 3.0)">u</text><text xml:space="preserve" font-family="IowanOldStyle-Roman" font-size="72.0" fill="#000000" transform="matrix(1.00, 0.00, -0.00, -1.00, 286.6, 3.0)">t</text><text xml:space="preserve" font-family="IowanOldStyle-Roman" font-size="72.0" fill="#000000" transform="matrix(1.00, 0.00, -0.00, -1.00, 312.5, 3.0)">i</text><text xml:space="preserve" font-family="IowanOldStyle-Roman" font-size="72.0" fill="#000000" transform="matrix(1.00, 0.00, -0.00, -1.00, 333.9, 3.0)">o</text><text xml:space="preserve" font-family="IowanOldStyle-Roman" font-size="72.0" fill="#000000" transform="matrix(1.00, 0.00, -0.00, -1.00, 373.5, 3.0)">n</text><text xml:space="preserve" font-family="IowanOldStyle-Roman" font-size="72.0" fill="#000000" transform="matrix(1.00, 0.00, -0.00, -1.00, 415.6, 3.0)">:</text></g></svg>