<?xml version="1.0" encoding="UTF-8" standalone="no"?><svg xmlns="http://www.w3.org/2000/svg" xmlns:xlink="http://www.w3.org/1999/xlink" clip-rule="evenodd" stroke-miterlimit="4.00" viewBox="0 0 819 49"><desc>SVG generated by Keynote</desc><defs></defs><g transform="matrix(1.00, 0.00, -0.00, -1.00, 0.0, 49.0)"><text xml:space="preserve" font-family="IowanOldStyle-Roman" font-size="33.2" fill="#000000" transform="matrix(1.00, 0.00, -0.00, -1.00, 0.0, 14.4)">•</text><text xml:space="preserve" font-family="IowanOldStyle-Roman" font-size="40.5" fill="#000000" transform="matrix(1.00, 0.00, -0.00, -1.00, 36.0, 12.0)">R</text><text xml:space="preserve" font-family="IowanOldStyle-Roman" font-size="40.5" fill="#000000" transform="matrix(1.00, 0.00, -0.00, -1.00, 63.4, 12.0)">o</text><text xml:space="preserve" font-family="IowanOldStyle-Roman" font-size="40.5" fill="#000000" transform="matrix(1.00, 0.00, -0.00, -1.00, 85.7, 12.0)">l</text><text xml:space="preserve" font-family="IowanOldStyle-Roman" font-size="40.5" fill="#000000" transform="matrix(1.00, 0.00, -0.00, -1.00, 97.5, 12.0)">e</text><text xml:space="preserve" font-family="IowanOldStyle-Roman" font-size="40.5" fill="#000000" transform="matrix(1.00, 0.00, -0.00, -1.00, 117.2, 12.0)">:</text><text xml:space="preserve" font-family="IowanOldStyle-Roman" font-size="40.5" fill="#000000" transform="matrix(1.00, 0.00, -0.00, -1.00, 128.5, 12.0)"> </text><text xml:space="preserve" font-family="IowanOldStyle-Roman" font-size="40.5" fill="#000000" transform="matrix(1.00, 0.00, -0.00, -1.00, 139.7, 12.0)">U</text><text xml:space="preserve" font-family="IowanOldStyle-Roman" font-size="40.5" fill="#000000" transform="matrix(1.00, 0.00, -0.00, -1.00, 171.6, 12.0)">s</text><text xml:space="preserve" font-family="IowanOldStyle-Roman" font-size="40.5" fill="#000000" transform="matrix(1.00, 0.00, -0.00, -1.00, 189.5, 12.0)">e</text><text xml:space="preserve" font-family="IowanOldStyle-Roman" font-size="40.5" fill="#000000" transform="matrix(1.00, 0.00, -0.00, -1.00, 209.2, 12.0)">r</text><text xml:space="preserve" font-family="IowanOldStyle-Roman" font-size="40.5" fill="#000000" transform="matrix(1.00, 0.00, -0.00, -1.00, 225.0, 12.0)"> </text><text xml:space="preserve" font-family="IowanOldStyle-Roman" font-size="40.5" fill="#000000" transform="matrix(1.00, 0.00, -0.00, -1.00, 236.3, 12.0)">R</text><text xml:space="preserve" font-family="IowanOldStyle-Roman" font-size="40.5" fill="#000000" transform="matrix(1.00, 0.00, -0.00, -1.00, 263.6, 12.0)">e</text><text xml:space="preserve" font-family="IowanOldStyle-Roman" font-size="40.5" fill="#000000" transform="matrix(1.00, 0.00, -0.00, -1.00, 283.4, 12.0)">s</text><text xml:space="preserve" font-family="IowanOldStyle-Roman" font-size="40.5" fill="#000000" transform="matrix(1.00, 0.00, -0.00, -1.00, 301.3, 12.0)">e</text><text xml:space="preserve" font-family="IowanOldStyle-Roman" font-size="40.5" fill="#000000" transform="matrix(1.00, 0.00, -0.00, -1.00, 321.0, 12.0)">a</text><text xml:space="preserve" font-family="IowanOldStyle-Roman" font-size="40.5" fill="#000000" transform="matrix(1.00, 0.00, -0.00, -1.00, 340.5, 12.0)">r</text><text xml:space="preserve" font-family="IowanOldStyle-Roman" font-size="40.5" fill="#000000" transform="matrix(1.00, 0.00, -0.00, -1.00, 356.3, 12.0)">c</text><text xml:space="preserve" font-family="IowanOldStyle-Roman" font-size="40.5" fill="#000000" transform="matrix(1.00, 0.00, -0.00, -1.00, 374.4, 12.0)">h</text><text xml:space="preserve" font-family="IowanOldStyle-Roman" font-size="40.5" fill="#000000" transform="matrix(1.00, 0.00, -0.00, -1.00, 398.1, 12.0)">e</text><text xml:space="preserve" font-family="IowanOldStyle-Roman" font-size="40.5" fill="#000000" transform="matrix(1.00, 0.00, -0.00, -1.00, 417.8, 12.0)">r</text><text xml:space="preserve" font-family="IowanOldStyle-Roman" font-size="40.5" fill="#000000" transform="matrix(1.00, 0.00, -0.00, -1.00, 430.3, 12.0)">,</text><text xml:space="preserve" font-family="IowanOldStyle-Roman" font-size="40.5" fill="#000000" transform="matrix(1.00, 0.00, -0.00, -1.00, 441.6, 12.0)"> </text><text xml:space="preserve" font-family="IowanOldStyle-Roman" font-size="40.5" fill="#000000" transform="matrix(1.00, 0.00, -0.00, -1.00, 452.8, 12.0)">V</text><text xml:space="preserve" font-family="IowanOldStyle-Roman" font-size="40.5" fill="#000000" transform="matrix(1.00, 0.00, -0.00, -1.00, 480.2, 12.0)">i</text><text xml:space="preserve" font-family="IowanOldStyle-Roman" font-size="40.5" fill="#000000" transform="matrix(1.00, 0.00, -0.00, -1.00, 492.2, 12.0)">s</text><text xml:space="preserve" font-family="IowanOldStyle-Roman" font-size="40.5" fill="#000000" transform="matrix(1.00, 0.00, -0.00, -1.00, 510.1, 12.0)">u</text><text xml:space="preserve" font-family="IowanOldStyle-Roman" font-size="40.5" fill="#000000" transform="matrix(1.00, 0.00, -0.00, -1.00, 533.9, 12.0)">a</text><text xml:space="preserve" font-family="IowanOldStyle-Roman" font-size="40.5" fill="#000000" transform="matrix(1.00, 0.00, -0.00, -1.00, 553.4, 12.0)">l</text><text xml:space="preserve" font-family="IowanOldStyle-Roman" font-size="40.5" fill="#000000" transform="matrix(1.00, 0.00, -0.00, -1.00, 565.2, 12.0)"> </text><text xml:space="preserve" font-family="IowanOldStyle-Roman" font-size="40.5" fill="#000000" transform="matrix(1.00, 0.00, -0.00, -1.00, 576.4, 12.0)">D</text><text xml:space="preserve" font-family="IowanOldStyle-Roman" font-size="40.5" fill="#000000" transform="matrix(1.00, 0.00, -0.00, -1.00, 608.0, 12.0)">e</text><text xml:space="preserve" font-family="IowanOldStyle-Roman" font-size="40.5" fill="#000000" transform="matrix(1.00, 0.00, -0.00, -1.00, 627.8, 12.0)">s</text><text xml:space="preserve" font-family="IowanOldStyle-Roman" font-size="40.5" fill="#000000" transform="matrix(1.00, 0.00, -0.00, -1.00, 645.7, 12.0)">i</text><text xml:space="preserve" font-family="IowanOldStyle-Roman" font-size="40.5" fill="#000000" transform="matrix(1.00, 0.00, -0.00, -1.00, 657.7, 12.0)">g</text><text xml:space="preserve" font-family="IowanOldStyle-Roman" font-size="40.5" fill="#000000" transform="matrix(1.00, 0.00, -0.00, -1.00, 678.6, 12.0)">n</text><text xml:space="preserve" font-family="IowanOldStyle-Roman" font-size="40.5" fill="#000000" transform="matrix(1.00, 0.00, -0.00, -1.00, 702.3, 12.0)">e</text><text xml:space="preserve" font-family="IowanOldStyle-Roman" font-size="40.5" fill="#000000" transform="matrix(1.00, 0.00, -0.00, -1.00, 722.0, 12.0)">r</text><text xml:space="preserve" font-family="IowanOldStyle-Roman" font-size="40.5" fill="#000000" transform="matrix(1.00, 0.00, -0.00, -1.00, 734.5, 12.0)">,</text><text xml:space="preserve" font-family="IowanOldStyle-Roman" font-size="40.5" fill="#000000" transform="matrix(1.00, 0.00, -0.00, -1.00, 745.7, 12.0)"> </text><text xml:space="preserve" font-family="IowanOldStyle-Roman" font-size="40.5" fill="#000000" transform="matrix(1.00, 0.00, -0.00, -1.00, 757.0, 12.0)">U</text><text xml:space="preserve" font-family="IowanOldStyle-Roman" font-size="40.5" fill="#000000" transform="matrix(1.00, 0.00, -0.00, -1.00, 788.8, 12.0)">X</text></g></svg>