<?xml version="1.0" encoding="UTF-8" standalone="no"?><svg xmlns="http://www.w3.org/2000/svg" xmlns:xlink="http://www.w3.org/1999/xlink" clip-rule="evenodd" stroke-miterlimit="4.00" viewBox="0 0 417 47"><desc>SVG generated by Keynote</desc><defs></defs><g transform="matrix(1.00, 0.00, -0.00, -1.00, 0.0, 47.0)"><text xml:space="preserve" font-family="IowanOldStyle-Roman" font-size="61.0" fill="#000000" transform="matrix(1.00, 0.00, -0.00, -1.00, 1.0, 2.0)">W</text><text xml:space="preserve" font-family="IowanOldStyle-Roman" font-size="61.0" fill="#000000" transform="matrix(1.00, 0.00, -0.00, -1.00, 64.3, 2.0)">I</text><text xml:space="preserve" font-family="IowanOldStyle-Roman" font-size="61.0" fill="#000000" transform="matrix(1.00, 0.00, -0.00, -1.00, 85.0, 2.0)">R</text><text xml:space="preserve" font-family="IowanOldStyle-Roman" font-size="61.0" fill="#000000" transform="matrix(1.00, 0.00, -0.00, -1.00, 127.9, 2.0)">E</text><text xml:space="preserve" font-family="IowanOldStyle-Roman" font-size="61.0" fill="#000000" transform="matrix(1.00, 0.00, -0.00, -1.00, 166.5, 2.0)">F</text><text xml:space="preserve" font-family="IowanOldStyle-Roman" font-size="61.0" fill="#000000" transform="matrix(1.00, 0.00, -0.00, -1.00, 202.2, 2.0)">R</text><text xml:space="preserve" font-family="IowanOldStyle-Roman" font-size="61.0" fill="#000000" transform="matrix(1.00, 0.00, -0.00, -1.00, 245.1, 2.0)">A</text><text xml:space="preserve" font-family="IowanOldStyle-Roman" font-size="61.0" fill="#000000" transform="matrix(1.00, 0.00, -0.00, -1.00, 289.2, 2.0)">M</text><text xml:space="preserve" font-family="IowanOldStyle-Roman" font-size="61.0" fill="#000000" transform="matrix(1.00, 0.00, -0.00, -1.00, 344.7, 2.0)">E</text><text xml:space="preserve" font-family="IowanOldStyle-Roman" font-size="61.0" fill="#000000" transform="matrix(1.00, 0.00, -0.00, -1.00, 383.4, 2.0)">S</text></g></svg>