<?xml version="1.0" encoding="UTF-8" standalone="no"?><svg xmlns="http://www.w3.org/2000/svg" xmlns:xlink="http://www.w3.org/1999/xlink" clip-rule="evenodd" stroke-miterlimit="4.00" viewBox="0 0 378 33"><desc>SVG generated by Keynote</desc><defs></defs><g transform="matrix(1.00, 0.00, -0.00, -1.00, 0.0, 33.0)"><text xml:space="preserve" font-family="IowanOldStyle-Roman" font-size="29.0" fill="#000000" transform="matrix(1.00, 0.00, -0.00, -1.00, 1.0, 9.0)">p</text><text xml:space="preserve" font-family="IowanOldStyle-Roman" font-size="29.0" fill="#000000" transform="matrix(1.00, 0.00, -0.00, -1.00, 17.2, 9.0)">o</text><text xml:space="preserve" font-family="IowanOldStyle-Roman" font-size="29.0" fill="#000000" transform="matrix(1.00, 0.00, -0.00, -1.00, 33.2, 9.0)">l</text><text xml:space="preserve" font-family="IowanOldStyle-Roman" font-size="29.0" fill="#000000" transform="matrix(1.00, 0.00, -0.00, -1.00, 41.7, 9.0)">i</text><text xml:space="preserve" font-family="IowanOldStyle-Roman" font-size="29.0" fill="#000000" transform="matrix(1.00, 0.00, -0.00, -1.00, 50.3, 9.0)">c</text><text xml:space="preserve" font-family="IowanOldStyle-Roman" font-size="29.0" fill="#000000" transform="matrix(1.00, 0.00, -0.00, -1.00, 63.2, 9.0)">y</text><text xml:space="preserve" font-family="IowanOldStyle-Roman" font-size="29.0" fill="#000000" transform="matrix(1.00, 0.00, -0.00, -1.00, 77.3, 9.0)"> </text><text xml:space="preserve" font-family="IowanOldStyle-Roman" font-size="29.0" fill="#000000" transform="matrix(1.00, 0.00, -0.00, -1.00, 85.4, 9.0)">w</text><text xml:space="preserve" font-family="IowanOldStyle-Roman" font-size="29.0" fill="#000000" transform="matrix(1.00, 0.00, -0.00, -1.00, 107.8, 9.0)">i</text><text xml:space="preserve" font-family="IowanOldStyle-Roman" font-size="29.0" fill="#000000" transform="matrix(1.00, 0.00, -0.00, -1.00, 116.4, 9.0)">l</text><text xml:space="preserve" font-family="IowanOldStyle-Roman" font-size="29.0" fill="#000000" transform="matrix(1.00, 0.00, -0.00, -1.00, 124.9, 9.0)">l</text><text xml:space="preserve" font-family="IowanOldStyle-Roman" font-size="29.0" fill="#000000" transform="matrix(1.00, 0.00, -0.00, -1.00, 133.4, 9.0)"> </text><text xml:space="preserve" font-family="IowanOldStyle-Roman" font-size="29.0" fill="#000000" transform="matrix(1.00, 0.00, -0.00, -1.00, 141.4, 9.0)">b</text><text xml:space="preserve" font-family="IowanOldStyle-Roman" font-size="29.0" fill="#000000" transform="matrix(1.00, 0.00, -0.00, -1.00, 157.6, 9.0)">e</text><text xml:space="preserve" font-family="IowanOldStyle-Roman" font-size="29.0" fill="#000000" transform="matrix(1.00, 0.00, -0.00, -1.00, 171.7, 9.0)"> </text><text xml:space="preserve" font-family="IowanOldStyle-Roman" font-size="29.0" fill="#000000" transform="matrix(1.00, 0.00, -0.00, -1.00, 179.8, 9.0)">f</text><text xml:space="preserve" font-family="IowanOldStyle-Roman" font-size="29.0" fill="#000000" transform="matrix(1.00, 0.00, -0.00, -1.00, 189.0, 9.0)">e</text><text xml:space="preserve" font-family="IowanOldStyle-Roman" font-size="29.0" fill="#000000" transform="matrix(1.00, 0.00, -0.00, -1.00, 203.2, 9.0)">a</text><text xml:space="preserve" font-family="IowanOldStyle-Roman" font-size="29.0" fill="#000000" transform="matrix(1.00, 0.00, -0.00, -1.00, 217.1, 9.0)">t</text><text xml:space="preserve" font-family="IowanOldStyle-Roman" font-size="29.0" fill="#000000" transform="matrix(1.00, 0.00, -0.00, -1.00, 227.5, 9.0)">u</text><text xml:space="preserve" font-family="IowanOldStyle-Roman" font-size="29.0" fill="#000000" transform="matrix(1.00, 0.00, -0.00, -1.00, 244.6, 9.0)">r</text><text xml:space="preserve" font-family="IowanOldStyle-Roman" font-size="29.0" fill="#000000" transform="matrix(1.00, 0.00, -0.00, -1.00, 255.9, 9.0)">e</text><text xml:space="preserve" font-family="IowanOldStyle-Roman" font-size="29.0" fill="#000000" transform="matrix(1.00, 0.00, -0.00, -1.00, 270.1, 9.0)">d</text><text xml:space="preserve" font-family="IowanOldStyle-Roman" font-size="29.0" fill="#000000" transform="matrix(1.00, 0.00, -0.00, -1.00, 286.4, 9.0)"> </text><text xml:space="preserve" font-family="IowanOldStyle-Roman" font-size="29.0" fill="#000000" transform="matrix(1.00, 0.00, -0.00, -1.00, 294.4, 9.0)">o</text><text xml:space="preserve" font-family="IowanOldStyle-Roman" font-size="29.0" fill="#000000" transform="matrix(1.00, 0.00, -0.00, -1.00, 310.4, 9.0)">n</text><text xml:space="preserve" font-family="IowanOldStyle-Roman" font-size="29.0" fill="#000000" transform="matrix(1.00, 0.00, -0.00, -1.00, 327.3, 9.0)"> </text><text xml:space="preserve" font-family="IowanOldStyle-Roman" font-size="29.0" fill="#000000" transform="matrix(1.00, 0.00, -0.00, -1.00, 335.4, 9.0)">t</text><text xml:space="preserve" font-family="IowanOldStyle-Roman" font-size="29.0" fill="#000000" transform="matrix(1.00, 0.00, -0.00, -1.00, 345.8, 9.0)">h</text><text xml:space="preserve" font-family="IowanOldStyle-Roman" font-size="29.0" fill="#000000" transform="matrix(1.00, 0.00, -0.00, -1.00, 362.8, 9.0)">e</text></g></svg>