<?xml version="1.0" encoding="UTF-8" standalone="no"?><svg xmlns="http://www.w3.org/2000/svg" xmlns:xlink="http://www.w3.org/1999/xlink" clip-rule="evenodd" stroke-miterlimit="4.00" viewBox="0 0 354 26"><desc>SVG generated by Keynote</desc><defs></defs><g transform="matrix(1.00, 0.00, -0.00, -1.00, 0.0, 26.0)"><text xml:space="preserve" font-family="IowanOldStyle-Roman" font-size="29.0" fill="#000000" transform="matrix(1.00, 0.00, -0.00, -1.00, 1.0, 2.0)">t</text><text xml:space="preserve" font-family="IowanOldStyle-Roman" font-size="29.0" fill="#000000" transform="matrix(1.00, 0.00, -0.00, -1.00, 11.4, 2.0)">h</text><text xml:space="preserve" font-family="IowanOldStyle-Roman" font-size="29.0" fill="#000000" transform="matrix(1.00, 0.00, -0.00, -1.00, 28.4, 2.0)">e</text><text xml:space="preserve" font-family="IowanOldStyle-Roman" font-size="29.0" fill="#000000" transform="matrix(1.00, 0.00, -0.00, -1.00, 42.6, 2.0)"> </text><text xml:space="preserve" font-family="IowanOldStyle-Roman" font-size="29.0" fill="#000000" transform="matrix(1.00, 0.00, -0.00, -1.00, 50.6, 2.0)">m</text><text xml:space="preserve" font-family="IowanOldStyle-Roman" font-size="29.0" fill="#000000" transform="matrix(1.00, 0.00, -0.00, -1.00, 76.1, 2.0)">o</text><text xml:space="preserve" font-family="IowanOldStyle-Roman" font-size="29.0" fill="#000000" transform="matrix(1.00, 0.00, -0.00, -1.00, 92.1, 2.0)">d</text><text xml:space="preserve" font-family="IowanOldStyle-Roman" font-size="29.0" fill="#000000" transform="matrix(1.00, 0.00, -0.00, -1.00, 108.4, 2.0)">e</text><text xml:space="preserve" font-family="IowanOldStyle-Roman" font-size="29.0" fill="#000000" transform="matrix(1.00, 0.00, -0.00, -1.00, 122.5, 2.0)">l</text><text xml:space="preserve" font-family="IowanOldStyle-Roman" font-size="29.0" fill="#000000" transform="matrix(1.00, 0.00, -0.00, -1.00, 131.0, 2.0)">'</text><text xml:space="preserve" font-family="IowanOldStyle-Roman" font-size="29.0" fill="#000000" transform="matrix(1.00, 0.00, -0.00, -1.00, 135.9, 2.0)">s</text><text xml:space="preserve" font-family="IowanOldStyle-Roman" font-size="29.0" fill="#000000" transform="matrix(1.00, 0.00, -0.00, -1.00, 148.8, 2.0)"> </text><text xml:space="preserve" font-family="IowanOldStyle-Roman" font-size="29.0" fill="#000000" transform="matrix(1.00, 0.00, -0.00, -1.00, 156.8, 2.0)">m</text><text xml:space="preserve" font-family="IowanOldStyle-Roman" font-size="29.0" fill="#000000" transform="matrix(1.00, 0.00, -0.00, -1.00, 182.3, 2.0)">e</text><text xml:space="preserve" font-family="IowanOldStyle-Roman" font-size="29.0" fill="#000000" transform="matrix(1.00, 0.00, -0.00, -1.00, 196.5, 2.0)">a</text><text xml:space="preserve" font-family="IowanOldStyle-Roman" font-size="29.0" fill="#000000" transform="matrix(1.00, 0.00, -0.00, -1.00, 210.4, 2.0)">s</text><text xml:space="preserve" font-family="IowanOldStyle-Roman" font-size="29.0" fill="#000000" transform="matrix(1.00, 0.00, -0.00, -1.00, 223.3, 2.0)">u</text><text xml:space="preserve" font-family="IowanOldStyle-Roman" font-size="29.0" fill="#000000" transform="matrix(1.00, 0.00, -0.00, -1.00, 240.3, 2.0)">r</text><text xml:space="preserve" font-family="IowanOldStyle-Roman" font-size="29.0" fill="#000000" transform="matrix(1.00, 0.00, -0.00, -1.00, 251.6, 2.0)">e</text><text xml:space="preserve" font-family="IowanOldStyle-Roman" font-size="29.0" fill="#000000" transform="matrix(1.00, 0.00, -0.00, -1.00, 265.8, 2.0)">m</text><text xml:space="preserve" font-family="IowanOldStyle-Roman" font-size="29.0" fill="#000000" transform="matrix(1.00, 0.00, -0.00, -1.00, 291.3, 2.0)">e</text><text xml:space="preserve" font-family="IowanOldStyle-Roman" font-size="29.0" fill="#000000" transform="matrix(1.00, 0.00, -0.00, -1.00, 305.4, 2.0)">n</text><text xml:space="preserve" font-family="IowanOldStyle-Roman" font-size="29.0" fill="#000000" transform="matrix(1.00, 0.00, -0.00, -1.00, 322.4, 2.0)">t</text><text xml:space="preserve" font-family="IowanOldStyle-Roman" font-size="29.0" fill="#000000" transform="matrix(1.00, 0.00, -0.00, -1.00, 332.8, 2.0)">s</text><text xml:space="preserve" font-family="IowanOldStyle-Roman" font-size="29.0" fill="#000000" transform="matrix(1.00, 0.00, -0.00, -1.00, 345.7, 2.0)">:</text></g></svg>