<?xml version="1.0" encoding="UTF-8" standalone="no"?><svg xmlns="http://www.w3.org/2000/svg" xmlns:xlink="http://www.w3.org/1999/xlink" clip-rule="evenodd" stroke-miterlimit="4.00" viewBox="0 0 420 25"><desc>SVG generated by Keynote</desc><defs></defs><g transform="matrix(1.00, 0.00, -0.00, -1.00, 0.0, 25.0)"><text xml:space="preserve" font-family="IowanOldStyle-Roman" font-size="15.9" fill="#000000" transform="matrix(1.00, 0.00, -0.00, -1.00, 0.0, 7.7)">•</text><text xml:space="preserve" font-family="IowanOldStyle-Roman" font-size="19.4" fill="#000000" transform="matrix(1.00, 0.00, -0.00, -1.00, 17.0, 6.0)">U</text><text xml:space="preserve" font-family="IowanOldStyle-Roman" font-size="19.4" fill="#000000" transform="matrix(1.00, 0.00, -0.00, -1.00, 32.3, 6.0)">s</text><text xml:space="preserve" font-family="IowanOldStyle-Roman" font-size="19.4" fill="#000000" transform="matrix(1.00, 0.00, -0.00, -1.00, 40.8, 6.0)">e</text><text xml:space="preserve" font-family="IowanOldStyle-Roman" font-size="19.4" fill="#000000" transform="matrix(1.00, 0.00, -0.00, -1.00, 50.3, 6.0)">r</text><text xml:space="preserve" font-family="IowanOldStyle-Roman" font-size="19.4" fill="#000000" transform="matrix(1.00, 0.00, -0.00, -1.00, 57.8, 6.0)">s</text><text xml:space="preserve" font-family="IowanOldStyle-Roman" font-size="19.4" fill="#000000" transform="matrix(1.00, 0.00, -0.00, -1.00, 66.4, 6.0)"> </text><text xml:space="preserve" font-family="IowanOldStyle-Roman" font-size="19.4" fill="#000000" transform="matrix(1.00, 0.00, -0.00, -1.00, 71.8, 6.0)">w</text><text xml:space="preserve" font-family="IowanOldStyle-Roman" font-size="19.4" fill="#000000" transform="matrix(1.00, 0.00, -0.00, -1.00, 86.8, 6.0)">a</text><text xml:space="preserve" font-family="IowanOldStyle-Roman" font-size="19.4" fill="#000000" transform="matrix(1.00, 0.00, -0.00, -1.00, 96.1, 6.0)">n</text><text xml:space="preserve" font-family="IowanOldStyle-Roman" font-size="19.4" fill="#000000" transform="matrix(1.00, 0.00, -0.00, -1.00, 107.5, 6.0)">t</text><text xml:space="preserve" font-family="IowanOldStyle-Roman" font-size="19.4" fill="#000000" transform="matrix(1.00, 0.00, -0.00, -1.00, 114.4, 6.0)"> </text><text xml:space="preserve" font-family="IowanOldStyle-Roman" font-size="19.4" fill="#000000" transform="matrix(1.00, 0.00, -0.00, -1.00, 119.8, 6.0)">a</text><text xml:space="preserve" font-family="IowanOldStyle-Roman" font-size="19.4" fill="#000000" transform="matrix(1.00, 0.00, -0.00, -1.00, 129.1, 6.0)">n</text><text xml:space="preserve" font-family="IowanOldStyle-Roman" font-size="19.4" fill="#000000" transform="matrix(1.00, 0.00, -0.00, -1.00, 140.5, 6.0)"> </text><text xml:space="preserve" font-family="IowanOldStyle-Roman" font-size="19.4" fill="#000000" transform="matrix(1.00, 0.00, -0.00, -1.00, 145.8, 6.0)">e</text><text xml:space="preserve" font-family="IowanOldStyle-Roman" font-size="19.4" fill="#000000" transform="matrix(1.00, 0.00, -0.00, -1.00, 155.3, 6.0)">a</text><text xml:space="preserve" font-family="IowanOldStyle-Roman" font-size="19.4" fill="#000000" transform="matrix(1.00, 0.00, -0.00, -1.00, 164.6, 6.0)">s</text><text xml:space="preserve" font-family="IowanOldStyle-Roman" font-size="19.4" fill="#000000" transform="matrix(1.00, 0.00, -0.00, -1.00, 173.2, 6.0)">y</text><text xml:space="preserve" font-family="IowanOldStyle-Roman" font-size="19.4" fill="#000000" transform="matrix(1.00, 0.00, -0.00, -1.00, 182.6, 6.0)"> </text><text xml:space="preserve" font-family="IowanOldStyle-Roman" font-size="19.4" fill="#000000" transform="matrix(1.00, 0.00, -0.00, -1.00, 188.0, 6.0)">a</text><text xml:space="preserve" font-family="IowanOldStyle-Roman" font-size="19.4" fill="#000000" transform="matrix(1.00, 0.00, -0.00, -1.00, 197.3, 6.0)">n</text><text xml:space="preserve" font-family="IowanOldStyle-Roman" font-size="19.4" fill="#000000" transform="matrix(1.00, 0.00, -0.00, -1.00, 208.6, 6.0)">d</text><text xml:space="preserve" font-family="IowanOldStyle-Roman" font-size="19.4" fill="#000000" transform="matrix(1.00, 0.00, -0.00, -1.00, 219.5, 6.0)"> </text><text xml:space="preserve" font-family="IowanOldStyle-Roman" font-size="19.4" fill="#000000" transform="matrix(1.00, 0.00, -0.00, -1.00, 224.9, 6.0)">s</text><text xml:space="preserve" font-family="IowanOldStyle-Roman" font-size="19.4" fill="#000000" transform="matrix(1.00, 0.00, -0.00, -1.00, 233.5, 6.0)">t</text><text xml:space="preserve" font-family="IowanOldStyle-Roman" font-size="19.4" fill="#000000" transform="matrix(1.00, 0.00, -0.00, -1.00, 240.4, 6.0)">r</text><text xml:space="preserve" font-family="IowanOldStyle-Roman" font-size="19.4" fill="#000000" transform="matrix(1.00, 0.00, -0.00, -1.00, 248.0, 6.0)">a</text><text xml:space="preserve" font-family="IowanOldStyle-Roman" font-size="19.4" fill="#000000" transform="matrix(1.00, 0.00, -0.00, -1.00, 257.3, 6.0)">i</text><text xml:space="preserve" font-family="IowanOldStyle-Roman" font-size="19.4" fill="#000000" transform="matrix(1.00, 0.00, -0.00, -1.00, 263.1, 6.0)">g</text><text xml:space="preserve" font-family="IowanOldStyle-Roman" font-size="19.4" fill="#000000" transform="matrix(1.00, 0.00, -0.00, -1.00, 273.1, 6.0)">h</text><text xml:space="preserve" font-family="IowanOldStyle-Roman" font-size="19.4" fill="#000000" transform="matrix(1.00, 0.00, -0.00, -1.00, 284.4, 6.0)">t</text><text xml:space="preserve" font-family="IowanOldStyle-Roman" font-size="19.4" fill="#000000" transform="matrix(1.00, 0.00, -0.00, -1.00, 291.4, 6.0)">f</text><text xml:space="preserve" font-family="IowanOldStyle-Roman" font-size="19.4" fill="#000000" transform="matrix(1.00, 0.00, -0.00, -1.00, 297.6, 6.0)">o</text><text xml:space="preserve" font-family="IowanOldStyle-Roman" font-size="19.4" fill="#000000" transform="matrix(1.00, 0.00, -0.00, -1.00, 308.3, 6.0)">r</text><text xml:space="preserve" font-family="IowanOldStyle-Roman" font-size="19.4" fill="#000000" transform="matrix(1.00, 0.00, -0.00, -1.00, 316.2, 6.0)">w</text><text xml:space="preserve" font-family="IowanOldStyle-Roman" font-size="19.4" fill="#000000" transform="matrix(1.00, 0.00, -0.00, -1.00, 331.2, 6.0)">a</text><text xml:space="preserve" font-family="IowanOldStyle-Roman" font-size="19.4" fill="#000000" transform="matrix(1.00, 0.00, -0.00, -1.00, 340.5, 6.0)">r</text><text xml:space="preserve" font-family="IowanOldStyle-Roman" font-size="19.4" fill="#000000" transform="matrix(1.00, 0.00, -0.00, -1.00, 348.1, 6.0)">d</text><text xml:space="preserve" font-family="IowanOldStyle-Roman" font-size="19.4" fill="#000000" transform="matrix(1.00, 0.00, -0.00, -1.00, 359.0, 6.0)"> </text><text xml:space="preserve" font-family="IowanOldStyle-Roman" font-size="19.4" fill="#000000" transform="matrix(1.00, 0.00, -0.00, -1.00, 364.4, 6.0)">r</text><text xml:space="preserve" font-family="IowanOldStyle-Roman" font-size="19.4" fill="#000000" transform="matrix(1.00, 0.00, -0.00, -1.00, 371.9, 6.0)">e</text><text xml:space="preserve" font-family="IowanOldStyle-Roman" font-size="19.4" fill="#000000" transform="matrix(1.00, 0.00, -0.00, -1.00, 381.4, 6.0)">t</text><text xml:space="preserve" font-family="IowanOldStyle-Roman" font-size="19.4" fill="#000000" transform="matrix(1.00, 0.00, -0.00, -1.00, 388.4, 6.0)">u</text><text xml:space="preserve" font-family="IowanOldStyle-Roman" font-size="19.4" fill="#000000" transform="matrix(1.00, 0.00, -0.00, -1.00, 399.7, 6.0)">r</text><text xml:space="preserve" font-family="IowanOldStyle-Roman" font-size="19.4" fill="#000000" transform="matrix(1.00, 0.00, -0.00, -1.00, 407.3, 6.0)">n</text></g></svg>