<?xml version="1.0" encoding="UTF-8" standalone="no"?><svg xmlns="http://www.w3.org/2000/svg" xmlns:xlink="http://www.w3.org/1999/xlink" clip-rule="evenodd" stroke-miterlimit="4.00" viewBox="0 0 310 25"><desc>SVG generated by Keynote</desc><defs></defs><g transform="matrix(1.00, 0.00, -0.00, -1.00, 0.0, 25.0)"><text xml:space="preserve" font-family="IowanOldStyle-Roman" font-size="15.9" fill="#000000" transform="matrix(1.00, 0.00, -0.00, -1.00, 0.0, 7.7)">•</text><text xml:space="preserve" font-family="IowanOldStyle-Roman" font-size="19.4" fill="#000000" transform="matrix(1.00, 0.00, -0.00, -1.00, 17.0, 6.0)">U</text><text xml:space="preserve" font-family="IowanOldStyle-Roman" font-size="19.4" fill="#000000" transform="matrix(1.00, 0.00, -0.00, -1.00, 32.3, 6.0)">s</text><text xml:space="preserve" font-family="IowanOldStyle-Roman" font-size="19.4" fill="#000000" transform="matrix(1.00, 0.00, -0.00, -1.00, 40.8, 6.0)">e</text><text xml:space="preserve" font-family="IowanOldStyle-Roman" font-size="19.4" fill="#000000" transform="matrix(1.00, 0.00, -0.00, -1.00, 50.3, 6.0)">r</text><text xml:space="preserve" font-family="IowanOldStyle-Roman" font-size="19.4" fill="#000000" transform="matrix(1.00, 0.00, -0.00, -1.00, 57.8, 6.0)">s</text><text xml:space="preserve" font-family="IowanOldStyle-Roman" font-size="19.4" fill="#000000" transform="matrix(1.00, 0.00, -0.00, -1.00, 66.4, 6.0)"> </text><text xml:space="preserve" font-family="IowanOldStyle-Roman" font-size="19.4" fill="#000000" transform="matrix(1.00, 0.00, -0.00, -1.00, 71.8, 6.0)">v</text><text xml:space="preserve" font-family="IowanOldStyle-Roman" font-size="19.4" fill="#000000" transform="matrix(1.00, 0.00, -0.00, -1.00, 81.3, 6.0)">a</text><text xml:space="preserve" font-family="IowanOldStyle-Roman" font-size="19.4" fill="#000000" transform="matrix(1.00, 0.00, -0.00, -1.00, 90.7, 6.0)">l</text><text xml:space="preserve" font-family="IowanOldStyle-Roman" font-size="19.4" fill="#000000" transform="matrix(1.00, 0.00, -0.00, -1.00, 96.3, 6.0)">u</text><text xml:space="preserve" font-family="IowanOldStyle-Roman" font-size="19.4" fill="#000000" transform="matrix(1.00, 0.00, -0.00, -1.00, 107.7, 6.0)">e</text><text xml:space="preserve" font-family="IowanOldStyle-Roman" font-size="19.4" fill="#000000" transform="matrix(1.00, 0.00, -0.00, -1.00, 117.2, 6.0)"> </text><text xml:space="preserve" font-family="IowanOldStyle-Roman" font-size="19.4" fill="#000000" transform="matrix(1.00, 0.00, -0.00, -1.00, 122.5, 6.0)">t</text><text xml:space="preserve" font-family="IowanOldStyle-Roman" font-size="19.4" fill="#000000" transform="matrix(1.00, 0.00, -0.00, -1.00, 129.5, 6.0)">h</text><text xml:space="preserve" font-family="IowanOldStyle-Roman" font-size="19.4" fill="#000000" transform="matrix(1.00, 0.00, -0.00, -1.00, 140.9, 6.0)">e</text><text xml:space="preserve" font-family="IowanOldStyle-Roman" font-size="19.4" fill="#000000" transform="matrix(1.00, 0.00, -0.00, -1.00, 150.3, 6.0)">i</text><text xml:space="preserve" font-family="IowanOldStyle-Roman" font-size="19.4" fill="#000000" transform="matrix(1.00, 0.00, -0.00, -1.00, 156.1, 6.0)">r</text><text xml:space="preserve" font-family="IowanOldStyle-Roman" font-size="19.4" fill="#000000" transform="matrix(1.00, 0.00, -0.00, -1.00, 163.6, 6.0)"> </text><text xml:space="preserve" font-family="IowanOldStyle-Roman" font-size="19.4" fill="#000000" transform="matrix(1.00, 0.00, -0.00, -1.00, 169.0, 6.0)">t</text><text xml:space="preserve" font-family="IowanOldStyle-Roman" font-size="19.4" fill="#000000" transform="matrix(1.00, 0.00, -0.00, -1.00, 176.0, 6.0)">i</text><text xml:space="preserve" font-family="IowanOldStyle-Roman" font-size="19.4" fill="#000000" transform="matrix(1.00, 0.00, -0.00, -1.00, 181.7, 6.0)">m</text><text xml:space="preserve" font-family="IowanOldStyle-Roman" font-size="19.4" fill="#000000" transform="matrix(1.00, 0.00, -0.00, -1.00, 198.8, 6.0)">e</text><text xml:space="preserve" font-family="IowanOldStyle-Roman" font-size="19.4" fill="#000000" transform="matrix(1.00, 0.00, -0.00, -1.00, 208.2, 6.0)"> </text><text xml:space="preserve" font-family="IowanOldStyle-Roman" font-size="19.4" fill="#000000" transform="matrix(1.00, 0.00, -0.00, -1.00, 213.6, 6.0)">a</text><text xml:space="preserve" font-family="IowanOldStyle-Roman" font-size="19.4" fill="#000000" transform="matrix(1.00, 0.00, -0.00, -1.00, 222.9, 6.0)">n</text><text xml:space="preserve" font-family="IowanOldStyle-Roman" font-size="19.4" fill="#000000" transform="matrix(1.00, 0.00, -0.00, -1.00, 234.2, 6.0)">d</text><text xml:space="preserve" font-family="IowanOldStyle-Roman" font-size="19.4" fill="#000000" transform="matrix(1.00, 0.00, -0.00, -1.00, 245.1, 6.0)"> </text><text xml:space="preserve" font-family="IowanOldStyle-Roman" font-size="19.4" fill="#000000" transform="matrix(1.00, 0.00, -0.00, -1.00, 250.5, 6.0)">m</text><text xml:space="preserve" font-family="IowanOldStyle-Roman" font-size="19.4" fill="#000000" transform="matrix(1.00, 0.00, -0.00, -1.00, 267.6, 6.0)">o</text><text xml:space="preserve" font-family="IowanOldStyle-Roman" font-size="19.4" fill="#000000" transform="matrix(1.00, 0.00, -0.00, -1.00, 278.2, 6.0)">n</text><text xml:space="preserve" font-family="IowanOldStyle-Roman" font-size="19.4" fill="#000000" transform="matrix(1.00, 0.00, -0.00, -1.00, 289.6, 6.0)">e</text><text xml:space="preserve" font-family="IowanOldStyle-Roman" font-size="19.4" fill="#000000" transform="matrix(1.00, 0.00, -0.00, -1.00, 299.0, 6.0)">y</text></g></svg>