<?xml version="1.0" encoding="UTF-8" standalone="no"?><svg xmlns="http://www.w3.org/2000/svg" xmlns:xlink="http://www.w3.org/1999/xlink" clip-rule="evenodd" stroke-miterlimit="4.00" viewBox="0 0 652 53"><desc>SVG generated by Keynote</desc><defs></defs><g transform="matrix(1.00, 0.00, -0.00, -1.00, 0.0, 53.0)"><text xml:space="preserve" font-family="IowanOldStyle-Roman" font-size="68.4" fill="#000000" transform="matrix(1.00, 0.00, -0.00, -1.00, -1.0, 3.0)">B</text><text xml:space="preserve" font-family="IowanOldStyle-Roman" font-size="68.4" fill="#000000" transform="matrix(1.00, 0.00, -0.00, -1.00, 41.6, 3.0)">R</text><text xml:space="preserve" font-family="IowanOldStyle-Roman" font-size="68.4" fill="#000000" transform="matrix(1.00, 0.00, -0.00, -1.00, 89.7, 3.0)">A</text><text xml:space="preserve" font-family="IowanOldStyle-Roman" font-size="68.4" fill="#000000" transform="matrix(1.00, 0.00, -0.00, -1.00, 139.1, 3.0)">N</text><text xml:space="preserve" font-family="IowanOldStyle-Roman" font-size="68.4" fill="#000000" transform="matrix(1.00, 0.00, -0.00, -1.00, 194.3, 3.0)">D</text><text xml:space="preserve" font-family="IowanOldStyle-Roman" font-size="68.4" fill="#000000" transform="matrix(1.00, 0.00, -0.00, -1.00, 247.8, 3.0)"> </text><text xml:space="preserve" font-family="IowanOldStyle-Roman" font-size="68.4" fill="#000000" transform="matrix(1.00, 0.00, -0.00, -1.00, 266.8, 3.0)">G</text><text xml:space="preserve" font-family="IowanOldStyle-Roman" font-size="68.4" fill="#000000" transform="matrix(1.00, 0.00, -0.00, -1.00, 317.5, 3.0)">U</text><text xml:space="preserve" font-family="IowanOldStyle-Roman" font-size="68.4" fill="#000000" transform="matrix(1.00, 0.00, -0.00, -1.00, 371.4, 3.0)">I</text><text xml:space="preserve" font-family="IowanOldStyle-Roman" font-size="68.4" fill="#000000" transform="matrix(1.00, 0.00, -0.00, -1.00, 394.6, 3.0)">D</text><text xml:space="preserve" font-family="IowanOldStyle-Roman" font-size="68.4" fill="#000000" transform="matrix(1.00, 0.00, -0.00, -1.00, 448.0, 3.0)">E</text><text xml:space="preserve" font-family="IowanOldStyle-Roman" font-size="68.4" fill="#000000" transform="matrix(1.00, 0.00, -0.00, -1.00, 491.4, 3.0)">L</text><text xml:space="preserve" font-family="IowanOldStyle-Roman" font-size="68.4" fill="#000000" transform="matrix(1.00, 0.00, -0.00, -1.00, 530.5, 3.0)">I</text><text xml:space="preserve" font-family="IowanOldStyle-Roman" font-size="68.4" fill="#000000" transform="matrix(1.00, 0.00, -0.00, -1.00, 553.8, 3.0)">N</text><text xml:space="preserve" font-family="IowanOldStyle-Roman" font-size="68.4" fill="#000000" transform="matrix(1.00, 0.00, -0.00, -1.00, 609.1, 3.0)">E</text></g></svg>