<?xml version="1.0" encoding="UTF-8" standalone="no"?><svg xmlns="http://www.w3.org/2000/svg" xmlns:xlink="http://www.w3.org/1999/xlink" clip-rule="evenodd" stroke-miterlimit="4.00" viewBox="0 0 731 48"><desc>SVG generated by Keynote</desc><defs></defs><g transform="matrix(1.00, 0.00, -0.00, -1.00, 0.0, 48.0)"><text xml:space="preserve" font-family="IowanOldStyle-Roman" font-size="59.8" fill="#000000" transform="matrix(1.00, 0.00, -0.00, -1.00, 1.0, 3.0)">2</text><text xml:space="preserve" font-family="IowanOldStyle-Roman" font-size="59.8" fill="#000000" transform="matrix(1.00, 0.00, -0.00, -1.00, 34.2, 3.0)">0</text><text xml:space="preserve" font-family="IowanOldStyle-Roman" font-size="59.8" fill="#000000" transform="matrix(1.00, 0.00, -0.00, -1.00, 67.5, 3.0)">1</text><text xml:space="preserve" font-family="IowanOldStyle-Roman" font-size="59.8" fill="#000000" transform="matrix(1.00, 0.00, -0.00, -1.00, 100.7, 3.0)">6</text><text xml:space="preserve" font-family="IowanOldStyle-Roman" font-size="59.8" fill="#000000" transform="matrix(1.00, 0.00, -0.00, -1.00, 134.0, 3.0)"> </text><text xml:space="preserve" font-family="IowanOldStyle-Roman" font-size="59.8" fill="#000000" transform="matrix(1.00, 0.00, -0.00, -1.00, 150.6, 3.0)">S</text><text xml:space="preserve" font-family="IowanOldStyle-Roman" font-size="59.8" fill="#000000" transform="matrix(1.00, 0.00, -0.00, -1.00, 182.9, 3.0)">A</text><text xml:space="preserve" font-family="IowanOldStyle-Roman" font-size="59.8" fill="#000000" transform="matrix(1.00, 0.00, -0.00, -1.00, 221.2, 3.0)">V</text><text xml:space="preserve" font-family="IowanOldStyle-Roman" font-size="59.8" fill="#000000" transform="matrix(1.00, 0.00, -0.00, -1.00, 258.0, 3.0)">A</text><text xml:space="preserve" font-family="IowanOldStyle-Roman" font-size="59.8" fill="#000000" transform="matrix(1.00, 0.00, -0.00, -1.00, 301.2, 3.0)">G</text><text xml:space="preserve" font-family="IowanOldStyle-Roman" font-size="59.8" fill="#000000" transform="matrix(1.00, 0.00, -0.00, -1.00, 345.6, 3.0)">E</text><text xml:space="preserve" font-family="IowanOldStyle-Roman" font-size="59.8" fill="#000000" transform="matrix(1.00, 0.00, -0.00, -1.00, 383.4, 3.0)"> </text><text xml:space="preserve" font-family="IowanOldStyle-Roman" font-size="59.8" fill="#000000" transform="matrix(1.00, 0.00, -0.00, -1.00, 400.0, 3.0)">B</text><text xml:space="preserve" font-family="IowanOldStyle-Roman" font-size="59.8" fill="#000000" transform="matrix(1.00, 0.00, -0.00, -1.00, 437.2, 3.0)">L</text><text xml:space="preserve" font-family="IowanOldStyle-Roman" font-size="59.8" fill="#000000" transform="matrix(1.00, 0.00, -0.00, -1.00, 472.4, 3.0)">A</text><text xml:space="preserve" font-family="IowanOldStyle-Roman" font-size="59.8" fill="#000000" transform="matrix(1.00, 0.00, -0.00, -1.00, 515.6, 3.0)">C</text><text xml:space="preserve" font-family="IowanOldStyle-Roman" font-size="59.8" fill="#000000" transform="matrix(1.00, 0.00, -0.00, -1.00, 557.9, 3.0)">K</text><text xml:space="preserve" font-family="IowanOldStyle-Roman" font-size="59.8" fill="#000000" transform="matrix(1.00, 0.00, -0.00, -1.00, 598.2, 3.0)">O</text><text xml:space="preserve" font-family="IowanOldStyle-Roman" font-size="59.8" fill="#000000" transform="matrix(1.00, 0.00, -0.00, -1.00, 646.1, 3.0)">U</text><text xml:space="preserve" font-family="IowanOldStyle-Roman" font-size="59.8" fill="#000000" transform="matrix(1.00, 0.00, -0.00, -1.00, 693.2, 3.0)">T</text></g></svg>