<?xml version="1.0" encoding="UTF-8" standalone="no"?><svg xmlns="http://www.w3.org/2000/svg" xmlns:xlink="http://www.w3.org/1999/xlink" clip-rule="evenodd" stroke-miterlimit="4.00" viewBox="0 0 511 45"><desc>SVG generated by Keynote</desc><defs></defs><g transform="matrix(1.00, 0.00, -0.00, -1.00, 0.0, 45.0)"><text xml:space="preserve" font-family="IowanOldStyle-Roman" font-size="41.9" fill="#000000" transform="matrix(1.00, 0.00, -0.00, -1.00, 0.0, 12.0)">i</text><text xml:space="preserve" font-family="IowanOldStyle-Roman" font-size="41.9" fill="#000000" transform="matrix(1.00, 0.00, -0.00, -1.00, 12.4, 12.0)">n</text><text xml:space="preserve" font-family="IowanOldStyle-Roman" font-size="41.9" fill="#000000" transform="matrix(1.00, 0.00, -0.00, -1.00, 36.9, 12.0)">-</text><text xml:space="preserve" font-family="IowanOldStyle-Roman" font-size="41.9" fill="#000000" transform="matrix(1.00, 0.00, -0.00, -1.00, 51.5, 12.0)">l</text><text xml:space="preserve" font-family="IowanOldStyle-Roman" font-size="41.9" fill="#000000" transform="matrix(1.00, 0.00, -0.00, -1.00, 63.8, 12.0)">i</text><text xml:space="preserve" font-family="IowanOldStyle-Roman" font-size="41.9" fill="#000000" transform="matrix(1.00, 0.00, -0.00, -1.00, 76.2, 12.0)">n</text><text xml:space="preserve" font-family="IowanOldStyle-Roman" font-size="41.9" fill="#000000" transform="matrix(1.00, 0.00, -0.00, -1.00, 100.6, 12.0)">e</text><text xml:space="preserve" font-family="IowanOldStyle-Roman" font-size="41.9" fill="#000000" transform="matrix(1.00, 0.00, -0.00, -1.00, 121.0, 12.0)"> </text><text xml:space="preserve" font-family="IowanOldStyle-Roman" font-size="41.9" fill="#000000" transform="matrix(1.00, 0.00, -0.00, -1.00, 132.7, 12.0)">w</text><text xml:space="preserve" font-family="IowanOldStyle-Roman" font-size="41.9" fill="#000000" transform="matrix(1.00, 0.00, -0.00, -1.00, 165.1, 12.0)">i</text><text xml:space="preserve" font-family="IowanOldStyle-Roman" font-size="41.9" fill="#000000" transform="matrix(1.00, 0.00, -0.00, -1.00, 177.5, 12.0)">t</text><text xml:space="preserve" font-family="IowanOldStyle-Roman" font-size="41.9" fill="#000000" transform="matrix(1.00, 0.00, -0.00, -1.00, 192.6, 12.0)">h</text><text xml:space="preserve" font-family="IowanOldStyle-Roman" font-size="41.9" fill="#000000" transform="matrix(1.00, 0.00, -0.00, -1.00, 217.1, 12.0)"> </text><text xml:space="preserve" font-family="IowanOldStyle-Roman" font-size="41.9" fill="#000000" transform="matrix(1.00, 0.00, -0.00, -1.00, 228.7, 12.0)">t</text><text xml:space="preserve" font-family="IowanOldStyle-Roman" font-size="41.9" fill="#000000" transform="matrix(1.00, 0.00, -0.00, -1.00, 243.8, 12.0)">h</text><text xml:space="preserve" font-family="IowanOldStyle-Roman" font-size="41.9" fill="#000000" transform="matrix(1.00, 0.00, -0.00, -1.00, 268.3, 12.0)">e</text><text xml:space="preserve" font-family="IowanOldStyle-Roman" font-size="41.9" fill="#000000" transform="matrix(1.00, 0.00, -0.00, -1.00, 288.7, 12.0)"> </text><text xml:space="preserve" font-family="IowanOldStyle-Roman" font-size="41.9" fill="#000000" transform="matrix(1.00, 0.00, -0.00, -1.00, 300.3, 12.0)">u</text><text xml:space="preserve" font-family="IowanOldStyle-Roman" font-size="41.9" fill="#000000" transform="matrix(1.00, 0.00, -0.00, -1.00, 324.9, 12.0)">s</text><text xml:space="preserve" font-family="IowanOldStyle-Roman" font-size="41.9" fill="#000000" transform="matrix(1.00, 0.00, -0.00, -1.00, 343.5, 12.0)">e</text><text xml:space="preserve" font-family="IowanOldStyle-Roman" font-size="41.9" fill="#000000" transform="matrix(1.00, 0.00, -0.00, -1.00, 363.9, 12.0)">r</text><text xml:space="preserve" font-family="IowanOldStyle-Roman" font-size="41.9" fill="#000000" transform="matrix(1.00, 0.00, -0.00, -1.00, 382.0, 12.0)">’</text><text xml:space="preserve" font-family="IowanOldStyle-Roman" font-size="41.9" fill="#000000" transform="matrix(1.00, 0.00, -0.00, -1.00, 393.6, 12.0)">s</text><text xml:space="preserve" font-family="IowanOldStyle-Roman" font-size="41.9" fill="#000000" transform="matrix(1.00, 0.00, -0.00, -1.00, 412.1, 12.0)"> </text><text xml:space="preserve" font-family="IowanOldStyle-Roman" font-size="41.9" fill="#000000" transform="matrix(1.00, 0.00, -0.00, -1.00, 423.7, 12.0)">s</text><text xml:space="preserve" font-family="IowanOldStyle-Roman" font-size="41.9" fill="#000000" transform="matrix(1.00, 0.00, -0.00, -1.00, 442.3, 12.0)">t</text><text xml:space="preserve" font-family="IowanOldStyle-Roman" font-size="41.9" fill="#000000" transform="matrix(1.00, 0.00, -0.00, -1.00, 457.3, 12.0)">y</text><text xml:space="preserve" font-family="IowanOldStyle-Roman" font-size="41.9" fill="#000000" transform="matrix(1.00, 0.00, -0.00, -1.00, 477.7, 12.0)">l</text><text xml:space="preserve" font-family="IowanOldStyle-Roman" font-size="41.9" fill="#000000" transform="matrix(1.00, 0.00, -0.00, -1.00, 489.9, 12.0)">e</text></g></svg>