<?xml version="1.0" encoding="UTF-8" standalone="no"?><svg xmlns="http://www.w3.org/2000/svg" xmlns:xlink="http://www.w3.org/1999/xlink" clip-rule="evenodd" stroke-miterlimit="4.00" viewBox="0 0 777 44"><desc>SVG generated by Keynote</desc><defs></defs><g transform="matrix(1.00, 0.00, -0.00, -1.00, 0.0, 44.0)"><text xml:space="preserve" font-family="IowanOldStyle-Roman" font-size="40.5" fill="#000000" transform="matrix(1.00, 0.00, -0.00, -1.00, 0.0, 12.0)">f</text><text xml:space="preserve" font-family="IowanOldStyle-Roman" font-size="40.5" fill="#000000" transform="matrix(1.00, 0.00, -0.00, -1.00, 12.9, 12.0)">a</text><text xml:space="preserve" font-family="IowanOldStyle-Roman" font-size="40.5" fill="#000000" transform="matrix(1.00, 0.00, -0.00, -1.00, 32.4, 12.0)">n</text><text xml:space="preserve" font-family="IowanOldStyle-Roman" font-size="40.5" fill="#000000" transform="matrix(1.00, 0.00, -0.00, -1.00, 56.0, 12.0)"> </text><text xml:space="preserve" font-family="IowanOldStyle-Roman" font-size="40.5" fill="#000000" transform="matrix(1.00, 0.00, -0.00, -1.00, 67.3, 12.0)">a</text><text xml:space="preserve" font-family="IowanOldStyle-Roman" font-size="40.5" fill="#000000" transform="matrix(1.00, 0.00, -0.00, -1.00, 86.8, 12.0)">p</text><text xml:space="preserve" font-family="IowanOldStyle-Roman" font-size="40.5" fill="#000000" transform="matrix(1.00, 0.00, -0.00, -1.00, 109.4, 12.0)">p</text><text xml:space="preserve" font-family="IowanOldStyle-Roman" font-size="40.5" fill="#000000" transform="matrix(1.00, 0.00, -0.00, -1.00, 132.1, 12.0)">a</text><text xml:space="preserve" font-family="IowanOldStyle-Roman" font-size="40.5" fill="#000000" transform="matrix(1.00, 0.00, -0.00, -1.00, 151.6, 12.0)">r</text><text xml:space="preserve" font-family="IowanOldStyle-Roman" font-size="40.5" fill="#000000" transform="matrix(1.00, 0.00, -0.00, -1.00, 167.4, 12.0)">e</text><text xml:space="preserve" font-family="IowanOldStyle-Roman" font-size="40.5" fill="#000000" transform="matrix(1.00, 0.00, -0.00, -1.00, 187.1, 12.0)">l</text><text xml:space="preserve" font-family="IowanOldStyle-Roman" font-size="40.5" fill="#000000" transform="matrix(1.00, 0.00, -0.00, -1.00, 198.9, 12.0)"> </text><text xml:space="preserve" font-family="IowanOldStyle-Roman" font-size="40.5" fill="#000000" transform="matrix(1.00, 0.00, -0.00, -1.00, 210.2, 12.0)">o</text><text xml:space="preserve" font-family="IowanOldStyle-Roman" font-size="40.5" fill="#000000" transform="matrix(1.00, 0.00, -0.00, -1.00, 232.5, 12.0)">f</text><text xml:space="preserve" font-family="IowanOldStyle-Roman" font-size="40.5" fill="#000000" transform="matrix(1.00, 0.00, -0.00, -1.00, 245.4, 12.0)"> </text><text xml:space="preserve" font-family="IowanOldStyle-Roman" font-size="40.5" fill="#000000" transform="matrix(1.00, 0.00, -0.00, -1.00, 256.6, 12.0)">v</text><text xml:space="preserve" font-family="IowanOldStyle-Roman" font-size="40.5" fill="#000000" transform="matrix(1.00, 0.00, -0.00, -1.00, 276.5, 12.0)">a</text><text xml:space="preserve" font-family="IowanOldStyle-Roman" font-size="40.5" fill="#000000" transform="matrix(1.00, 0.00, -0.00, -1.00, 296.0, 12.0)">r</text><text xml:space="preserve" font-family="IowanOldStyle-Roman" font-size="40.5" fill="#000000" transform="matrix(1.00, 0.00, -0.00, -1.00, 312.5, 12.0)">y</text><text xml:space="preserve" font-family="IowanOldStyle-Roman" font-size="40.5" fill="#000000" transform="matrix(1.00, 0.00, -0.00, -1.00, 332.2, 12.0)">i</text><text xml:space="preserve" font-family="IowanOldStyle-Roman" font-size="40.5" fill="#000000" transform="matrix(1.00, 0.00, -0.00, -1.00, 344.2, 12.0)">n</text><text xml:space="preserve" font-family="IowanOldStyle-Roman" font-size="40.5" fill="#000000" transform="matrix(1.00, 0.00, -0.00, -1.00, 367.9, 12.0)">g</text><text xml:space="preserve" font-family="IowanOldStyle-Roman" font-size="40.5" fill="#000000" transform="matrix(1.00, 0.00, -0.00, -1.00, 388.8, 12.0)"> </text><text xml:space="preserve" font-family="IowanOldStyle-Roman" font-size="40.5" fill="#000000" transform="matrix(1.00, 0.00, -0.00, -1.00, 400.0, 12.0)">s</text><text xml:space="preserve" font-family="IowanOldStyle-Roman" font-size="40.5" fill="#000000" transform="matrix(1.00, 0.00, -0.00, -1.00, 417.9, 12.0)">t</text><text xml:space="preserve" font-family="IowanOldStyle-Roman" font-size="40.5" fill="#000000" transform="matrix(1.00, 0.00, -0.00, -1.00, 432.5, 12.0)">y</text><text xml:space="preserve" font-family="IowanOldStyle-Roman" font-size="40.5" fill="#000000" transform="matrix(1.00, 0.00, -0.00, -1.00, 452.1, 12.0)">l</text><text xml:space="preserve" font-family="IowanOldStyle-Roman" font-size="40.5" fill="#000000" transform="matrix(1.00, 0.00, -0.00, -1.00, 464.0, 12.0)">e</text><text xml:space="preserve" font-family="IowanOldStyle-Roman" font-size="40.5" fill="#000000" transform="matrix(1.00, 0.00, -0.00, -1.00, 483.7, 12.0)">s</text><text xml:space="preserve" font-family="IowanOldStyle-Roman" font-size="40.5" fill="#000000" transform="matrix(1.00, 0.00, -0.00, -1.00, 501.6, 12.0)">,</text><text xml:space="preserve" font-family="IowanOldStyle-Roman" font-size="40.5" fill="#000000" transform="matrix(1.00, 0.00, -0.00, -1.00, 512.9, 12.0)"> </text><text xml:space="preserve" font-family="IowanOldStyle-Roman" font-size="40.5" fill="#000000" transform="matrix(1.00, 0.00, -0.00, -1.00, 524.1, 12.0)">ï¬</text><text xml:space="preserve" font-family="IowanOldStyle-Roman" font-size="40.5" fill="#000000" transform="matrix(1.00, 0.00, -0.00, -1.00, 548.0, 12.0)">t</text><text xml:space="preserve" font-family="IowanOldStyle-Roman" font-size="40.5" fill="#000000" transform="matrix(1.00, 0.00, -0.00, -1.00, 562.5, 12.0)">s</text><text xml:space="preserve" font-family="IowanOldStyle-Roman" font-size="40.5" fill="#000000" transform="matrix(1.00, 0.00, -0.00, -1.00, 580.4, 12.0)">,</text><text xml:space="preserve" font-family="IowanOldStyle-Roman" font-size="40.5" fill="#000000" transform="matrix(1.00, 0.00, -0.00, -1.00, 591.7, 12.0)"> </text><text xml:space="preserve" font-family="IowanOldStyle-Roman" font-size="40.5" fill="#000000" transform="matrix(1.00, 0.00, -0.00, -1.00, 602.9, 12.0)">a</text><text xml:space="preserve" font-family="IowanOldStyle-Roman" font-size="40.5" fill="#000000" transform="matrix(1.00, 0.00, -0.00, -1.00, 622.4, 12.0)">n</text><text xml:space="preserve" font-family="IowanOldStyle-Roman" font-size="40.5" fill="#000000" transform="matrix(1.00, 0.00, -0.00, -1.00, 646.0, 12.0)">d</text><text xml:space="preserve" font-family="IowanOldStyle-Roman" font-size="40.5" fill="#000000" transform="matrix(1.00, 0.00, -0.00, -1.00, 668.8, 12.0)"> </text><text xml:space="preserve" font-family="IowanOldStyle-Roman" font-size="40.5" fill="#000000" transform="matrix(1.00, 0.00, -0.00, -1.00, 680.0, 12.0)">s</text><text xml:space="preserve" font-family="IowanOldStyle-Roman" font-size="40.5" fill="#000000" transform="matrix(1.00, 0.00, -0.00, -1.00, 697.9, 12.0)">i</text><text xml:space="preserve" font-family="IowanOldStyle-Roman" font-size="40.5" fill="#000000" transform="matrix(1.00, 0.00, -0.00, -1.00, 710.0, 12.0)">z</text><text xml:space="preserve" font-family="IowanOldStyle-Roman" font-size="40.5" fill="#000000" transform="matrix(1.00, 0.00, -0.00, -1.00, 729.1, 12.0)">e</text><text xml:space="preserve" font-family="IowanOldStyle-Roman" font-size="40.5" fill="#000000" transform="matrix(1.00, 0.00, -0.00, -1.00, 748.8, 12.0)">s</text><text xml:space="preserve" font-family="IowanOldStyle-Roman" font-size="40.5" fill="#000000" transform="matrix(1.00, 0.00, -0.00, -1.00, 766.7, 12.0)">.</text></g></svg>