<?xml version="1.0" encoding="UTF-8" standalone="no"?><svg xmlns="http://www.w3.org/2000/svg" xmlns:xlink="http://www.w3.org/1999/xlink" clip-rule="evenodd" stroke-miterlimit="4.00" viewBox="0 0 846 50"><desc>SVG generated by Keynote</desc><defs></defs><g transform="matrix(1.00, 0.00, -0.00, -1.00, 0.0, 50.0)"><text xml:space="preserve" font-family="IowanOldStyle-Roman" font-size="33.2" fill="#000000" transform="matrix(1.00, 0.00, -0.00, -1.00, 0.0, 14.9)">•</text><text xml:space="preserve" font-family="IowanOldStyle-Roman" font-size="40.5" fill="#000000" transform="matrix(1.00, 0.00, -0.00, -1.00, 36.0, 12.0)">K</text><text xml:space="preserve" font-family="IowanOldStyle-Roman" font-size="40.5" fill="#000000" transform="matrix(1.00, 0.00, -0.00, -1.00, 63.0, 12.0)">e</text><text xml:space="preserve" font-family="IowanOldStyle-Roman" font-size="40.5" fill="#000000" transform="matrix(1.00, 0.00, -0.00, -1.00, 82.7, 12.0)">y</text><text xml:space="preserve" font-family="IowanOldStyle-Roman" font-size="40.5" fill="#000000" transform="matrix(1.00, 0.00, -0.00, -1.00, 102.4, 12.0)"> </text><text xml:space="preserve" font-family="IowanOldStyle-Roman" font-size="40.5" fill="#000000" transform="matrix(1.00, 0.00, -0.00, -1.00, 113.6, 12.0)">o</text><text xml:space="preserve" font-family="IowanOldStyle-Roman" font-size="40.5" fill="#000000" transform="matrix(1.00, 0.00, -0.00, -1.00, 135.9, 12.0)">b</text><text xml:space="preserve" font-family="IowanOldStyle-Roman" font-size="40.5" fill="#000000" transform="matrix(1.00, 0.00, -0.00, -1.00, 158.4, 12.0)">j</text><text xml:space="preserve" font-family="IowanOldStyle-Roman" font-size="40.5" fill="#000000" transform="matrix(1.00, 0.00, -0.00, -1.00, 169.5, 12.0)">e</text><text xml:space="preserve" font-family="IowanOldStyle-Roman" font-size="40.5" fill="#000000" transform="matrix(1.00, 0.00, -0.00, -1.00, 189.2, 12.0)">c</text><text xml:space="preserve" font-family="IowanOldStyle-Roman" font-size="40.5" fill="#000000" transform="matrix(1.00, 0.00, -0.00, -1.00, 207.3, 12.0)">t</text><text xml:space="preserve" font-family="IowanOldStyle-Roman" font-size="40.5" fill="#000000" transform="matrix(1.00, 0.00, -0.00, -1.00, 221.9, 12.0)">i</text><text xml:space="preserve" font-family="IowanOldStyle-Roman" font-size="40.5" fill="#000000" transform="matrix(1.00, 0.00, -0.00, -1.00, 233.9, 12.0)">v</text><text xml:space="preserve" font-family="IowanOldStyle-Roman" font-size="40.5" fill="#000000" transform="matrix(1.00, 0.00, -0.00, -1.00, 253.8, 12.0)">e</text><text xml:space="preserve" font-family="IowanOldStyle-Roman" font-size="40.5" fill="#000000" transform="matrix(1.00, 0.00, -0.00, -1.00, 273.5, 12.0)">:</text><text xml:space="preserve" font-family="IowanOldStyle-Roman" font-size="40.5" fill="#000000" transform="matrix(1.00, 0.00, -0.00, -1.00, 284.7, 12.0)"> </text><text xml:space="preserve" font-family="IowanOldStyle-Roman" font-size="40.5" fill="#000000" transform="matrix(1.00, 0.00, -0.00, -1.00, 296.0, 12.0)">T</text><text xml:space="preserve" font-family="IowanOldStyle-Roman" font-size="40.5" fill="#000000" transform="matrix(1.00, 0.00, -0.00, -1.00, 316.3, 12.0)">o</text><text xml:space="preserve" font-family="IowanOldStyle-Roman" font-size="40.5" fill="#000000" transform="matrix(1.00, 0.00, -0.00, -1.00, 338.6, 12.0)"> </text><text xml:space="preserve" font-family="IowanOldStyle-Roman" font-size="40.5" fill="#000000" transform="matrix(1.00, 0.00, -0.00, -1.00, 349.8, 12.0)">p</text><text xml:space="preserve" font-family="IowanOldStyle-Roman" font-size="40.5" fill="#000000" transform="matrix(1.00, 0.00, -0.00, -1.00, 372.5, 12.0)">r</text><text xml:space="preserve" font-family="IowanOldStyle-Roman" font-size="40.5" fill="#000000" transform="matrix(1.00, 0.00, -0.00, -1.00, 388.3, 12.0)">o</text><text xml:space="preserve" font-family="IowanOldStyle-Roman" font-size="40.5" fill="#000000" transform="matrix(1.00, 0.00, -0.00, -1.00, 410.6, 12.0)">v</text><text xml:space="preserve" font-family="IowanOldStyle-Roman" font-size="40.5" fill="#000000" transform="matrix(1.00, 0.00, -0.00, -1.00, 430.5, 12.0)">i</text><text xml:space="preserve" font-family="IowanOldStyle-Roman" font-size="40.5" fill="#000000" transform="matrix(1.00, 0.00, -0.00, -1.00, 442.5, 12.0)">d</text><text xml:space="preserve" font-family="IowanOldStyle-Roman" font-size="40.5" fill="#000000" transform="matrix(1.00, 0.00, -0.00, -1.00, 465.2, 12.0)">e</text><text xml:space="preserve" font-family="IowanOldStyle-Roman" font-size="40.5" fill="#000000" transform="matrix(1.00, 0.00, -0.00, -1.00, 485.0, 12.0)"> </text><text xml:space="preserve" font-family="IowanOldStyle-Roman" font-size="40.5" fill="#000000" transform="matrix(1.00, 0.00, -0.00, -1.00, 496.2, 12.0)">u</text><text xml:space="preserve" font-family="IowanOldStyle-Roman" font-size="40.5" fill="#000000" transform="matrix(1.00, 0.00, -0.00, -1.00, 520.0, 12.0)">s</text><text xml:space="preserve" font-family="IowanOldStyle-Roman" font-size="40.5" fill="#000000" transform="matrix(1.00, 0.00, -0.00, -1.00, 537.9, 12.0)">e</text><text xml:space="preserve" font-family="IowanOldStyle-Roman" font-size="40.5" fill="#000000" transform="matrix(1.00, 0.00, -0.00, -1.00, 557.7, 12.0)">r</text><text xml:space="preserve" font-family="IowanOldStyle-Roman" font-size="40.5" fill="#000000" transform="matrix(1.00, 0.00, -0.00, -1.00, 573.5, 12.0)">s</text><text xml:space="preserve" font-family="IowanOldStyle-Roman" font-size="40.5" fill="#000000" transform="matrix(1.00, 0.00, -0.00, -1.00, 591.4, 12.0)"> </text><text xml:space="preserve" font-family="IowanOldStyle-Roman" font-size="40.5" fill="#000000" transform="matrix(1.00, 0.00, -0.00, -1.00, 602.6, 12.0)">w</text><text xml:space="preserve" font-family="IowanOldStyle-Roman" font-size="40.5" fill="#000000" transform="matrix(1.00, 0.00, -0.00, -1.00, 634.0, 12.0)">i</text><text xml:space="preserve" font-family="IowanOldStyle-Roman" font-size="40.5" fill="#000000" transform="matrix(1.00, 0.00, -0.00, -1.00, 646.0, 12.0)">t</text><text xml:space="preserve" font-family="IowanOldStyle-Roman" font-size="40.5" fill="#000000" transform="matrix(1.00, 0.00, -0.00, -1.00, 660.6, 12.0)">h</text><text xml:space="preserve" font-family="IowanOldStyle-Roman" font-size="40.5" fill="#000000" transform="matrix(1.00, 0.00, -0.00, -1.00, 684.3, 12.0)"> </text><text xml:space="preserve" font-family="IowanOldStyle-Roman" font-size="40.5" fill="#000000" transform="matrix(1.00, 0.00, -0.00, -1.00, 695.5, 12.0)">a</text><text xml:space="preserve" font-family="IowanOldStyle-Roman" font-size="40.5" fill="#000000" transform="matrix(1.00, 0.00, -0.00, -1.00, 715.0, 12.0)"> </text><text xml:space="preserve" font-family="IowanOldStyle-Roman" font-size="40.5" fill="#000000" transform="matrix(1.00, 0.00, -0.00, -1.00, 726.2, 12.0)">s</text><text xml:space="preserve" font-family="IowanOldStyle-Roman" font-size="40.5" fill="#000000" transform="matrix(1.00, 0.00, -0.00, -1.00, 744.2, 12.0)">i</text><text xml:space="preserve" font-family="IowanOldStyle-Roman" font-size="40.5" fill="#000000" transform="matrix(1.00, 0.00, -0.00, -1.00, 756.2, 12.0)">m</text><text xml:space="preserve" font-family="IowanOldStyle-Roman" font-size="40.5" fill="#000000" transform="matrix(1.00, 0.00, -0.00, -1.00, 791.8, 12.0)">p</text><text xml:space="preserve" font-family="IowanOldStyle-Roman" font-size="40.5" fill="#000000" transform="matrix(1.00, 0.00, -0.00, -1.00, 814.5, 12.0)">l</text><text xml:space="preserve" font-family="IowanOldStyle-Roman" font-size="40.5" fill="#000000" transform="matrix(1.00, 0.00, -0.00, -1.00, 826.3, 12.0)">e</text></g></svg>