<?xml version="1.0" encoding="UTF-8" standalone="no"?><svg xmlns="http://www.w3.org/2000/svg" xmlns:xlink="http://www.w3.org/1999/xlink" clip-rule="evenodd" stroke-miterlimit="4.00" viewBox="0 0 915 47"><desc>SVG generated by Keynote</desc><defs></defs><g transform="matrix(1.00, 0.00, -0.00, -1.00, 0.0, 47.0)"><text xml:space="preserve" font-family="IowanOldStyle-Roman" font-size="41.9" fill="#000000" transform="matrix(1.00, 0.00, -0.00, -1.00, 1.0, 14.0)">W</text><text xml:space="preserve" font-family="IowanOldStyle-Roman" font-size="41.9" fill="#000000" transform="matrix(1.00, 0.00, -0.00, -1.00, 41.0, 14.0)">e</text><text xml:space="preserve" font-family="IowanOldStyle-Roman" font-size="41.9" fill="#000000" transform="matrix(1.00, 0.00, -0.00, -1.00, 61.4, 14.0)"> </text><text xml:space="preserve" font-family="IowanOldStyle-Roman" font-size="41.9" fill="#000000" transform="matrix(1.00, 0.00, -0.00, -1.00, 73.0, 14.0)">s</text><text xml:space="preserve" font-family="IowanOldStyle-Roman" font-size="41.9" fill="#000000" transform="matrix(1.00, 0.00, -0.00, -1.00, 91.6, 14.0)">t</text><text xml:space="preserve" font-family="IowanOldStyle-Roman" font-size="41.9" fill="#000000" transform="matrix(1.00, 0.00, -0.00, -1.00, 106.6, 14.0)">a</text><text xml:space="preserve" font-family="IowanOldStyle-Roman" font-size="41.9" fill="#000000" transform="matrix(1.00, 0.00, -0.00, -1.00, 126.8, 14.0)">r</text><text xml:space="preserve" font-family="IowanOldStyle-Roman" font-size="41.9" fill="#000000" transform="matrix(1.00, 0.00, -0.00, -1.00, 143.1, 14.0)">t</text><text xml:space="preserve" font-family="IowanOldStyle-Roman" font-size="41.9" fill="#000000" transform="matrix(1.00, 0.00, -0.00, -1.00, 158.2, 14.0)">e</text><text xml:space="preserve" font-family="IowanOldStyle-Roman" font-size="41.9" fill="#000000" transform="matrix(1.00, 0.00, -0.00, -1.00, 178.6, 14.0)">d</text><text xml:space="preserve" font-family="IowanOldStyle-Roman" font-size="41.9" fill="#000000" transform="matrix(1.00, 0.00, -0.00, -1.00, 202.1, 14.0)"> </text><text xml:space="preserve" font-family="IowanOldStyle-Roman" font-size="41.9" fill="#000000" transform="matrix(1.00, 0.00, -0.00, -1.00, 213.7, 14.0)">b</text><text xml:space="preserve" font-family="IowanOldStyle-Roman" font-size="41.9" fill="#000000" transform="matrix(1.00, 0.00, -0.00, -1.00, 237.0, 14.0)">y</text><text xml:space="preserve" font-family="IowanOldStyle-Roman" font-size="41.9" fill="#000000" transform="matrix(1.00, 0.00, -0.00, -1.00, 257.3, 14.0)"> </text><text xml:space="preserve" font-family="IowanOldStyle-Roman" font-size="41.9" fill="#000000" transform="matrix(1.00, 0.00, -0.00, -1.00, 269.0, 14.0)">e</text><text xml:space="preserve" font-family="IowanOldStyle-Roman" font-size="41.9" fill="#000000" transform="matrix(1.00, 0.00, -0.00, -1.00, 289.4, 14.0)">s</text><text xml:space="preserve" font-family="IowanOldStyle-Roman" font-size="41.9" fill="#000000" transform="matrix(1.00, 0.00, -0.00, -1.00, 307.9, 14.0)">t</text><text xml:space="preserve" font-family="IowanOldStyle-Roman" font-size="41.9" fill="#000000" transform="matrix(1.00, 0.00, -0.00, -1.00, 323.0, 14.0)">a</text><text xml:space="preserve" font-family="IowanOldStyle-Roman" font-size="41.9" fill="#000000" transform="matrix(1.00, 0.00, -0.00, -1.00, 343.1, 14.0)">b</text><text xml:space="preserve" font-family="IowanOldStyle-Roman" font-size="41.9" fill="#000000" transform="matrix(1.00, 0.00, -0.00, -1.00, 366.4, 14.0)">l</text><text xml:space="preserve" font-family="IowanOldStyle-Roman" font-size="41.9" fill="#000000" transform="matrix(1.00, 0.00, -0.00, -1.00, 378.6, 14.0)">i</text><text xml:space="preserve" font-family="IowanOldStyle-Roman" font-size="41.9" fill="#000000" transform="matrix(1.00, 0.00, -0.00, -1.00, 391.0, 14.0)">s</text><text xml:space="preserve" font-family="IowanOldStyle-Roman" font-size="41.9" fill="#000000" transform="matrix(1.00, 0.00, -0.00, -1.00, 409.6, 14.0)">h</text><text xml:space="preserve" font-family="IowanOldStyle-Roman" font-size="41.9" fill="#000000" transform="matrix(1.00, 0.00, -0.00, -1.00, 434.1, 14.0)">i</text><text xml:space="preserve" font-family="IowanOldStyle-Roman" font-size="41.9" fill="#000000" transform="matrix(1.00, 0.00, -0.00, -1.00, 446.5, 14.0)">n</text><text xml:space="preserve" font-family="IowanOldStyle-Roman" font-size="41.9" fill="#000000" transform="matrix(1.00, 0.00, -0.00, -1.00, 471.0, 14.0)">g</text><text xml:space="preserve" font-family="IowanOldStyle-Roman" font-size="41.9" fill="#000000" transform="matrix(1.00, 0.00, -0.00, -1.00, 492.6, 14.0)"> </text><text xml:space="preserve" font-family="IowanOldStyle-Roman" font-size="41.9" fill="#000000" transform="matrix(1.00, 0.00, -0.00, -1.00, 504.2, 14.0)">t</text><text xml:space="preserve" font-family="IowanOldStyle-Roman" font-size="41.9" fill="#000000" transform="matrix(1.00, 0.00, -0.00, -1.00, 519.2, 14.0)">h</text><text xml:space="preserve" font-family="IowanOldStyle-Roman" font-size="41.9" fill="#000000" transform="matrix(1.00, 0.00, -0.00, -1.00, 543.8, 14.0)">e</text><text xml:space="preserve" font-family="IowanOldStyle-Roman" font-size="41.9" fill="#000000" transform="matrix(1.00, 0.00, -0.00, -1.00, 564.2, 14.0)"> </text><text xml:space="preserve" font-family="IowanOldStyle-Roman" font-size="41.9" fill="#000000" transform="matrix(1.00, 0.00, -0.00, -1.00, 575.8, 14.0)">t</text><text xml:space="preserve" font-family="IowanOldStyle-Roman" font-size="41.9" fill="#000000" transform="matrix(1.00, 0.00, -0.00, -1.00, 590.9, 14.0)">o</text><text xml:space="preserve" font-family="IowanOldStyle-Roman" font-size="41.9" fill="#000000" transform="matrix(1.00, 0.00, -0.00, -1.00, 613.9, 14.0)">p</text><text xml:space="preserve" font-family="IowanOldStyle-Roman" font-size="41.9" fill="#000000" transform="matrix(1.00, 0.00, -0.00, -1.00, 637.4, 14.0)">i</text><text xml:space="preserve" font-family="IowanOldStyle-Roman" font-size="41.9" fill="#000000" transform="matrix(1.00, 0.00, -0.00, -1.00, 649.8, 14.0)">c</text><text xml:space="preserve" font-family="IowanOldStyle-Roman" font-size="41.9" fill="#000000" transform="matrix(1.00, 0.00, -0.00, -1.00, 668.5, 14.0)">s</text><text xml:space="preserve" font-family="IowanOldStyle-Roman" font-size="41.9" fill="#000000" transform="matrix(1.00, 0.00, -0.00, -1.00, 687.0, 14.0)"> </text><text xml:space="preserve" font-family="IowanOldStyle-Roman" font-size="41.9" fill="#000000" transform="matrix(1.00, 0.00, -0.00, -1.00, 698.6, 14.0)">t</text><text xml:space="preserve" font-family="IowanOldStyle-Roman" font-size="41.9" fill="#000000" transform="matrix(1.00, 0.00, -0.00, -1.00, 713.7, 14.0)">o</text><text xml:space="preserve" font-family="IowanOldStyle-Roman" font-size="41.9" fill="#000000" transform="matrix(1.00, 0.00, -0.00, -1.00, 736.7, 14.0)"> </text><text xml:space="preserve" font-family="IowanOldStyle-Roman" font-size="41.9" fill="#000000" transform="matrix(1.00, 0.00, -0.00, -1.00, 748.4, 14.0)">r</text><text xml:space="preserve" font-family="IowanOldStyle-Roman" font-size="41.9" fill="#000000" transform="matrix(1.00, 0.00, -0.00, -1.00, 764.7, 14.0)">e</text><text xml:space="preserve" font-family="IowanOldStyle-Roman" font-size="41.9" fill="#000000" transform="matrix(1.00, 0.00, -0.00, -1.00, 785.1, 14.0)">s</text><text xml:space="preserve" font-family="IowanOldStyle-Roman" font-size="41.9" fill="#000000" transform="matrix(1.00, 0.00, -0.00, -1.00, 803.6, 14.0)">e</text><text xml:space="preserve" font-family="IowanOldStyle-Roman" font-size="41.9" fill="#000000" transform="matrix(1.00, 0.00, -0.00, -1.00, 824.0, 14.0)">a</text><text xml:space="preserve" font-family="IowanOldStyle-Roman" font-size="41.9" fill="#000000" transform="matrix(1.00, 0.00, -0.00, -1.00, 844.2, 14.0)">r</text><text xml:space="preserve" font-family="IowanOldStyle-Roman" font-size="41.9" fill="#000000" transform="matrix(1.00, 0.00, -0.00, -1.00, 860.5, 14.0)">c</text><text xml:space="preserve" font-family="IowanOldStyle-Roman" font-size="41.9" fill="#000000" transform="matrix(1.00, 0.00, -0.00, -1.00, 879.2, 14.0)">h</text><text xml:space="preserve" font-family="IowanOldStyle-Roman" font-size="41.9" fill="#000000" transform="matrix(1.00, 0.00, -0.00, -1.00, 903.7, 14.0)">,</text></g></svg>