<?xml version="1.0" encoding="UTF-8" standalone="no"?><svg xmlns="http://www.w3.org/2000/svg" xmlns:xlink="http://www.w3.org/1999/xlink" clip-rule="evenodd" stroke-miterlimit="4.00" viewBox="0 0 916 30"><desc>SVG generated by Keynote</desc><defs></defs><g transform="matrix(1.00, 0.00, -0.00, -1.00, 0.0, 30.0)"><text xml:space="preserve" font-family="IowanOldStyle-Roman" font-size="26.0" fill="#000000" transform="matrix(1.00, 0.00, -0.00, -1.00, 1.0, 8.0)">M</text><text xml:space="preserve" font-family="IowanOldStyle-Roman" font-size="26.0" fill="#000000" transform="matrix(1.00, 0.00, -0.00, -1.00, 24.7, 8.0)">a</text><text xml:space="preserve" font-family="IowanOldStyle-Roman" font-size="26.0" fill="#000000" transform="matrix(1.00, 0.00, -0.00, -1.00, 37.2, 8.0)">l</text><text xml:space="preserve" font-family="IowanOldStyle-Roman" font-size="26.0" fill="#000000" transform="matrix(1.00, 0.00, -0.00, -1.00, 44.8, 8.0)">e</text><text xml:space="preserve" font-family="IowanOldStyle-Roman" font-size="26.0" fill="#000000" transform="matrix(1.00, 0.00, -0.00, -1.00, 57.4, 8.0)"> </text><text xml:space="preserve" font-family="IowanOldStyle-Roman" font-size="26.0" fill="#000000" transform="matrix(1.00, 0.00, -0.00, -1.00, 64.7, 8.0)">f</text><text xml:space="preserve" font-family="IowanOldStyle-Roman" font-size="26.0" fill="#000000" transform="matrix(1.00, 0.00, -0.00, -1.00, 73.0, 8.0)">a</text><text xml:space="preserve" font-family="IowanOldStyle-Roman" font-size="26.0" fill="#000000" transform="matrix(1.00, 0.00, -0.00, -1.00, 85.5, 8.0)">n</text><text xml:space="preserve" font-family="IowanOldStyle-Roman" font-size="26.0" fill="#000000" transform="matrix(1.00, 0.00, -0.00, -1.00, 100.7, 8.0)">s</text><text xml:space="preserve" font-family="IowanOldStyle-Roman" font-size="26.0" fill="#000000" transform="matrix(1.00, 0.00, -0.00, -1.00, 112.2, 8.0)"> </text><text xml:space="preserve" font-family="IowanOldStyle-Roman" font-size="26.0" fill="#000000" transform="matrix(1.00, 0.00, -0.00, -1.00, 119.4, 8.0)">a</text><text xml:space="preserve" font-family="IowanOldStyle-Roman" font-size="26.0" fill="#000000" transform="matrix(1.00, 0.00, -0.00, -1.00, 131.9, 8.0)">l</text><text xml:space="preserve" font-family="IowanOldStyle-Roman" font-size="26.0" fill="#000000" transform="matrix(1.00, 0.00, -0.00, -1.00, 139.5, 8.0)">s</text><text xml:space="preserve" font-family="IowanOldStyle-Roman" font-size="26.0" fill="#000000" transform="matrix(1.00, 0.00, -0.00, -1.00, 151.0, 8.0)">o</text><text xml:space="preserve" font-family="IowanOldStyle-Roman" font-size="26.0" fill="#000000" transform="matrix(1.00, 0.00, -0.00, -1.00, 165.3, 8.0)"> </text><text xml:space="preserve" font-family="IowanOldStyle-Roman" font-size="26.0" fill="#000000" transform="matrix(1.00, 0.00, -0.00, -1.00, 172.5, 8.0)">m</text><text xml:space="preserve" font-family="IowanOldStyle-Roman" font-size="26.0" fill="#000000" transform="matrix(1.00, 0.00, -0.00, -1.00, 195.4, 8.0)">u</text><text xml:space="preserve" font-family="IowanOldStyle-Roman" font-size="26.0" fill="#000000" transform="matrix(1.00, 0.00, -0.00, -1.00, 210.7, 8.0)">s</text><text xml:space="preserve" font-family="IowanOldStyle-Roman" font-size="26.0" fill="#000000" transform="matrix(1.00, 0.00, -0.00, -1.00, 222.2, 8.0)">t</text><text xml:space="preserve" font-family="IowanOldStyle-Roman" font-size="26.0" fill="#000000" transform="matrix(1.00, 0.00, -0.00, -1.00, 231.6, 8.0)"> </text><text xml:space="preserve" font-family="IowanOldStyle-Roman" font-size="26.0" fill="#000000" transform="matrix(1.00, 0.00, -0.00, -1.00, 238.8, 8.0)">ﬁ</text><text xml:space="preserve" font-family="IowanOldStyle-Roman" font-size="26.0" fill="#000000" transform="matrix(1.00, 0.00, -0.00, -1.00, 254.1, 8.0)">n</text><text xml:space="preserve" font-family="IowanOldStyle-Roman" font-size="26.0" fill="#000000" transform="matrix(1.00, 0.00, -0.00, -1.00, 269.3, 8.0)">d</text><text xml:space="preserve" font-family="IowanOldStyle-Roman" font-size="26.0" fill="#000000" transform="matrix(1.00, 0.00, -0.00, -1.00, 283.9, 8.0)"> </text><text xml:space="preserve" font-family="IowanOldStyle-Roman" font-size="26.0" fill="#000000" transform="matrix(1.00, 0.00, -0.00, -1.00, 291.1, 8.0)">u</text><text xml:space="preserve" font-family="IowanOldStyle-Roman" font-size="26.0" fill="#000000" transform="matrix(1.00, 0.00, -0.00, -1.00, 306.4, 8.0)">n</text><text xml:space="preserve" font-family="IowanOldStyle-Roman" font-size="26.0" fill="#000000" transform="matrix(1.00, 0.00, -0.00, -1.00, 321.6, 8.0)">i</text><text xml:space="preserve" font-family="IowanOldStyle-Roman" font-size="26.0" fill="#000000" transform="matrix(1.00, 0.00, -0.00, -1.00, 329.3, 8.0)">s</text><text xml:space="preserve" font-family="IowanOldStyle-Roman" font-size="26.0" fill="#000000" transform="matrix(1.00, 0.00, -0.00, -1.00, 340.8, 8.0)">e</text><text xml:space="preserve" font-family="IowanOldStyle-Roman" font-size="26.0" fill="#000000" transform="matrix(1.00, 0.00, -0.00, -1.00, 353.0, 8.0)">x</text><text xml:space="preserve" font-family="IowanOldStyle-Roman" font-size="26.0" fill="#000000" transform="matrix(1.00, 0.00, -0.00, -1.00, 366.8, 8.0)"> </text><text xml:space="preserve" font-family="IowanOldStyle-Roman" font-size="26.0" fill="#000000" transform="matrix(1.00, 0.00, -0.00, -1.00, 374.0, 8.0)">o</text><text xml:space="preserve" font-family="IowanOldStyle-Roman" font-size="26.0" fill="#000000" transform="matrix(1.00, 0.00, -0.00, -1.00, 388.3, 8.0)">r</text><text xml:space="preserve" font-family="IowanOldStyle-Roman" font-size="26.0" fill="#000000" transform="matrix(1.00, 0.00, -0.00, -1.00, 398.5, 8.0)"> </text><text xml:space="preserve" font-family="IowanOldStyle-Roman" font-size="26.0" fill="#000000" transform="matrix(1.00, 0.00, -0.00, -1.00, 405.7, 8.0)">m</text><text xml:space="preserve" font-family="IowanOldStyle-Roman" font-size="26.0" fill="#000000" transform="matrix(1.00, 0.00, -0.00, -1.00, 428.6, 8.0)">e</text><text xml:space="preserve" font-family="IowanOldStyle-Roman" font-size="26.0" fill="#000000" transform="matrix(1.00, 0.00, -0.00, -1.00, 441.3, 8.0)">n</text><text xml:space="preserve" font-family="IowanOldStyle-Roman" font-size="26.0" fill="#000000" transform="matrix(1.00, 0.00, -0.00, -1.00, 456.4, 8.0)">’</text><text xml:space="preserve" font-family="IowanOldStyle-Roman" font-size="26.0" fill="#000000" transform="matrix(1.00, 0.00, -0.00, -1.00, 463.7, 8.0)">s</text><text xml:space="preserve" font-family="IowanOldStyle-Roman" font-size="26.0" fill="#000000" transform="matrix(1.00, 0.00, -0.00, -1.00, 475.2, 8.0)"> </text><text xml:space="preserve" font-family="IowanOldStyle-Roman" font-size="26.0" fill="#000000" transform="matrix(1.00, 0.00, -0.00, -1.00, 482.4, 8.0)">s</text><text xml:space="preserve" font-family="IowanOldStyle-Roman" font-size="26.0" fill="#000000" transform="matrix(1.00, 0.00, -0.00, -1.00, 493.9, 8.0)">i</text><text xml:space="preserve" font-family="IowanOldStyle-Roman" font-size="26.0" fill="#000000" transform="matrix(1.00, 0.00, -0.00, -1.00, 501.6, 8.0)">z</text><text xml:space="preserve" font-family="IowanOldStyle-Roman" font-size="26.0" fill="#000000" transform="matrix(1.00, 0.00, -0.00, -1.00, 513.9, 8.0)">e</text><text xml:space="preserve" font-family="IowanOldStyle-Roman" font-size="26.0" fill="#000000" transform="matrix(1.00, 0.00, -0.00, -1.00, 526.6, 8.0)">s</text><text xml:space="preserve" font-family="IowanOldStyle-Roman" font-size="26.0" fill="#000000" transform="matrix(1.00, 0.00, -0.00, -1.00, 538.1, 8.0)"> </text><text xml:space="preserve" font-family="IowanOldStyle-Roman" font-size="26.0" fill="#000000" transform="matrix(1.00, 0.00, -0.00, -1.00, 545.3, 8.0)">i</text><text xml:space="preserve" font-family="IowanOldStyle-Roman" font-size="26.0" fill="#000000" transform="matrix(1.00, 0.00, -0.00, -1.00, 553.0, 8.0)">n</text><text xml:space="preserve" font-family="IowanOldStyle-Roman" font-size="26.0" fill="#000000" transform="matrix(1.00, 0.00, -0.00, -1.00, 568.2, 8.0)"> </text><text xml:space="preserve" font-family="IowanOldStyle-Roman" font-size="26.0" fill="#000000" transform="matrix(1.00, 0.00, -0.00, -1.00, 575.4, 8.0)">w</text><text xml:space="preserve" font-family="IowanOldStyle-Roman" font-size="26.0" fill="#000000" transform="matrix(1.00, 0.00, -0.00, -1.00, 595.6, 8.0)">o</text><text xml:space="preserve" font-family="IowanOldStyle-Roman" font-size="26.0" fill="#000000" transform="matrix(1.00, 0.00, -0.00, -1.00, 609.9, 8.0)">m</text><text xml:space="preserve" font-family="IowanOldStyle-Roman" font-size="26.0" fill="#000000" transform="matrix(1.00, 0.00, -0.00, -1.00, 632.8, 8.0)">e</text><text xml:space="preserve" font-family="IowanOldStyle-Roman" font-size="26.0" fill="#000000" transform="matrix(1.00, 0.00, -0.00, -1.00, 645.4, 8.0)">n</text><text xml:space="preserve" font-family="IowanOldStyle-Roman" font-size="26.0" fill="#000000" transform="matrix(1.00, 0.00, -0.00, -1.00, 660.6, 8.0)">’</text><text xml:space="preserve" font-family="IowanOldStyle-Roman" font-size="26.0" fill="#000000" transform="matrix(1.00, 0.00, -0.00, -1.00, 667.8, 8.0)">s</text><text xml:space="preserve" font-family="IowanOldStyle-Roman" font-size="26.0" fill="#000000" transform="matrix(1.00, 0.00, -0.00, -1.00, 679.3, 8.0)"> </text><text xml:space="preserve" font-family="IowanOldStyle-Roman" font-size="26.0" fill="#000000" transform="matrix(1.00, 0.00, -0.00, -1.00, 686.6, 8.0)">s</text><text xml:space="preserve" font-family="IowanOldStyle-Roman" font-size="26.0" fill="#000000" transform="matrix(1.00, 0.00, -0.00, -1.00, 698.1, 8.0)">p</text><text xml:space="preserve" font-family="IowanOldStyle-Roman" font-size="26.0" fill="#000000" transform="matrix(1.00, 0.00, -0.00, -1.00, 712.6, 8.0)">o</text><text xml:space="preserve" font-family="IowanOldStyle-Roman" font-size="26.0" fill="#000000" transform="matrix(1.00, 0.00, -0.00, -1.00, 727.0, 8.0)">r</text><text xml:space="preserve" font-family="IowanOldStyle-Roman" font-size="26.0" fill="#000000" transform="matrix(1.00, 0.00, -0.00, -1.00, 737.1, 8.0)">t</text><text xml:space="preserve" font-family="IowanOldStyle-Roman" font-size="26.0" fill="#000000" transform="matrix(1.00, 0.00, -0.00, -1.00, 746.5, 8.0)">s</text><text xml:space="preserve" font-family="IowanOldStyle-Roman" font-size="26.0" fill="#000000" transform="matrix(1.00, 0.00, -0.00, -1.00, 758.0, 8.0)"> </text><text xml:space="preserve" font-family="IowanOldStyle-Roman" font-size="26.0" fill="#000000" transform="matrix(1.00, 0.00, -0.00, -1.00, 765.2, 8.0)">t</text><text xml:space="preserve" font-family="IowanOldStyle-Roman" font-size="26.0" fill="#000000" transform="matrix(1.00, 0.00, -0.00, -1.00, 774.5, 8.0)">e</text><text xml:space="preserve" font-family="IowanOldStyle-Roman" font-size="26.0" fill="#000000" transform="matrix(1.00, 0.00, -0.00, -1.00, 787.2, 8.0)">a</text><text xml:space="preserve" font-family="IowanOldStyle-Roman" font-size="26.0" fill="#000000" transform="matrix(1.00, 0.00, -0.00, -1.00, 799.7, 8.0)">m</text><text xml:space="preserve" font-family="IowanOldStyle-Roman" font-size="26.0" fill="#000000" transform="matrix(1.00, 0.00, -0.00, -1.00, 822.6, 8.0)"> </text><text xml:space="preserve" font-family="IowanOldStyle-Roman" font-size="26.0" fill="#000000" transform="matrix(1.00, 0.00, -0.00, -1.00, 829.8, 8.0)">a</text><text xml:space="preserve" font-family="IowanOldStyle-Roman" font-size="26.0" fill="#000000" transform="matrix(1.00, 0.00, -0.00, -1.00, 842.3, 8.0)">p</text><text xml:space="preserve" font-family="IowanOldStyle-Roman" font-size="26.0" fill="#000000" transform="matrix(1.00, 0.00, -0.00, -1.00, 856.9, 8.0)">p</text><text xml:space="preserve" font-family="IowanOldStyle-Roman" font-size="26.0" fill="#000000" transform="matrix(1.00, 0.00, -0.00, -1.00, 871.4, 8.0)">a</text><text xml:space="preserve" font-family="IowanOldStyle-Roman" font-size="26.0" fill="#000000" transform="matrix(1.00, 0.00, -0.00, -1.00, 884.0, 8.0)">r</text><text xml:space="preserve" font-family="IowanOldStyle-Roman" font-size="26.0" fill="#000000" transform="matrix(1.00, 0.00, -0.00, -1.00, 894.1, 8.0)">e</text><text xml:space="preserve" font-family="IowanOldStyle-Roman" font-size="26.0" fill="#000000" transform="matrix(1.00, 0.00, -0.00, -1.00, 906.8, 8.0)">l</text></g></svg>