<?xml version="1.0" encoding="UTF-8" standalone="no"?><svg xmlns="http://www.w3.org/2000/svg" xmlns:xlink="http://www.w3.org/1999/xlink" clip-rule="evenodd" stroke-miterlimit="4.00" viewBox="0 0 944 30"><desc>SVG generated by Keynote</desc><defs></defs><g transform="matrix(1.00, 0.00, -0.00, -1.00, 0.0, 30.0)"><text xml:space="preserve" font-family="IowanOldStyle-Roman" font-size="26.0" fill="#000000" transform="matrix(1.00, 0.00, -0.00, -1.00, 0.0, 9.0)">“</text><text xml:space="preserve" font-family="IowanOldStyle-Roman" font-size="26.0" fill="#000000" transform="matrix(1.00, 0.00, -0.00, -1.00, 11.2, 9.0)">f</text><text xml:space="preserve" font-family="IowanOldStyle-Roman" font-size="26.0" fill="#000000" transform="matrix(1.00, 0.00, -0.00, -1.00, 19.5, 9.0)">e</text><text xml:space="preserve" font-family="IowanOldStyle-Roman" font-size="26.0" fill="#000000" transform="matrix(1.00, 0.00, -0.00, -1.00, 32.1, 9.0)">m</text><text xml:space="preserve" font-family="IowanOldStyle-Roman" font-size="26.0" fill="#000000" transform="matrix(1.00, 0.00, -0.00, -1.00, 55.0, 9.0)">m</text><text xml:space="preserve" font-family="IowanOldStyle-Roman" font-size="26.0" fill="#000000" transform="matrix(1.00, 0.00, -0.00, -1.00, 77.9, 9.0)">e</text><text xml:space="preserve" font-family="IowanOldStyle-Roman" font-size="26.0" fill="#000000" transform="matrix(1.00, 0.00, -0.00, -1.00, 90.6, 9.0)">”</text><text xml:space="preserve" font-family="IowanOldStyle-Roman" font-size="26.0" fill="#000000" transform="matrix(1.00, 0.00, -0.00, -1.00, 102.9, 9.0)"> </text><text xml:space="preserve" font-family="IowanOldStyle-Roman" font-size="26.0" fill="#000000" transform="matrix(1.00, 0.00, -0.00, -1.00, 110.1, 9.0)">s</text><text xml:space="preserve" font-family="IowanOldStyle-Roman" font-size="26.0" fill="#000000" transform="matrix(1.00, 0.00, -0.00, -1.00, 121.6, 9.0)">t</text><text xml:space="preserve" font-family="IowanOldStyle-Roman" font-size="26.0" fill="#000000" transform="matrix(1.00, 0.00, -0.00, -1.00, 131.0, 9.0)">y</text><text xml:space="preserve" font-family="IowanOldStyle-Roman" font-size="26.0" fill="#000000" transform="matrix(1.00, 0.00, -0.00, -1.00, 143.6, 9.0)">l</text><text xml:space="preserve" font-family="IowanOldStyle-Roman" font-size="26.0" fill="#000000" transform="matrix(1.00, 0.00, -0.00, -1.00, 151.2, 9.0)">e</text><text xml:space="preserve" font-family="IowanOldStyle-Roman" font-size="26.0" fill="#000000" transform="matrix(1.00, 0.00, -0.00, -1.00, 163.9, 9.0)">/</text><text xml:space="preserve" font-family="IowanOldStyle-Roman" font-size="26.0" fill="#000000" transform="matrix(1.00, 0.00, -0.00, -1.00, 175.9, 9.0)">ﬁ</text><text xml:space="preserve" font-family="IowanOldStyle-Roman" font-size="26.0" fill="#000000" transform="matrix(1.00, 0.00, -0.00, -1.00, 191.2, 9.0)">t</text><text xml:space="preserve" font-family="IowanOldStyle-Roman" font-size="26.0" fill="#000000" transform="matrix(1.00, 0.00, -0.00, -1.00, 200.6, 9.0)"> </text><text xml:space="preserve" font-family="IowanOldStyle-Roman" font-size="26.0" fill="#000000" transform="matrix(1.00, 0.00, -0.00, -1.00, 207.8, 9.0)">c</text><text xml:space="preserve" font-family="IowanOldStyle-Roman" font-size="26.0" fill="#000000" transform="matrix(1.00, 0.00, -0.00, -1.00, 219.4, 9.0)">a</text><text xml:space="preserve" font-family="IowanOldStyle-Roman" font-size="26.0" fill="#000000" transform="matrix(1.00, 0.00, -0.00, -1.00, 231.9, 9.0)">t</text><text xml:space="preserve" font-family="IowanOldStyle-Roman" font-size="26.0" fill="#000000" transform="matrix(1.00, 0.00, -0.00, -1.00, 241.2, 9.0)">e</text><text xml:space="preserve" font-family="IowanOldStyle-Roman" font-size="26.0" fill="#000000" transform="matrix(1.00, 0.00, -0.00, -1.00, 253.9, 9.0)">g</text><text xml:space="preserve" font-family="IowanOldStyle-Roman" font-size="26.0" fill="#000000" transform="matrix(1.00, 0.00, -0.00, -1.00, 267.3, 9.0)">o</text><text xml:space="preserve" font-family="IowanOldStyle-Roman" font-size="26.0" fill="#000000" transform="matrix(1.00, 0.00, -0.00, -1.00, 281.7, 9.0)">r</text><text xml:space="preserve" font-family="IowanOldStyle-Roman" font-size="26.0" fill="#000000" transform="matrix(1.00, 0.00, -0.00, -1.00, 292.3, 9.0)">y</text><text xml:space="preserve" font-family="IowanOldStyle-Roman" font-size="26.0" fill="#000000" transform="matrix(1.00, 0.00, -0.00, -1.00, 304.9, 9.0)"> </text><text xml:space="preserve" font-family="IowanOldStyle-Roman" font-size="26.0" fill="#000000" transform="matrix(1.00, 0.00, -0.00, -1.00, 312.1, 9.0)">t</text><text xml:space="preserve" font-family="IowanOldStyle-Roman" font-size="26.0" fill="#000000" transform="matrix(1.00, 0.00, -0.00, -1.00, 321.5, 9.0)">h</text><text xml:space="preserve" font-family="IowanOldStyle-Roman" font-size="26.0" fill="#000000" transform="matrix(1.00, 0.00, -0.00, -1.00, 336.7, 9.0)">a</text><text xml:space="preserve" font-family="IowanOldStyle-Roman" font-size="26.0" fill="#000000" transform="matrix(1.00, 0.00, -0.00, -1.00, 349.2, 9.0)">t</text><text xml:space="preserve" font-family="IowanOldStyle-Roman" font-size="26.0" fill="#000000" transform="matrix(1.00, 0.00, -0.00, -1.00, 358.6, 9.0)"> </text><text xml:space="preserve" font-family="IowanOldStyle-Roman" font-size="26.0" fill="#000000" transform="matrix(1.00, 0.00, -0.00, -1.00, 365.8, 9.0)">a</text><text xml:space="preserve" font-family="IowanOldStyle-Roman" font-size="26.0" fill="#000000" transform="matrix(1.00, 0.00, -0.00, -1.00, 378.3, 9.0)">r</text><text xml:space="preserve" font-family="IowanOldStyle-Roman" font-size="26.0" fill="#000000" transform="matrix(1.00, 0.00, -0.00, -1.00, 388.4, 9.0)">e</text><text xml:space="preserve" font-family="IowanOldStyle-Roman" font-size="26.0" fill="#000000" transform="matrix(1.00, 0.00, -0.00, -1.00, 401.1, 9.0)"> </text><text xml:space="preserve" font-family="IowanOldStyle-Roman" font-size="26.0" fill="#000000" transform="matrix(1.00, 0.00, -0.00, -1.00, 408.3, 9.0)">t</text><text xml:space="preserve" font-family="IowanOldStyle-Roman" font-size="26.0" fill="#000000" transform="matrix(1.00, 0.00, -0.00, -1.00, 417.7, 9.0)">r</text><text xml:space="preserve" font-family="IowanOldStyle-Roman" font-size="26.0" fill="#000000" transform="matrix(1.00, 0.00, -0.00, -1.00, 427.8, 9.0)">a</text><text xml:space="preserve" font-family="IowanOldStyle-Roman" font-size="26.0" fill="#000000" transform="matrix(1.00, 0.00, -0.00, -1.00, 440.3, 9.0)">d</text><text xml:space="preserve" font-family="IowanOldStyle-Roman" font-size="26.0" fill="#000000" transform="matrix(1.00, 0.00, -0.00, -1.00, 455.0, 9.0)">i</text><text xml:space="preserve" font-family="IowanOldStyle-Roman" font-size="26.0" fill="#000000" transform="matrix(1.00, 0.00, -0.00, -1.00, 462.7, 9.0)">t</text><text xml:space="preserve" font-family="IowanOldStyle-Roman" font-size="26.0" fill="#000000" transform="matrix(1.00, 0.00, -0.00, -1.00, 472.0, 9.0)">i</text><text xml:space="preserve" font-family="IowanOldStyle-Roman" font-size="26.0" fill="#000000" transform="matrix(1.00, 0.00, -0.00, -1.00, 479.7, 9.0)">o</text><text xml:space="preserve" font-family="IowanOldStyle-Roman" font-size="26.0" fill="#000000" transform="matrix(1.00, 0.00, -0.00, -1.00, 494.1, 9.0)">n</text><text xml:space="preserve" font-family="IowanOldStyle-Roman" font-size="26.0" fill="#000000" transform="matrix(1.00, 0.00, -0.00, -1.00, 509.2, 9.0)">a</text><text xml:space="preserve" font-family="IowanOldStyle-Roman" font-size="26.0" fill="#000000" transform="matrix(1.00, 0.00, -0.00, -1.00, 521.7, 9.0)">l</text><text xml:space="preserve" font-family="IowanOldStyle-Roman" font-size="26.0" fill="#000000" transform="matrix(1.00, 0.00, -0.00, -1.00, 529.3, 9.0)">l</text><text xml:space="preserve" font-family="IowanOldStyle-Roman" font-size="26.0" fill="#000000" transform="matrix(1.00, 0.00, -0.00, -1.00, 536.9, 9.0)">y</text><text xml:space="preserve" font-family="IowanOldStyle-Roman" font-size="26.0" fill="#000000" transform="matrix(1.00, 0.00, -0.00, -1.00, 549.6, 9.0)"> </text><text xml:space="preserve" font-family="IowanOldStyle-Roman" font-size="26.0" fill="#000000" transform="matrix(1.00, 0.00, -0.00, -1.00, 556.8, 9.0)">m</text><text xml:space="preserve" font-family="IowanOldStyle-Roman" font-size="26.0" fill="#000000" transform="matrix(1.00, 0.00, -0.00, -1.00, 579.6, 9.0)">a</text><text xml:space="preserve" font-family="IowanOldStyle-Roman" font-size="26.0" fill="#000000" transform="matrix(1.00, 0.00, -0.00, -1.00, 592.2, 9.0)">d</text><text xml:space="preserve" font-family="IowanOldStyle-Roman" font-size="26.0" fill="#000000" transform="matrix(1.00, 0.00, -0.00, -1.00, 606.8, 9.0)">e</text><text xml:space="preserve" font-family="IowanOldStyle-Roman" font-size="26.0" fill="#000000" transform="matrix(1.00, 0.00, -0.00, -1.00, 619.4, 9.0)"> </text><text xml:space="preserve" font-family="IowanOldStyle-Roman" font-size="26.0" fill="#000000" transform="matrix(1.00, 0.00, -0.00, -1.00, 626.7, 9.0)">f</text><text xml:space="preserve" font-family="IowanOldStyle-Roman" font-size="26.0" fill="#000000" transform="matrix(1.00, 0.00, -0.00, -1.00, 635.0, 9.0)">o</text><text xml:space="preserve" font-family="IowanOldStyle-Roman" font-size="26.0" fill="#000000" transform="matrix(1.00, 0.00, -0.00, -1.00, 649.3, 9.0)">r</text><text xml:space="preserve" font-family="IowanOldStyle-Roman" font-size="26.0" fill="#000000" transform="matrix(1.00, 0.00, -0.00, -1.00, 659.4, 9.0)"> </text><text xml:space="preserve" font-family="IowanOldStyle-Roman" font-size="26.0" fill="#000000" transform="matrix(1.00, 0.00, -0.00, -1.00, 666.7, 9.0)">w</text><text xml:space="preserve" font-family="IowanOldStyle-Roman" font-size="26.0" fill="#000000" transform="matrix(1.00, 0.00, -0.00, -1.00, 686.8, 9.0)">o</text><text xml:space="preserve" font-family="IowanOldStyle-Roman" font-size="26.0" fill="#000000" transform="matrix(1.00, 0.00, -0.00, -1.00, 701.1, 9.0)">m</text><text xml:space="preserve" font-family="IowanOldStyle-Roman" font-size="26.0" fill="#000000" transform="matrix(1.00, 0.00, -0.00, -1.00, 724.0, 9.0)">e</text><text xml:space="preserve" font-family="IowanOldStyle-Roman" font-size="26.0" fill="#000000" transform="matrix(1.00, 0.00, -0.00, -1.00, 736.7, 9.0)">n</text><text xml:space="preserve" font-family="IowanOldStyle-Roman" font-size="26.0" fill="#000000" transform="matrix(1.00, 0.00, -0.00, -1.00, 751.8, 9.0)"> </text><text xml:space="preserve" font-family="IowanOldStyle-Roman" font-size="26.0" fill="#000000" transform="matrix(1.00, 0.00, -0.00, -1.00, 759.1, 9.0)">s</text><text xml:space="preserve" font-family="IowanOldStyle-Roman" font-size="26.0" fill="#000000" transform="matrix(1.00, 0.00, -0.00, -1.00, 770.6, 9.0)">p</text><text xml:space="preserve" font-family="IowanOldStyle-Roman" font-size="26.0" fill="#000000" transform="matrix(1.00, 0.00, -0.00, -1.00, 785.1, 9.0)">o</text><text xml:space="preserve" font-family="IowanOldStyle-Roman" font-size="26.0" fill="#000000" transform="matrix(1.00, 0.00, -0.00, -1.00, 799.5, 9.0)">r</text><text xml:space="preserve" font-family="IowanOldStyle-Roman" font-size="26.0" fill="#000000" transform="matrix(1.00, 0.00, -0.00, -1.00, 809.6, 9.0)">t</text><text xml:space="preserve" font-family="IowanOldStyle-Roman" font-size="26.0" fill="#000000" transform="matrix(1.00, 0.00, -0.00, -1.00, 819.0, 9.0)">s</text><text xml:space="preserve" font-family="IowanOldStyle-Roman" font-size="26.0" fill="#000000" transform="matrix(1.00, 0.00, -0.00, -1.00, 830.5, 9.0)"> </text><text xml:space="preserve" font-family="IowanOldStyle-Roman" font-size="26.0" fill="#000000" transform="matrix(1.00, 0.00, -0.00, -1.00, 837.7, 9.0)">f</text><text xml:space="preserve" font-family="IowanOldStyle-Roman" font-size="26.0" fill="#000000" transform="matrix(1.00, 0.00, -0.00, -1.00, 846.0, 9.0)">a</text><text xml:space="preserve" font-family="IowanOldStyle-Roman" font-size="26.0" fill="#000000" transform="matrix(1.00, 0.00, -0.00, -1.00, 858.5, 9.0)">n</text><text xml:space="preserve" font-family="IowanOldStyle-Roman" font-size="26.0" fill="#000000" transform="matrix(1.00, 0.00, -0.00, -1.00, 873.7, 9.0)">s</text><text xml:space="preserve" font-family="IowanOldStyle-Roman" font-size="26.0" fill="#000000" transform="matrix(1.00, 0.00, -0.00, -1.00, 885.2, 9.0)">,</text><text xml:space="preserve" font-family="IowanOldStyle-Roman" font-size="26.0" fill="#000000" transform="matrix(1.00, 0.00, -0.00, -1.00, 892.4, 9.0)"> </text><text xml:space="preserve" font-family="IowanOldStyle-Roman" font-size="26.0" fill="#000000" transform="matrix(1.00, 0.00, -0.00, -1.00, 899.6, 9.0)">a</text><text xml:space="preserve" font-family="IowanOldStyle-Roman" font-size="26.0" fill="#000000" transform="matrix(1.00, 0.00, -0.00, -1.00, 912.1, 9.0)">n</text><text xml:space="preserve" font-family="IowanOldStyle-Roman" font-size="26.0" fill="#000000" transform="matrix(1.00, 0.00, -0.00, -1.00, 927.3, 9.0)">d</text></g></svg>